$MeshFormat
4.1 0 8
$EndMeshFormat
$Entities
4 4 1 0
1 0 -0.0949999988 0 0 
2 0.100000001 -0.0949999988 0 0 
3 0.100000001 0.00499999989 0 0 
4 0 0.00499999989 0 0 
1 0 -0.0949999988 0 0.100000001 -0.0949999988 0 0 2 1 -2 
2 0.100000001 -0.0949999988 0 0.100000001 0.004999999889999995 0 0 2 2 -3 
3 0 0.00499999989 0 0.100000001 0.00499999989 0 0 2 3 -4 
4 0 -0.0949999988 0 0 0.004999999890000002 0 0 2 4 -1 
1 0 -0.0949999988 0 0.100000001 0.004999999890000002 0 0 4 1 2 3 4 
$EndEntities
$Nodes
9 121 1 121
0 1 0 1
1
0 -0.0949999988 0
0 2 0 1
2
0.100000001 -0.0949999988 0
0 3 0 1
3
0.100000001 0.00499999989 0
0 4 0 1
4
0 0.00499999989 0
1 1 0 9
5
6
7
8
9
10
11
12
13
0.01000000009998107 -0.0949999988 0
0.02000000019995474 -0.0949999988 0
0.03000000029992543 -0.0949999988 0
0.04000000039989572 -0.0949999988 0
0.05000000049986751 -0.0949999988 0
0.06000000059989264 -0.0949999988 0
0.0700000006999186 -0.0949999988 0
0.08000000079994754 -0.0949999988 0
0.09000000089997107 -0.0949999988 0
1 2 0 9
14
15
16
17
18
19
20
21
22
0.100000001 -0.08499999893101325 0
0.100000001 -0.07499999906204276 0
0.100000001 -0.06499999919306686 0
0.100000001 -0.0549999993240964 0
0.100000001 -0.04499999945512728 0
0.100000001 -0.03499999958610075 0
0.100000001 -0.02499999971707881 0
0.100000001 -0.01499999984805091 0
0.100000001 -0.004999999979026809 0
1 3 0 9
23
24
25
26
27
28
29
30
31
0.09000000090002276 0.00499999989 0
0.08000000080005365 0.00499999989 0
0.07000000070007911 0.00499999989 0
0.06000000060010945 0.00499999989 0
0.0500000005001368 0.00499999989 0
0.04000000040011079 0.00499999989 0
0.03000000030008398 0.00499999989 0
0.02000000020005417 0.00499999989 0
0.0100000001000298 0.00499999989 0
1 4 0 9
32
33
34
35
36
37
38
39
40
0 -0.004999999978980182 0
0 -0.01499999984795319 0
0 -0.02499999971692908 0
0 -0.0349999995859036 0
0 -0.04499999945487272 0
0 -0.05499999932389925 0
0 -0.0649999991929212 0
0 -0.0749999990619491 0
0 -0.08499999893097319 0
2 1 0 81
41
42
43
44
45
46
47
48
49
50
51
52
53
54
55
56
57
58
59
60
61
62
63
64
65
66
67
68
69
70
71
72
73
74
75
76
77
78
79
80
81
82
83
84
85
86
87
88
89
90
91
92
93
94
95
96
97
98
99
100
101
102
103
104
105
106
107
108
109
110
111
112
113
114
115
116
117
118
119
120
121
0.01000000009998594 -0.08499999893097719 0
0.01000000009999081 -0.07499999906195844 0
0.01000000009999568 -0.06499999919293577 0
0.01000000010000056 -0.05499999932391896 0
0.01000000010000543 -0.04499999945489817 0
0.01000000010001031 -0.03499999958592332 0
0.01000000010001518 -0.02499999971694405 0
0.01000000010002005 -0.01499999984796296 0
0.01000000010002492 -0.004999999978984845 0
0.02000000019996469 -0.08499999893098122 0
0.02000000019997463 -0.07499999906196782 0
0.02000000019998457 -0.06499999919295034 0
0.02000000019999452 -0.05499999932393869 0
0.02000000020000445 -0.04499999945492362 0
0.0200000002000144 -0.03499999958594303 0
0.02000000020002434 -0.02499999971695902 0
0.02000000020003428 -0.01499999984797273 0
0.02000000020004423 -0.00499999997898951 0
0.03000000029994129 -0.08499999893098521 0
0.03000000029995714 -0.07499999906197717 0
0.030000000299973 -0.06499999919296492 0
0.03000000029998885 -0.05499999932395839 0
0.03000000030000471 -0.04499999945494908 0
0.03000000030002056 -0.03499999958596274 0
0.03000000030003642 -0.02499999971697399 0
0.03000000030005227 -0.01499999984798251 0
0.03000000030006813 -0.00499999997899417 0
0.04000000039991723 -0.08499999893098925 0
0.04000000039993874 -0.07499999906198657 0
0.04000000039996024 -0.06499999919297948 0
0.04000000039998175 -0.05499999932397812 0
0.04000000040000326 -0.04499999945497455 0
0.04000000040002477 -0.03499999958598246 0
0.04000000040004628 -0.02499999971698896 0
0.04000000040006778 -0.01499999984799228 0
0.04000000040008929 -0.004999999978998835 0
0.05000000049989443 -0.08499999893099326 0
0.05000000049992137 -0.07499999906199591 0
0.05000000049994829 -0.06499999919299405 0
0.05000000049997523 -0.05499999932399782 0
0.05000000050000215 -0.04499999945499999 0
0.05000000050002909 -0.03499999958600217 0
0.05000000050005602 -0.02499999971700394 0
0.05000000050008295 -0.01499999984800205 0
0.05000000050010987 -0.004999999979003498 0
0.06000000059991432 -0.08499999893099724 0
0.06000000059993601 -0.07499999906200529 0
0.06000000059995769 -0.0649999991930086 0
0.06000000059997937 -0.05499999932401754 0
0.06000000060000105 -0.04499999945502545 0
0.06000000060002272 -0.03499999958602188 0
0.06000000060004441 -0.02499999971701892 0
0.06000000060006608 -0.01499999984801182 0
0.06000000060008777 -0.004999999979008159 0
0.07000000069993466 -0.08499999893100126 0
0.0700000006999507 -0.07499999906201464 0
0.07000000069996674 -0.06499999919302317 0
0.07000000069998279 -0.05499999932403724 0
0.07000000069999886 -0.0449999994550509 0
0.07000000070001493 -0.03499999958604161 0
0.07000000070003097 -0.02499999971703388 0
0.07000000070004701 -0.0149999998480216 0
0.07000000070006306 -0.004999999979012823 0
0.08000000079995816 -0.08499999893100524 0
0.08000000079996875 -0.07499999906202401 0
0.08000000079997936 -0.06499999919303774 0
0.08000000079998999 -0.05499999932405696 0
0.08000000080000058 -0.04499999945507636 0
0.0800000008000112 -0.03499999958606133 0
0.08000000080002183 -0.02499999971704886 0
0.08000000080003243 -0.01499999984803136 0
0.08000000080004303 -0.004999999979017487 0
0.09000000089997623 -0.08499999893100924 0
0.09000000089998139 -0.07499999906203339 0
0.0900000008999866 -0.0649999991930523 0
0.09000000089999174 -0.05499999932407668 0
0.09000000089999691 -0.04499999945510182 0
0.09000000090000207 -0.03499999958608103 0
0.09000000090000723 -0.02499999971706384 0
0.09000000090001242 -0.01499999984804113 0
0.09000000090001758 -0.004999999979022145 0
$EndNodes
$Elements
9 244 1 244
0 1 15 1
1 1 
0 2 15 1
2 2 
0 3 15 1
3 3 
0 4 15 1
4 4 
1 1 1 10
5 1 5 
6 5 6 
7 6 7 
8 7 8 
9 8 9 
10 9 10 
11 10 11 
12 11 12 
13 12 13 
14 13 2 
1 2 1 10
15 2 14 
16 14 15 
17 15 16 
18 16 17 
19 17 18 
20 18 19 
21 19 20 
22 20 21 
23 21 22 
24 22 3 
1 3 1 10
25 3 23 
26 23 24 
27 24 25 
28 25 26 
29 26 27 
30 27 28 
31 28 29 
32 29 30 
33 30 31 
34 31 4 
1 4 1 10
35 4 32 
36 32 33 
37 33 34 
38 34 35 
39 35 36 
40 36 37 
41 37 38 
42 38 39 
43 39 40 
44 40 1 
2 1 2 200
45 1 5 40 
46 40 5 41 
47 40 41 39 
48 39 41 42 
49 39 42 38 
50 38 42 43 
51 38 43 37 
52 37 43 44 
53 37 44 36 
54 36 44 45 
55 36 45 35 
56 35 45 46 
57 35 46 34 
58 34 46 47 
59 34 47 33 
60 33 47 48 
61 33 48 32 
62 32 48 49 
63 32 49 4 
64 4 49 31 
65 5 6 41 
66 41 6 50 
67 41 50 42 
68 42 50 51 
69 42 51 43 
70 43 51 52 
71 43 52 44 
72 44 52 53 
73 44 53 45 
74 45 53 54 
75 45 54 46 
76 46 54 55 
77 46 55 47 
78 47 55 56 
79 47 56 48 
80 48 56 57 
81 48 57 49 
82 49 57 58 
83 49 58 31 
84 31 58 30 
85 6 7 50 
86 50 7 59 
87 50 59 51 
88 51 59 60 
89 51 60 52 
90 52 60 61 
91 52 61 53 
92 53 61 62 
93 53 62 54 
94 54 62 63 
95 54 63 55 
96 55 63 64 
97 55 64 56 
98 56 64 65 
99 56 65 57 
100 57 65 66 
101 57 66 58 
102 58 66 67 
103 58 67 30 
104 30 67 29 
105 7 8 59 
106 59 8 68 
107 59 68 60 
108 60 68 69 
109 60 69 61 
110 61 69 70 
111 61 70 62 
112 62 70 71 
113 62 71 63 
114 63 71 72 
115 63 72 64 
116 64 72 73 
117 64 73 65 
118 65 73 74 
119 65 74 66 
120 66 74 75 
121 66 75 67 
122 67 75 76 
123 67 76 29 
124 29 76 28 
125 8 9 68 
126 68 9 77 
127 68 77 69 
128 69 77 78 
129 69 78 70 
130 70 78 79 
131 70 79 71 
132 71 79 80 
133 71 80 72 
134 72 80 81 
135 72 81 73 
136 73 81 82 
137 73 82 74 
138 74 82 83 
139 74 83 75 
140 75 83 84 
141 75 84 76 
142 76 84 85 
143 76 85 28 
144 28 85 27 
145 9 10 77 
146 77 10 86 
147 77 86 78 
148 78 86 87 
149 78 87 79 
150 79 87 88 
151 79 88 80 
152 80 88 89 
153 80 89 81 
154 81 89 90 
155 81 90 82 
156 82 90 91 
157 82 91 83 
158 83 91 92 
159 83 92 84 
160 84 92 93 
161 84 93 85 
162 85 93 94 
163 85 94 27 
164 27 94 26 
165 10 11 86 
166 86 11 95 
167 86 95 87 
168 87 95 96 
169 87 96 88 
170 88 96 97 
171 88 97 89 
172 89 97 98 
173 89 98 90 
174 90 98 99 
175 90 99 91 
176 91 99 100 
177 91 100 92 
178 92 100 101 
179 92 101 93 
180 93 101 102 
181 93 102 94 
182 94 102 103 
183 94 103 26 
184 26 103 25 
185 11 12 95 
186 95 12 104 
187 95 104 96 
188 96 104 105 
189 96 105 97 
190 97 105 106 
191 97 106 98 
192 98 106 107 
193 98 107 99 
194 99 107 108 
195 99 108 100 
196 100 108 109 
197 100 109 101 
198 101 109 110 
199 101 110 102 
200 102 110 111 
201 102 111 103 
202 103 111 112 
203 103 112 25 
204 25 112 24 
205 12 13 104 
206 104 13 113 
207 104 113 105 
208 105 113 114 
209 105 114 106 
210 106 114 115 
211 106 115 107 
212 107 115 116 
213 107 116 108 
214 108 116 117 
215 108 117 109 
216 109 117 118 
217 109 118 110 
218 110 118 119 
219 110 119 111 
220 111 119 120 
221 111 120 112 
222 112 120 121 
223 112 121 24 
224 24 121 23 
225 13 2 113 
226 113 2 14 
227 113 14 114 
228 114 14 15 
229 114 15 115 
230 115 15 16 
231 115 16 116 
232 116 16 17 
233 116 17 117 
234 117 17 18 
235 117 18 118 
236 118 18 19 
237 118 19 119 
238 119 19 20 
239 119 20 120 
240 120 20 21 
241 120 21 121 
242 121 21 22 
243 121 22 23 
244 23 22 3 
$EndElements
