$MeshFormat
4.1 0 8
$EndMeshFormat
$Entities
4 4 1 0
1 0 -0.0949999988 0 0 
2 0.100000001 -0.0949999988 0 0 
3 0.100000001 0.00499999989 0 0 
4 0 0.00499999989 0 0 
1 0 -0.0949999988 0 0.100000001 -0.0949999988 0 0 2 1 -2 
2 0.100000001 -0.0949999988 0 0.100000001 0.004999999889999995 0 0 2 2 -3 
3 0 0.00499999989 0 0.100000001 0.00499999989 0 0 2 3 -4 
4 0 -0.0949999988 0 0 0.004999999890000002 0 0 2 4 -1 
1 0 -0.0949999988 0 0.100000001 0.004999999890000002 0 0 4 1 2 3 4 
$EndEntities
$Nodes
9 121 1 121
0 1 0 1
1
0 -0.0949999988 0
0 2 0 1
2
0.100000001 -0.0949999988 0
0 3 0 1
3
0.100000001 0.00499999989 0
0 4 0 1
4
0 0.00499999989 0
1 1 0 9
5
6
7
8
9
10
11
12
13
0.01000000009998107 -0.0949999988 0
0.02000000019995474 -0.0949999988 0
0.03000000029992543 -0.0949999988 0
0.04000000039989572 -0.0949999988 0
0.05000000049986751 -0.0949999988 0
0.06000000059989264 -0.0949999988 0
0.0700000006999186 -0.0949999988 0
0.08000000079994754 -0.0949999988 0
0.09000000089997107 -0.0949999988 0
1 2 0 9
14
15
16
17
18
19
20
21
22
0.100000001 -0.08499999893101325 0
0.100000001 -0.07499999906204276 0
0.100000001 -0.06499999919306686 0
0.100000001 -0.0549999993240964 0
0.100000001 -0.04499999945512728 0
0.100000001 -0.03499999958610075 0
0.100000001 -0.02499999971707881 0
0.100000001 -0.01499999984805091 0
0.100000001 -0.004999999979026809 0
1 3 0 9
23
24
25
26
27
28
29
30
31
0.09000000090002276 0.00499999989 0
0.08000000080005365 0.00499999989 0
0.07000000070007911 0.00499999989 0
0.06000000060010945 0.00499999989 0
0.0500000005001368 0.00499999989 0
0.04000000040011079 0.00499999989 0
0.03000000030008398 0.00499999989 0
0.02000000020005417 0.00499999989 0
0.0100000001000298 0.00499999989 0
1 4 0 9
32
33
34
35
36
37
38
39
40
0 -0.004999999978980182 0
0 -0.01499999984795319 0
0 -0.02499999971692908 0
0 -0.0349999995859036 0
0 -0.04499999945487272 0
0 -0.05499999932389925 0
0 -0.0649999991929212 0
0 -0.0749999990619491 0
0 -0.08499999893097319 0
2 1 0 81
41
42
43
44
45
46
47
48
49
50
51
52
53
54
55
56
57
58
59
60
61
62
63
64
65
66
67
68
69
70
71
72
73
74
75
76
77
78
79
80
81
82
83
84
85
86
87
88
89
90
91
92
93
94
95
96
97
98
99
100
101
102
103
104
105
106
107
108
109
110
111
112
113
114
115
116
117
118
119
120
121
0.01000000009998594 -0.08499999893097719 0
0.01000000009999081 -0.07499999906195844 0
0.01000000009999568 -0.06499999919293577 0
0.01000000010000056 -0.05499999932391896 0
0.01000000010000543 -0.04499999945489817 0
0.01000000010001031 -0.03499999958592332 0
0.01000000010001518 -0.02499999971694405 0
0.01000000010002005 -0.01499999984796296 0
0.01000000010002492 -0.004999999978984845 0
0.02000000019996469 -0.08499999893098122 0
0.02000000019997463 -0.07499999906196782 0
0.02000000019998457 -0.06499999919295034 0
0.02000000019999452 -0.05499999932393869 0
0.02000000020000445 -0.04499999945492362 0
0.0200000002000144 -0.03499999958594303 0
0.02000000020002434 -0.02499999971695902 0
0.02000000020003428 -0.01499999984797273 0
0.02000000020004423 -0.00499999997898951 0
0.03000000029994129 -0.08499999893098521 0
0.03000000029995714 -0.07499999906197717 0
0.030000000299973 -0.06499999919296492 0
0.03000000029998885 -0.05499999932395839 0
0.03000000030000471 -0.04499999945494908 0
0.03000000030002056 -0.03499999958596274 0
0.03000000030003642 -0.02499999971697399 0
0.03000000030005227 -0.01499999984798251 0
0.03000000030006813 -0.00499999997899417 0
0.04000000039991723 -0.08499999893098925 0
0.04000000039993874 -0.07499999906198657 0
0.04000000039996024 -0.06499999919297948 0
0.04000000039998175 -0.05499999932397812 0
0.04000000040000326 -0.04499999945497455 0
0.04000000040002477 -0.03499999958598246 0
0.04000000040004628 -0.02499999971698896 0
0.04000000040006778 -0.01499999984799228 0
0.04000000040008929 -0.004999999978998835 0
0.05000000049989443 -0.08499999893099326 0
0.05000000049992137 -0.07499999906199591 0
0.05000000049994829 -0.06499999919299405 0
0.05000000049997523 -0.05499999932399782 0
0.05000000050000215 -0.04499999945499999 0
0.05000000050002909 -0.03499999958600217 0
0.05000000050005602 -0.02499999971700394 0
0.05000000050008295 -0.01499999984800205 0
0.05000000050010987 -0.004999999979003498 0
0.06000000059991432 -0.08499999893099724 0
0.06000000059993601 -0.07499999906200529 0
0.06000000059995769 -0.0649999991930086 0
0.06000000059997937 -0.05499999932401754 0
0.06000000060000105 -0.04499999945502545 0
0.06000000060002272 -0.03499999958602188 0
0.06000000060004441 -0.02499999971701892 0
0.06000000060006608 -0.01499999984801182 0
0.06000000060008777 -0.004999999979008159 0
0.07000000069993466 -0.08499999893100126 0
0.0700000006999507 -0.07499999906201464 0
0.07000000069996674 -0.06499999919302317 0
0.07000000069998279 -0.05499999932403724 0
0.07000000069999886 -0.0449999994550509 0
0.07000000070001493 -0.03499999958604161 0
0.07000000070003097 -0.02499999971703388 0
0.07000000070004701 -0.0149999998480216 0
0.07000000070006306 -0.004999999979012823 0
0.08000000079995816 -0.08499999893100524 0
0.08000000079996875 -0.07499999906202401 0
0.08000000079997936 -0.06499999919303774 0
0.08000000079998999 -0.05499999932405696 0
0.08000000080000058 -0.04499999945507636 0
0.0800000008000112 -0.03499999958606133 0
0.08000000080002183 -0.02499999971704886 0
0.08000000080003243 -0.01499999984803136 0
0.08000000080004303 -0.004999999979017487 0
0.09000000089997623 -0.08499999893100924 0
0.09000000089998139 -0.07499999906203339 0
0.0900000008999866 -0.0649999991930523 0
0.09000000089999174 -0.05499999932407668 0
0.09000000089999691 -0.04499999945510182 0
0.09000000090000207 -0.03499999958608103 0
0.09000000090000723 -0.02499999971706384 0
0.09000000090001242 -0.01499999984804113 0
0.09000000090001758 -0.004999999979022145 0
$EndNodes
$Elements
9 144 1 144
0 1 15 1
1 1 
0 2 15 1
2 2 
0 3 15 1
3 3 
0 4 15 1
4 4 
1 1 1 10
5 1 5 
6 5 6 
7 6 7 
8 7 8 
9 8 9 
10 9 10 
11 10 11 
12 11 12 
13 12 13 
14 13 2 
1 2 1 10
15 2 14 
16 14 15 
17 15 16 
18 16 17 
19 17 18 
20 18 19 
21 19 20 
22 20 21 
23 21 22 
24 22 3 
1 3 1 10
25 3 23 
26 23 24 
27 24 25 
28 25 26 
29 26 27 
30 27 28 
31 28 29 
32 29 30 
33 30 31 
34 31 4 
1 4 1 10
35 4 32 
36 32 33 
37 33 34 
38 34 35 
39 35 36 
40 36 37 
41 37 38 
42 38 39 
43 39 40 
44 40 1 
2 1 3 100
45 1 5 41 40 
46 40 41 42 39 
47 39 42 43 38 
48 38 43 44 37 
49 37 44 45 36 
50 36 45 46 35 
51 35 46 47 34 
52 34 47 48 33 
53 33 48 49 32 
54 32 49 31 4 
55 5 6 50 41 
56 41 50 51 42 
57 42 51 52 43 
58 43 52 53 44 
59 44 53 54 45 
60 45 54 55 46 
61 46 55 56 47 
62 47 56 57 48 
63 48 57 58 49 
64 49 58 30 31 
65 6 7 59 50 
66 50 59 60 51 
67 51 60 61 52 
68 52 61 62 53 
69 53 62 63 54 
70 54 63 64 55 
71 55 64 65 56 
72 56 65 66 57 
73 57 66 67 58 
74 58 67 29 30 
75 7 8 68 59 
76 59 68 69 60 
77 60 69 70 61 
78 61 70 71 62 
79 62 71 72 63 
80 63 72 73 64 
81 64 73 74 65 
82 65 74 75 66 
83 66 75 76 67 
84 67 76 28 29 
85 8 9 77 68 
86 68 77 78 69 
87 69 78 79 70 
88 70 79 80 71 
89 71 80 81 72 
90 72 81 82 73 
91 73 82 83 74 
92 74 83 84 75 
93 75 84 85 76 
94 76 85 27 28 
95 9 10 86 77 
96 77 86 87 78 
97 78 87 88 79 
98 79 88 89 80 
99 80 89 90 81 
100 81 90 91 82 
101 82 91 92 83 
102 83 92 93 84 
103 84 93 94 85 
104 85 94 26 27 
105 10 11 95 86 
106 86 95 96 87 
107 87 96 97 88 
108 88 97 98 89 
109 89 98 99 90 
110 90 99 100 91 
111 91 100 101 92 
112 92 101 102 93 
113 93 102 103 94 
114 94 103 25 26 
115 11 12 104 95 
116 95 104 105 96 
117 96 105 106 97 
118 97 106 107 98 
119 98 107 108 99 
120 99 108 109 100 
121 100 109 110 101 
122 101 110 111 102 
123 102 111 112 103 
124 103 112 24 25 
125 12 13 113 104 
126 104 113 114 105 
127 105 114 115 106 
128 106 115 116 107 
129 107 116 117 108 
130 108 117 118 109 
131 109 118 119 110 
132 110 119 120 111 
133 111 120 121 112 
134 112 121 23 24 
135 13 2 14 113 
136 113 14 15 114 
137 114 15 16 115 
138 115 16 17 116 
139 116 17 18 117 
140 117 18 19 118 
141 118 19 20 119 
142 119 20 21 120 
143 120 21 22 121 
144 121 22 3 23 
$EndElements
