$MeshFormat
4.1 0 8
$EndMeshFormat
$Entities
4 4 1 0
1 0 -0.0949999988 0 0 
2 0.100000001 -0.0949999988 0 0 
3 0.100000001 0.00499999989 0 0 
4 0 0.00499999989 0 0 
1 0 -0.0949999988 0 0.100000001 -0.0949999988 0 0 2 1 -2 
2 0.100000001 -0.0949999988 0 0.100000001 0.004999999889999995 0 0 2 2 -3 
3 0 0.00499999989 0 0.100000001 0.00499999989 0 0 2 3 -4 
4 0 -0.0949999988 0 0 0.004999999890000002 0 0 2 4 -1 
1 0 -0.0949999988 0 0.100000001 0.004999999890000002 0 0 4 1 2 3 4 
$EndEntities
$Nodes
9 441 1 441
0 1 0 1
1
0 -0.0949999988 0
0 2 0 1
2
0.100000001 -0.0949999988 0
0 3 0 1
3
0.100000001 0.00499999989 0
0 4 0 1
4
0 0.00499999989 0
1 1 0 19
5
6
7
8
9
10
11
12
13
14
15
16
17
18
19
20
21
22
23
0.005000000049990032 -0.0949999988 0
0.01000000009998107 -0.0949999988 0
0.0150000001499698 -0.0949999988 0
0.02000000019995474 -0.0949999988 0
0.02500000024994009 -0.0949999988 0
0.03000000029992543 -0.0949999988 0
0.03500000034991051 -0.0949999988 0
0.04000000039989572 -0.0949999988 0
0.04500000044988094 -0.0949999988 0
0.05000000049986751 -0.0949999988 0
0.05500000054988008 -0.0949999988 0
0.06000000059989264 -0.0949999988 0
0.06500000064990413 -0.0949999988 0
0.0700000006999186 -0.0949999988 0
0.07500000074993309 -0.0949999988 0
0.08000000079994754 -0.0949999988 0
0.08500000084996201 -0.0949999988 0
0.09000000089997107 -0.0949999988 0
0.09500000094998554 -0.0949999988 0
1 2 0 19
24
25
26
27
28
29
30
31
32
33
34
35
36
37
38
39
40
41
42
0.100000001 -0.08999999886550662 0
0.100000001 -0.08499999893101325 0
0.100000001 -0.07999999899652854 0
0.100000001 -0.07499999906204276 0
0.100000001 -0.06999999912755479 0
0.100000001 -0.06499999919306686 0
0.100000001 -0.05999999925858433 0
0.100000001 -0.0549999993240964 0
0.100000001 -0.04999999938960845 0
0.100000001 -0.04499999945512728 0
0.100000001 -0.03999999952061469 0
0.100000001 -0.03499999958610075 0
0.100000001 -0.02999999965159383 0
0.100000001 -0.02499999971707881 0
0.100000001 -0.01999999978256703 0
0.100000001 -0.01499999984805091 0
0.100000001 -0.00999999991353806 0
0.100000001 -0.004999999979026809 0
0.100000001 -4.451450319464811e-11 0
1 3 0 19
43
44
45
46
47
48
49
50
51
52
53
54
55
56
57
58
59
60
61
0.09500000095001165 0.00499999989 0
0.09000000090002276 0.00499999989 0
0.08500000085003549 0.00499999989 0
0.08000000080005365 0.00499999989 0
0.07500000075006638 0.00499999989 0
0.07000000070007911 0.00499999989 0
0.06500000065009509 0.00499999989 0
0.06000000060010945 0.00499999989 0
0.0550000005501238 0.00499999989 0
0.0500000005001368 0.00499999989 0
0.0450000004501238 0.00499999989 0
0.04000000040011079 0.00499999989 0
0.03500000035009887 0.00499999989 0
0.03000000030008398 0.00499999989 0
0.02500000025006908 0.00499999989 0
0.02000000020005417 0.00499999989 0
0.01500000015003927 0.00499999989 0
0.0100000001000298 0.00499999989 0
0.005000000050014899 0.00499999989 0
1 4 0 19
62
63
64
65
66
67
68
69
70
71
72
73
74
75
76
77
78
79
80
0 -4.448897326925216e-11 0
0 -0.004999999978980182 0
0 -0.009999999913468342 0
0 -0.01499999984795319 0
0 -0.01999999978244114 0
0 -0.02499999971692908 0
0 -0.02999999965141567 0
0 -0.0349999995859036 0
0 -0.03999999952039154 0
0 -0.04499999945487272 0
0 -0.04999999938938531 0
0 -0.05499999932389925 0
0 -0.05999999925840616 0
0 -0.0649999991929212 0
0 -0.06999999912743297 0
0 -0.0749999990619491 0
0 -0.07999999899646194 0
0 -0.08499999893097319 0
0 -0.0899999988654855 0
2 1 0 361
81
82
83
84
85
86
87
88
89
90
91
92
93
94
95
96
97
98
99
100
101
102
103
104
105
106
107
108
109
110
111
112
113
114
115
116
117
118
119
120
121
122
123
124
125
126
127
128
129
130
131
132
133
134
135
136
137
138
139
140
141
142
143
144
145
146
147
148
149
150
151
152
153
154
155
156
157
158
159
160
161
162
163
164
165
166
167
168
169
170
171
172
173
174
175
176
177
178
179
180
181
182
183
184
185
186
187
188
189
190
191
192
193
194
195
196
197
198
199
200
201
202
203
204
205
206
207
208
209
210
211
212
213
214
215
216
217
218
219
220
221
222
223
224
225
226
227
228
229
230
231
232
233
234
235
236
237
238
239
240
241
242
243
244
245
246
247
248
249
250
251
252
253
254
255
256
257
258
259
260
261
262
263
264
265
266
267
268
269
270
271
272
273
274
275
276
277
278
279
280
281
282
283
284
285
286
287
288
289
290
291
292
293
294
295
296
297
298
299
300
301
302
303
304
305
306
307
308
309
310
311
312
313
314
315
316
317
318
319
320
321
322
323
324
325
326
327
328
329
330
331
332
333
334
335
336
337
338
339
340
341
342
343
344
345
346
347
348
349
350
351
352
353
354
355
356
357
358
359
360
361
362
363
364
365
366
367
368
369
370
371
372
373
374
375
376
377
378
379
380
381
382
383
384
385
386
387
388
389
390
391
392
393
394
395
396
397
398
399
400
401
402
403
404
405
406
407
408
409
410
411
412
413
414
415
416
417
418
419
420
421
422
423
424
425
426
427
428
429
430
431
432
433
434
435
436
437
438
439
440
441
0.005000000049991275 -0.08999999886548654 0
0.005000000049992518 -0.08499999893097522 0
0.005000000049993761 -0.07999999899646529 0
0.005000000049995005 -0.07499999906195379 0
0.005000000049996249 -0.06999999912743908 0
0.005000000049997492 -0.06499999919292848 0
0.005000000049998735 -0.05999999925841507 0
0.005000000049999979 -0.05499999932390909 0
0.005000000050001223 -0.04999999938939646 0
0.005000000050002465 -0.04499999945488544 0
0.005000000050003709 -0.03999999952040269 0
0.005000000050004953 -0.03499999958591345 0
0.005000000050006196 -0.02999999965142458 0
0.00500000005000744 -0.02499999971693656 0
0.005000000050008682 -0.01999999978244744 0
0.005000000050009925 -0.01499999984795807 0
0.005000000050011169 -0.009999999913471832 0
0.005000000050012412 -0.004999999978982512 0
0.005000000050013657 -4.449025002573048e-11 0
0.0100000000999835 -0.08999999886548761 0
0.01000000009998594 -0.08499999893097719 0
0.01000000009998838 -0.0799999989964686 0
0.01000000009999081 -0.07499999906195844 0
0.01000000009999325 -0.06999999912744516 0
0.01000000009999569 -0.06499999919293577 0
0.01000000009999812 -0.05999999925842398 0
0.01000000010000056 -0.05499999932391896 0
0.010000000100003 -0.04999999938940761 0
0.01000000010000543 -0.04499999945489818 0
0.01000000010000787 -0.03999999952041386 0
0.01000000010001031 -0.03499999958592331 0
0.01000000010001274 -0.02999999965143349 0
0.01000000010001518 -0.02499999971694404 0
0.01000000010001761 -0.01999999978245373 0
0.01000000010002005 -0.01499999984796295 0
0.01000000010002249 -0.009999999913475312 0
0.01000000010002493 -0.004999999978984844 0
0.01000000010002736 -4.449152591484706e-11 0
0.01500000014997327 -0.08999999886548869 0
0.01500000014997675 -0.08499999893097922 0
0.01500000014998022 -0.07999999899647194 0
0.0150000001499837 -0.07499999906196314 0
0.01500000014998717 -0.06999999912745124 0
0.01500000014999064 -0.06499999919294307 0
0.01500000014999412 -0.05999999925843289 0
0.01500000014999759 -0.05499999932392882 0
0.01500000015000106 -0.04999999938941878 0
0.01500000015000454 -0.04499999945491091 0
0.01500000015000801 -0.03999999952042501 0
0.01500000015001149 -0.03499999958593317 0
0.01500000015001496 -0.0299999996514424 0
0.01500000015001843 -0.02499999971695153 0
0.01500000015002191 -0.01999999978246003 0
0.01500000015002538 -0.01499999984796784 0
0.01500000015002885 -0.009999999913478797 0
0.01500000015003232 -0.004999999978987178 0
0.0150000001500358 -4.449280267132538e-11 0
0.02000000019995971 -0.08999999886548973 0
0.02000000019996468 -0.08499999893098123 0
0.02000000019996965 -0.07999999899647528 0
0.02000000019997463 -0.07499999906196782 0
0.0200000001999796 -0.06999999912745734 0
0.02000000019998457 -0.06499999919295034 0
0.02000000019998954 -0.05999999925844179 0
0.02000000019999452 -0.05499999932393868 0
0.02000000019999948 -0.04999999938942994 0
0.02000000020000446 -0.04499999945492363 0
0.02000000020000943 -0.03999999952043617 0
0.02000000020001439 -0.03499999958594302 0
0.02000000020001937 -0.02999999965145131 0
0.02000000020002434 -0.02499999971695902 0
0.02000000020002931 -0.01999999978246631 0
0.02000000020003428 -0.01499999984797273 0
0.02000000020003926 -0.009999999913482289 0
0.02000000020004423 -0.004999999978989506 0
0.0200000002000492 -4.449407899412283e-11 0
0.02500000024994654 -0.08999999886549079 0
0.02500000024995298 -0.08499999893098321 0
0.02500000024995944 -0.0799999989964786 0
0.02500000024996589 -0.07499999906197249 0
0.02500000024997234 -0.06999999912746345 0
0.02500000024997878 -0.06499999919295764 0
0.02500000024998524 -0.0599999992584507 0
0.02500000024999169 -0.05499999932394853 0
0.02500000024999814 -0.04999999938944109 0
0.02500000025000459 -0.04499999945493637 0
0.02500000025001103 -0.03999999952044732 0
0.02500000025001749 -0.03499999958595289 0
0.02500000025002393 -0.02999999965146022 0
0.02500000025003039 -0.02499999971696651 0
0.02500000025003683 -0.01999999978247261 0
0.02500000025004329 -0.01499999984797762 0
0.02500000025004974 -0.009999999913485769 0
0.02500000025005618 -0.004999999978991839 0
0.02500000025006264 -4.449535618428202e-11 0
0.03000000029993336 -0.08999999886549184 0
0.03000000029994129 -0.08499999893098524 0
0.03000000029994921 -0.07999999899648191 0
0.03000000029995714 -0.0749999990619772 0
0.03000000029996507 -0.0699999991274695 0
0.030000000299973 -0.06499999919296491 0
0.03000000029998093 -0.05999999925845961 0
0.03000000029998885 -0.05499999932395838 0
0.03000000029999677 -0.04999999938945225 0
0.03000000030000471 -0.04499999945494908 0
0.03000000030001264 -0.03999999952045848 0
0.03000000030002056 -0.03499999958596275 0
0.03000000030002848 -0.02999999965146911 0
0.03000000030003641 -0.024999999716974 0
0.03000000030004435 -0.01999999978247891 0
0.03000000030005227 -0.01499999984798251 0
0.0300000003000602 -0.009999999913489259 0
0.03000000030006813 -0.00499999997899417 0
0.03000000030007606 -4.44966320733986e-11 0
0.03500000034991992 -0.0899999988654929 0
0.03500000034992934 -0.08499999893098723 0
0.03500000034993875 -0.07999999899648523 0
0.03500000034994818 -0.07499999906198188 0
0.03500000034995759 -0.06999999912747561 0
0.03500000034996702 -0.0649999991929722 0
0.03500000034997643 -0.05999999925846852 0
0.03500000034998585 -0.05499999932396823 0
0.03500000034999527 -0.0499999993894634 0
0.03500000035000468 -0.04499999945496182 0
0.0350000003500141 -0.03999999952046964 0
0.03500000035002353 -0.0349999995859726 0
0.03500000035003294 -0.02999999965147802 0
0.03500000035004236 -0.02499999971698148 0
0.03500000035005178 -0.01999999978248521 0
0.03500000035006119 -0.01499999984798739 0
0.03500000035007061 -0.009999999913492744 0
0.03500000035008004 -0.004999999978996502 0
0.03500000035008945 -4.449790969723866e-11 0
0.04000000039990648 -0.08999999886549394 0
0.04000000039991724 -0.08499999893098927 0
0.04000000039992799 -0.07999999899648856 0
0.04000000039993874 -0.07499999906198657 0
0.0400000003999495 -0.06999999912748171 0
0.04000000039996025 -0.06499999919297948 0
0.04000000039997099 -0.05999999925847742 0
0.04000000039998175 -0.05499999932397811 0
0.04000000039999251 -0.04999999938947457 0
0.04000000040000326 -0.04499999945497454 0
0.040000000400014 -0.0399999995204808 0
0.04000000040002477 -0.03499999958598246 0
0.04000000040003551 -0.02999999965148693 0
0.04000000040004627 -0.02499999971698897 0
0.04000000040005702 -0.01999999978249149 0
0.04000000040006777 -0.01499999984799227 0
0.04000000040007853 -0.009999999913496226 0
0.04000000040008928 -0.004999999978998833 0
0.04000000040010004 -4.449918602003611e-11 0
0.04500000044989307 -0.08999999886549499 0
0.04500000044990522 -0.08499999893099126 0
0.04500000044991735 -0.07999999899649192 0
0.0450000004499295 -0.07499999906199126 0
0.04500000044994165 -0.06999999912748781 0
0.04500000044995379 -0.06499999919298675 0
0.04500000044996592 -0.05999999925848633 0
0.04500000044997808 -0.05499999932398796 0
0.04500000044999023 -0.04999999938948572 0
0.04500000045000236 -0.04499999945498728 0
0.04500000045001451 -0.03999999952049196 0
0.04500000045002666 -0.0349999995859923 0
0.04500000045003878 -0.02999999965149584 0
0.04500000045005094 -0.02499999971699646 0
0.04500000045006309 -0.01999999978249779 0
0.04500000045007523 -0.01499999984799717 0
0.04500000045008735 -0.009999999913499716 0
0.04500000045009952 -0.004999999979001165 0
0.04500000045011165 -4.450046147547182e-11 0
0.05000000049988097 -0.08999999886549605 0
0.05000000049989443 -0.08499999893099326 0
0.0500000004999079 -0.07999999899649522 0
0.05000000049992138 -0.07499999906199591 0
0.05000000049993485 -0.06999999912749388 0
0.05000000049994831 -0.06499999919299405 0
0.05000000049996176 -0.05999999925849524 0
0.05000000049997522 -0.05499999932399782 0
0.05000000049998871 -0.04999999938949688 0
0.05000000050000217 -0.04499999945499999 0
0.05000000050001563 -0.03999999952050312 0
0.05000000050002908 -0.03499999958600217 0
0.05000000050004254 -0.02999999965150476 0
0.05000000050005603 -0.02499999971700394 0
0.0500000005000695 -0.01999999978250409 0
0.05000000050008296 -0.01499999984800205 0
0.0500000005000964 -0.009999999913503201 0
0.05000000050010989 -0.004999999979003496 0
0.05000000050012334 -4.450173823195014e-11 0
0.05500000054989226 -0.0899999988654971 0
0.05500000054990445 -0.08499999893099526 0
0.05500000054991663 -0.07999999899649855 0
0.05500000054992882 -0.07499999906200061 0
0.05500000054994102 -0.06999999912749999 0
0.0550000005499532 -0.06499999919300133 0
0.05500000054996539 -0.05999999925850415 0
0.05500000054997758 -0.05499999932400767 0
0.05500000054998976 -0.04999999938950804 0
0.05500000055000194 -0.04499999945501273 0
0.05500000055001412 -0.03999999952051427 0
0.05500000055002632 -0.03499999958601204 0
0.05500000055003851 -0.02999999965151367 0
0.05500000055005069 -0.02499999971701143 0
0.05500000055006287 -0.01999999978251038 0
0.05500000055007506 -0.01499999984800694 0
0.05500000055008725 -0.009999999913506682 0
0.05500000055009943 -0.004999999979005828 0
0.05500000055011162 -4.450301455474759e-11 0
0.06000000059990347 -0.08999999886549817 0
0.06000000059991431 -0.08499999893099723 0
0.06000000059992516 -0.0799999989965019 0
0.060000000599936 -0.07499999906200529 0
0.06000000059994685 -0.06999999912750608 0
0.06000000059995768 -0.0649999991930086 0
0.06000000059996853 -0.05999999925851306 0
0.06000000059997936 -0.05499999932401752 0
0.06000000059999021 -0.04999999938951919 0
0.06000000060000104 -0.04499999945502545 0
0.06000000060001189 -0.03999999952052543 0
0.06000000060002271 -0.03499999958602189 0
0.06000000060003356 -0.02999999965152256 0
0.06000000060004439 -0.02499999971701892 0
0.06000000060005524 -0.01999999978251667 0
0.06000000060006609 -0.01499999984801182 0
0.06000000060007692 -0.009999999913510174 0
0.06000000060008777 -0.00499999997900816 0
0.06000000060009859 -4.450429044386417e-11 0
0.06500000064991368 -0.08999999886549923 0
0.06500000064992324 -0.08499999893099926 0
0.06500000064993279 -0.07999999899650523 0
0.06500000064994232 -0.07499999906200996 0
0.06500000064995187 -0.06999999912751216 0
0.06500000064996143 -0.06499999919301587 0
0.06500000064997097 -0.05999999925852197 0
0.06500000064998052 -0.05499999932402739 0
0.06500000064999006 -0.04999999938953036 0
0.06500000064999961 -0.04499999945503818 0
0.06500000065000916 -0.03999999952053659 0
0.06500000065001871 -0.03499999958603174 0
0.06500000065002827 -0.02999999965153147 0
0.0650000006500378 -0.0249999997170264 0
0.06500000065004735 -0.01999999978252297 0
0.06500000065005691 -0.01499999984801671 0
0.06500000065006645 -0.009999999913513658 0
0.065000000650076 -0.00499999997901049 0
0.06500000065008554 -4.450556720034249e-11 0
0.07000000069992662 -0.08999999886550028 0
0.07000000069993467 -0.08499999893100126 0
0.07000000069994269 -0.07999999899650853 0
0.07000000069995072 -0.07499999906201464 0
0.07000000069995872 -0.06999999912751824 0
0.07000000069996673 -0.06499999919302317 0
0.07000000069997478 -0.05999999925853088 0
0.0700000006999828 -0.05499999932403724 0
0.07000000069999082 -0.04999999938954151 0
0.07000000069999884 -0.04499999945505091 0
0.07000000070000689 -0.03999999952054775 0
0.07000000070001491 -0.03499999958604161 0
0.07000000070002294 -0.02999999965154037 0
0.07000000070003096 -0.02499999971703389 0
0.07000000070003898 -0.01999999978252927 0
0.07000000070004703 -0.01499999984802159 0
0.07000000070005502 -0.009999999913517146 0
0.07000000070006307 -0.004999999979012824 0
0.07000000070007106 -4.450684373998037e-11 0
0.07500000074993977 -0.08999999886550133 0
0.07500000074994642 -0.08499999893100325 0
0.07500000074995307 -0.07999999899651186 0
0.07500000074995973 -0.07499999906201933 0
0.07500000074996641 -0.06999999912752435 0
0.07500000074997305 -0.06499999919303047 0
0.07500000074997973 -0.05999999925853979 0
0.07500000074998642 -0.05499999932404711 0
0.07500000074999306 -0.04999999938955267 0
0.07500000074999974 -0.04499999945506363 0
0.07500000075000639 -0.03999999952055891 0
0.07500000075001308 -0.03499999958605146 0
0.07500000075001974 -0.02999999965154929 0
0.0750000007500264 -0.02499999971704138 0
0.07500000075003307 -0.01999999978253555 0
0.07500000075003972 -0.01499999984802648 0
0.07500000075004638 -0.009999999913520631 0
0.07500000075005304 -0.004999999979015153 0
0.07500000075005971 -4.450812027961826e-11 0
0.08000000079995284 -0.0899999988655024 0
0.08000000079995816 -0.08499999893100524 0
0.08000000079996343 -0.07999999899651522 0
0.08000000079996876 -0.07499999906202401 0
0.08000000079997406 -0.06999999912753045 0
0.08000000079997936 -0.06499999919303774 0
0.08000000079998468 -0.0599999992585487 0
0.08000000079998998 -0.05499999932405696 0
0.08000000079999529 -0.04999999938956382 0
0.08000000080000061 -0.04499999945507639 0
0.0800000008000059 -0.03999999952057005 0
0.0800000008000112 -0.03499999958606131 0
0.08000000080001649 -0.02999999965155819 0
0.08000000080002181 -0.02499999971704886 0
0.08000000080002712 -0.01999999978254186 0
0.08000000080003243 -0.01499999984803136 0
0.08000000080003776 -0.009999999913524115 0
0.08000000080004302 -0.004999999979017485 0
0.08000000080004833 -4.450939790345831e-11 0
0.08500000084996566 -0.08999999886550344 0
0.08500000084996935 -0.08499999893100725 0
0.08500000084997303 -0.07999999899651854 0
0.08500000084997671 -0.07499999906202869 0
0.0850000008499804 -0.0699999991275365 0
0.08500000084998408 -0.06499999919304503 0
0.08500000084998771 -0.05999999925855761 0
0.0850000008499914 -0.05499999932406682 0
0.08500000084999509 -0.04999999938957499 0
0.08500000084999873 -0.0449999994550891 0
0.08500000085000242 -0.03999999952058122 0
0.08500000085000611 -0.03499999958607117 0
0.08500000085000976 -0.02999999965156711 0
0.08500000085001343 -0.02499999971705634 0
0.08500000085001712 -0.01999999978254814 0
0.0850000008500208 -0.01499999984803625 0
0.08500000085002446 -0.009999999913527605 0
0.08500000085002812 -0.004999999979019816 0
0.08500000085003183 -4.451067335889403e-11 0
0.09000000089997365 -0.0899999988655045 0
0.09000000089997623 -0.08499999893100924 0
0.09000000089997881 -0.07999999899652187 0
0.09000000089998139 -0.07499999906203339 0
0.09000000089998399 -0.06999999912754262 0
0.0900000008999866 -0.0649999991930523 0
0.09000000089998916 -0.05999999925856652 0
0.09000000089999174 -0.05499999932407667 0
0.09000000089999435 -0.04999999938958615 0
0.09000000089999691 -0.04499999945510183 0
0.09000000089999952 -0.03999999952059238 0
0.0900000009000021 -0.03499999958608103 0
0.09000000090000468 -0.02999999965157601 0
0.09000000090000723 -0.02499999971706384 0
0.09000000090000984 -0.01999999978255444 0
0.09000000090001242 -0.01499999984804114 0
0.090000000900015 -0.00999999991353109 0
0.09000000090001761 -0.004999999979022146 0
0.09000000090002015 -4.451195054905321e-11 0
0.09500000094998683 -0.08999999886550554 0
0.09500000094998813 -0.08499999893101123 0
0.09500000094998948 -0.07999999899652518 0
0.09500000094999074 -0.07499999906203808 0
0.09500000094999207 -0.06999999912754871 0
0.09500000094999339 -0.06499999919305958 0
0.0950000009499947 -0.05999999925857543 0
0.09500000094999597 -0.05499999932408652 0
0.09500000094999729 -0.0499999993895973 0
0.09500000094999861 -0.04499999945511454 0
0.0950000009499999 -0.03999999952060353 0
0.09500000095000123 -0.03499999958609089 0
0.09500000095000252 -0.02999999965158492 0
0.09500000095000381 -0.02499999971707132 0
0.09500000095000512 -0.01999999978256074 0
0.09500000095000644 -0.01499999984804603 0
0.09500000095000773 -0.009999999913534573 0
0.09500000095000906 -0.004999999979024477 0
0.09500000095001034 -4.451322616711925e-11 0
$EndNodes
$Elements
9 484 1 484
0 1 15 1
1 1 
0 2 15 1
2 2 
0 3 15 1
3 3 
0 4 15 1
4 4 
1 1 1 20
5 1 5 
6 5 6 
7 6 7 
8 7 8 
9 8 9 
10 9 10 
11 10 11 
12 11 12 
13 12 13 
14 13 14 
15 14 15 
16 15 16 
17 16 17 
18 17 18 
19 18 19 
20 19 20 
21 20 21 
22 21 22 
23 22 23 
24 23 2 
1 2 1 20
25 2 24 
26 24 25 
27 25 26 
28 26 27 
29 27 28 
30 28 29 
31 29 30 
32 30 31 
33 31 32 
34 32 33 
35 33 34 
36 34 35 
37 35 36 
38 36 37 
39 37 38 
40 38 39 
41 39 40 
42 40 41 
43 41 42 
44 42 3 
1 3 1 20
45 3 43 
46 43 44 
47 44 45 
48 45 46 
49 46 47 
50 47 48 
51 48 49 
52 49 50 
53 50 51 
54 51 52 
55 52 53 
56 53 54 
57 54 55 
58 55 56 
59 56 57 
60 57 58 
61 58 59 
62 59 60 
63 60 61 
64 61 4 
1 4 1 20
65 4 62 
66 62 63 
67 63 64 
68 64 65 
69 65 66 
70 66 67 
71 67 68 
72 68 69 
73 69 70 
74 70 71 
75 71 72 
76 72 73 
77 73 74 
78 74 75 
79 75 76 
80 76 77 
81 77 78 
82 78 79 
83 79 80 
84 80 1 
2 1 3 400
85 1 5 81 80 
86 80 81 82 79 
87 79 82 83 78 
88 78 83 84 77 
89 77 84 85 76 
90 76 85 86 75 
91 75 86 87 74 
92 74 87 88 73 
93 73 88 89 72 
94 72 89 90 71 
95 71 90 91 70 
96 70 91 92 69 
97 69 92 93 68 
98 68 93 94 67 
99 67 94 95 66 
100 66 95 96 65 
101 65 96 97 64 
102 64 97 98 63 
103 63 98 99 62 
104 62 99 61 4 
105 5 6 100 81 
106 81 100 101 82 
107 82 101 102 83 
108 83 102 103 84 
109 84 103 104 85 
110 85 104 105 86 
111 86 105 106 87 
112 87 106 107 88 
113 88 107 108 89 
114 89 108 109 90 
115 90 109 110 91 
116 91 110 111 92 
117 92 111 112 93 
118 93 112 113 94 
119 94 113 114 95 
120 95 114 115 96 
121 96 115 116 97 
122 97 116 117 98 
123 98 117 118 99 
124 99 118 60 61 
125 6 7 119 100 
126 100 119 120 101 
127 101 120 121 102 
128 102 121 122 103 
129 103 122 123 104 
130 104 123 124 105 
131 105 124 125 106 
132 106 125 126 107 
133 107 126 127 108 
134 108 127 128 109 
135 109 128 129 110 
136 110 129 130 111 
137 111 130 131 112 
138 112 131 132 113 
139 113 132 133 114 
140 114 133 134 115 
141 115 134 135 116 
142 116 135 136 117 
143 117 136 137 118 
144 118 137 59 60 
145 7 8 138 119 
146 119 138 139 120 
147 120 139 140 121 
148 121 140 141 122 
149 122 141 142 123 
150 123 142 143 124 
151 124 143 144 125 
152 125 144 145 126 
153 126 145 146 127 
154 127 146 147 128 
155 128 147 148 129 
156 129 148 149 130 
157 130 149 150 131 
158 131 150 151 132 
159 132 151 152 133 
160 133 152 153 134 
161 134 153 154 135 
162 135 154 155 136 
163 136 155 156 137 
164 137 156 58 59 
165 8 9 157 138 
166 138 157 158 139 
167 139 158 159 140 
168 140 159 160 141 
169 141 160 161 142 
170 142 161 162 143 
171 143 162 163 144 
172 144 163 164 145 
173 145 164 165 146 
174 146 165 166 147 
175 147 166 167 148 
176 148 167 168 149 
177 149 168 169 150 
178 150 169 170 151 
179 151 170 171 152 
180 152 171 172 153 
181 153 172 173 154 
182 154 173 174 155 
183 155 174 175 156 
184 156 175 57 58 
185 9 10 176 157 
186 157 176 177 158 
187 158 177 178 159 
188 159 178 179 160 
189 160 179 180 161 
190 161 180 181 162 
191 162 181 182 163 
192 163 182 183 164 
193 164 183 184 165 
194 165 184 185 166 
195 166 185 186 167 
196 167 186 187 168 
197 168 187 188 169 
198 169 188 189 170 
199 170 189 190 171 
200 171 190 191 172 
201 172 191 192 173 
202 173 192 193 174 
203 174 193 194 175 
204 175 194 56 57 
205 10 11 195 176 
206 176 195 196 177 
207 177 196 197 178 
208 178 197 198 179 
209 179 198 199 180 
210 180 199 200 181 
211 181 200 201 182 
212 182 201 202 183 
213 183 202 203 184 
214 184 203 204 185 
215 185 204 205 186 
216 186 205 206 187 
217 187 206 207 188 
218 188 207 208 189 
219 189 208 209 190 
220 190 209 210 191 
221 191 210 211 192 
222 192 211 212 193 
223 193 212 213 194 
224 194 213 55 56 
225 11 12 214 195 
226 195 214 215 196 
227 196 215 216 197 
228 197 216 217 198 
229 198 217 218 199 
230 199 218 219 200 
231 200 219 220 201 
232 201 220 221 202 
233 202 221 222 203 
234 203 222 223 204 
235 204 223 224 205 
236 205 224 225 206 
237 206 225 226 207 
238 207 226 227 208 
239 208 227 228 209 
240 209 228 229 210 
241 210 229 230 211 
242 211 230 231 212 
243 212 231 232 213 
244 213 232 54 55 
245 12 13 233 214 
246 214 233 234 215 
247 215 234 235 216 
248 216 235 236 217 
249 217 236 237 218 
250 218 237 238 219 
251 219 238 239 220 
252 220 239 240 221 
253 221 240 241 222 
254 222 241 242 223 
255 223 242 243 224 
256 224 243 244 225 
257 225 244 245 226 
258 226 245 246 227 
259 227 246 247 228 
260 228 247 248 229 
261 229 248 249 230 
262 230 249 250 231 
263 231 250 251 232 
264 232 251 53 54 
265 13 14 252 233 
266 233 252 253 234 
267 234 253 254 235 
268 235 254 255 236 
269 236 255 256 237 
270 237 256 257 238 
271 238 257 258 239 
272 239 258 259 240 
273 240 259 260 241 
274 241 260 261 242 
275 242 261 262 243 
276 243 262 263 244 
277 244 263 264 245 
278 245 264 265 246 
279 246 265 266 247 
280 247 266 267 248 
281 248 267 268 249 
282 249 268 269 250 
283 250 269 270 251 
284 251 270 52 53 
285 14 15 271 252 
286 252 271 272 253 
287 253 272 273 254 
288 254 273 274 255 
289 255 274 275 256 
290 256 275 276 257 
291 257 276 277 258 
292 258 277 278 259 
293 259 278 279 260 
294 260 279 280 261 
295 261 280 281 262 
296 262 281 282 263 
297 263 282 283 264 
298 264 283 284 265 
299 265 284 285 266 
300 266 285 286 267 
301 267 286 287 268 
302 268 287 288 269 
303 269 288 289 270 
304 270 289 51 52 
305 15 16 290 271 
306 271 290 291 272 
307 272 291 292 273 
308 273 292 293 274 
309 274 293 294 275 
310 275 294 295 276 
311 276 295 296 277 
312 277 296 297 278 
313 278 297 298 279 
314 279 298 299 280 
315 280 299 300 281 
316 281 300 301 282 
317 282 301 302 283 
318 283 302 303 284 
319 284 303 304 285 
320 285 304 305 286 
321 286 305 306 287 
322 287 306 307 288 
323 288 307 308 289 
324 289 308 50 51 
325 16 17 309 290 
326 290 309 310 291 
327 291 310 311 292 
328 292 311 312 293 
329 293 312 313 294 
330 294 313 314 295 
331 295 314 315 296 
332 296 315 316 297 
333 297 316 317 298 
334 298 317 318 299 
335 299 318 319 300 
336 300 319 320 301 
337 301 320 321 302 
338 302 321 322 303 
339 303 322 323 304 
340 304 323 324 305 
341 305 324 325 306 
342 306 325 326 307 
343 307 326 327 308 
344 308 327 49 50 
345 17 18 328 309 
346 309 328 329 310 
347 310 329 330 311 
348 311 330 331 312 
349 312 331 332 313 
350 313 332 333 314 
351 314 333 334 315 
352 315 334 335 316 
353 316 335 336 317 
354 317 336 337 318 
355 318 337 338 319 
356 319 338 339 320 
357 320 339 340 321 
358 321 340 341 322 
359 322 341 342 323 
360 323 342 343 324 
361 324 343 344 325 
362 325 344 345 326 
363 326 345 346 327 
364 327 346 48 49 
365 18 19 347 328 
366 328 347 348 329 
367 329 348 349 330 
368 330 349 350 331 
369 331 350 351 332 
370 332 351 352 333 
371 333 352 353 334 
372 334 353 354 335 
373 335 354 355 336 
374 336 355 356 337 
375 337 356 357 338 
376 338 357 358 339 
377 339 358 359 340 
378 340 359 360 341 
379 341 360 361 342 
380 342 361 362 343 
381 343 362 363 344 
382 344 363 364 345 
383 345 364 365 346 
384 346 365 47 48 
385 19 20 366 347 
386 347 366 367 348 
387 348 367 368 349 
388 349 368 369 350 
389 350 369 370 351 
390 351 370 371 352 
391 352 371 372 353 
392 353 372 373 354 
393 354 373 374 355 
394 355 374 375 356 
395 356 375 376 357 
396 357 376 377 358 
397 358 377 378 359 
398 359 378 379 360 
399 360 379 380 361 
400 361 380 381 362 
401 362 381 382 363 
402 363 382 383 364 
403 364 383 384 365 
404 365 384 46 47 
405 20 21 385 366 
406 366 385 386 367 
407 367 386 387 368 
408 368 387 388 369 
409 369 388 389 370 
410 370 389 390 371 
411 371 390 391 372 
412 372 391 392 373 
413 373 392 393 374 
414 374 393 394 375 
415 375 394 395 376 
416 376 395 396 377 
417 377 396 397 378 
418 378 397 398 379 
419 379 398 399 380 
420 380 399 400 381 
421 381 400 401 382 
422 382 401 402 383 
423 383 402 403 384 
424 384 403 45 46 
425 21 22 404 385 
426 385 404 405 386 
427 386 405 406 387 
428 387 406 407 388 
429 388 407 408 389 
430 389 408 409 390 
431 390 409 410 391 
432 391 410 411 392 
433 392 411 412 393 
434 393 412 413 394 
435 394 413 414 395 
436 395 414 415 396 
437 396 415 416 397 
438 397 416 417 398 
439 398 417 418 399 
440 399 418 419 400 
441 400 419 420 401 
442 401 420 421 402 
443 402 421 422 403 
444 403 422 44 45 
445 22 23 423 404 
446 404 423 424 405 
447 405 424 425 406 
448 406 425 426 407 
449 407 426 427 408 
450 408 427 428 409 
451 409 428 429 410 
452 410 429 430 411 
453 411 430 431 412 
454 412 431 432 413 
455 413 432 433 414 
456 414 433 434 415 
457 415 434 435 416 
458 416 435 436 417 
459 417 436 437 418 
460 418 437 438 419 
461 419 438 439 420 
462 420 439 440 421 
463 421 440 441 422 
464 422 441 43 44 
465 23 2 24 423 
466 423 24 25 424 
467 424 25 26 425 
468 425 26 27 426 
469 426 27 28 427 
470 427 28 29 428 
471 428 29 30 429 
472 429 30 31 430 
473 430 31 32 431 
474 431 32 33 432 
475 432 33 34 433 
476 433 34 35 434 
477 434 35 36 435 
478 435 36 37 436 
479 436 37 38 437 
480 437 38 39 438 
481 438 39 40 439 
482 439 40 41 440 
483 440 41 42 441 
484 441 42 3 43 
$EndElements
