$MeshFormat
4.1 0 8
$EndMeshFormat
$Entities
4 4 1 0
1 0 -0.0949999988 0 0 
2 0.100000001 -0.0949999988 0 0 
3 0.100000001 0.00499999989 0 0 
4 0 0.00499999989 0 0 
1 0 -0.0949999988 0 0.100000001 -0.0949999988 0 0 2 1 -2 
2 0.100000001 -0.0949999988 0 0.100000001 0.004999999889999995 0 0 2 2 -3 
3 0 0.00499999989 0 0.100000001 0.00499999989 0 0 2 3 -4 
4 0 -0.0949999988 0 0 0.004999999890000002 0 0 2 4 -1 
1 0 -0.0949999988 0 0.100000001 0.004999999890000002 0 0 4 1 2 3 4 
$EndEntities
$Nodes
9 9 1 9
0 1 0 1
1
0 -0.0949999988 0
0 2 0 1
2
0.100000001 -0.0949999988 0
0 3 0 1
3
0.100000001 0.00499999989 0
0 4 0 1
4
0 0.00499999989 0
1 1 0 1
5
0.05000000049986751 -0.0949999988 0
1 2 0 1
6
0.100000001 -0.04499999945512728 0
1 3 0 1
7
0.0500000005001368 0.00499999989 0
1 4 0 1
8
0 -0.04499999945487272 0
2 1 0 1
9
0.05000000050000215 -0.04499999945499999 0
$EndNodes
$Elements
9 20 1 20
0 1 15 1
1 1 
0 2 15 1
2 2 
0 3 15 1
3 3 
0 4 15 1
4 4 
1 1 1 2
5 1 5 
6 5 2 
1 2 1 2
7 2 6 
8 6 3 
1 3 1 2
9 3 7 
10 7 4 
1 4 1 2
11 4 8 
12 8 1 
2 1 2 8
13 1 5 8 
14 8 5 9 
15 8 9 4 
16 4 9 7 
17 5 2 9 
18 9 2 6 
19 9 6 7 
20 7 6 3 
$EndElements
