$MeshFormat
4.1 0 8
$EndMeshFormat
$Entities
4 4 1 0
1 0 -0.0949999988 0 0 
2 0.100000001 -0.0949999988 0 0 
3 0.100000001 0.00499999989 0 0 
4 0 0.00499999989 0 0 
1 0 -0.0949999988 0 0.100000001 -0.0949999988 0 0 2 1 -2 
2 0.100000001 -0.0949999988 0 0.100000001 0.004999999889999995 0 0 2 2 -3 
3 0 0.00499999989 0 0.100000001 0.00499999989 0 0 2 3 -4 
4 0 -0.0949999988 0 0 0.004999999890000002 0 0 2 4 -1 
1 0 -0.0949999988 0 0.100000001 0.004999999890000002 0 0 4 1 2 3 4 
$EndEntities
$Nodes
9 961 1 961
0 1 0 1
1
0 -0.0949999988 0
0 2 0 1
2
0.100000001 -0.0949999988 0
0 3 0 1
3
0.100000001 0.00499999989 0
0 4 0 1
4
0 0.00499999989 0
1 1 0 29
5
6
7
8
9
10
11
12
13
14
15
16
17
18
19
20
21
22
23
24
25
26
27
28
29
30
31
32
33
0.003333333366660246 -0.0949999988 0
0.006666666733320063 -0.0949999988 0
0.01000000009998107 -0.0949999988 0
0.01333333346664111 -0.0949999988 0
0.0166666668332983 -0.0949999988 0
0.02000000019995474 -0.0949999988 0
0.02333333356661201 -0.0949999988 0
0.02666666693326818 -0.0949999988 0
0.03000000029992544 -0.0949999988 0
0.03333333366658211 -0.0949999988 0
0.03666666703323811 -0.0949999988 0
0.04000000039989573 -0.0949999988 0
0.04333333376655281 -0.0949999988 0
0.0466666671332088 -0.0949999988 0
0.05000000049986751 -0.0949999988 0
0.0533333338665422 -0.0949999988 0
0.05666666723321689 -0.0949999988 0
0.06000000059989265 -0.0949999988 0
0.0633333339665649 -0.0949999988 0
0.066666667333245 -0.0949999988 0
0.07000000069991862 -0.0949999988 0
0.07333333406659168 -0.0949999988 0
0.07666666743327449 -0.0949999988 0
0.08000000079994755 -0.0949999988 0
0.08333333416662117 -0.0949999988 0
0.08666666753330127 -0.0949999988 0
0.09000000089997108 -0.0949999988 0
0.09333333426664522 -0.0949999988 0
0.09666666763332532 -0.0949999988 0
1 2 0 29
34
35
36
37
38
39
40
41
42
43
44
45
46
47
48
49
50
51
52
53
54
55
56
57
58
59
60
61
62
0.100000001 -0.09166666551033595 0
0.100000001 -0.08833333222067731 0
0.100000001 -0.08499999893101325 0
0.100000001 -0.08166666564135461 0
0.100000001 -0.0783333323517014 0
0.100000001 -0.07499999906204276 0
0.100000001 -0.07166666577238412 0
0.100000001 -0.06833333248272548 0
0.100000001 -0.06499999919306686 0
0.100000001 -0.06166666590341365 0
0.100000001 -0.05833333261375501 0
0.100000001 -0.0549999993240964 0
0.100000001 -0.05166666603443777 0
0.100000001 -0.04833333274478149 0
0.100000001 -0.04499999945512728 0
0.100000001 -0.04166666616545268 0
0.100000001 -0.03833333287577671 0
0.100000001 -0.03499999958610075 0
0.100000001 -0.03166666629642623 0
0.100000001 -0.02833333300675514 0
0.100000001 -0.02499999971707881 0
0.100000001 -0.02166666642740248 0
0.100000001 -0.01833333313772652 0
0.100000001 -0.01499999984805091 0
0.100000001 -0.01166666655837532 0
0.100000001 -0.008333333268699714 0
0.100000001 -0.004999999979026809 0
0.100000001 -0.001666666689351212 0
0.100000001 0.001666666600324385 0
1 3 0 29
63
64
65
66
67
68
69
70
71
72
73
74
75
76
77
78
79
80
81
82
83
84
85
86
87
88
89
90
91
0.096666667633342 0.00499999989 0
0.09333333426668131 0.00499999989 0
0.09000000090002276 0.00499999989 0
0.0866666675333653 0.00499999989 0
0.08333333416671002 0.00499999989 0
0.08000000080005365 0.00499999989 0
0.07666666743339402 0.00499999989 0
0.07333333406673874 0.00499999989 0
0.07000000070007911 0.00499999989 0
0.06666666733342273 0.00499999989 0
0.06333333396676727 0.00499999989 0
0.06000000060010945 0.00499999989 0
0.05666666723345208 0.00499999989 0
0.05333333386679581 0.00499999989 0
0.0500000005001368 0.00499999989 0
0.04666666713346183 0.00499999989 0
0.04333333376678685 0.00499999989 0
0.04000000040011079 0.00499999989 0
0.03666666703343825 0.00499999989 0
0.03333333366675786 0.00499999989 0
0.03000000030008398 0.00499999989 0
0.02666666693341063 0.00499999989 0
0.02333333356672752 0.00499999989 0
0.02000000020005417 0.00499999989 0
0.01666666683338028 0.00499999989 0
0.01333333346669989 0.00499999989 0
0.0100000001000298 0.00499999989 0
0.006666666733355364 0.00499999989 0
0.003333333366674976 0.00499999989 0
1 4 0 29
92
93
94
95
96
97
98
99
100
101
102
103
104
105
106
107
108
109
110
111
112
113
114
115
116
117
118
119
120
0 0.001666666600340262 0
0 -0.001666666689318732 0
0 -0.004999999978980182 0
0 -0.00833333326863997 0
0 -0.011666666558295 0
0 -0.01499999984795319 0
0 -0.01833333313761182 0
0 -0.02166666642727046 0
0 -0.02499999971692908 0
0 -0.02833333300658635 0
0 -0.03166666629624498 0
0 -0.0349999995859036 0
0 -0.03833333287556222 0
0 -0.04166666616521851 0
0 -0.04499999945487272 0
0 -0.04833333274454732 0
0 -0.05166666603422329 0
0 -0.05499999932389925 0
0 -0.05833333261357377 0
0 -0.06166666590324486 0
0 -0.0649999991929212 0
0 -0.06833333248259753 0
0 -0.07166666577227349 0
0 -0.0749999990619491 0
0 -0.07833333235162468 0
0 -0.08166666564130029 0
0 -0.08499999893097319 0
0 -0.08833333222064879 0
0 -0.09166666551032439 0
2 1 0 841
121
122
123
124
125
126
127
128
129
130
131
132
133
134
135
136
137
138
139
140
141
142
143
144
145
146
147
148
149
150
151
152
153
154
155
156
157
158
159
160
161
162
163
164
165
166
167
168
169
170
171
172
173
174
175
176
177
178
179
180
181
182
183
184
185
186
187
188
189
190
191
192
193
194
195
196
197
198
199
200
201
202
203
204
205
206
207
208
209
210
211
212
213
214
215
216
217
218
219
220
221
222
223
224
225
226
227
228
229
230
231
232
233
234
235
236
237
238
239
240
241
242
243
244
245
246
247
248
249
250
251
252
253
254
255
256
257
258
259
260
261
262
263
264
265
266
267
268
269
270
271
272
273
274
275
276
277
278
279
280
281
282
283
284
285
286
287
288
289
290
291
292
293
294
295
296
297
298
299
300
301
302
303
304
305
306
307
308
309
310
311
312
313
314
315
316
317
318
319
320
321
322
323
324
325
326
327
328
329
330
331
332
333
334
335
336
337
338
339
340
341
342
343
344
345
346
347
348
349
350
351
352
353
354
355
356
357
358
359
360
361
362
363
364
365
366
367
368
369
370
371
372
373
374
375
376
377
378
379
380
381
382
383
384
385
386
387
388
389
390
391
392
393
394
395
396
397
398
399
400
401
402
403
404
405
406
407
408
409
410
411
412
413
414
415
416
417
418
419
420
421
422
423
424
425
426
427
428
429
430
431
432
433
434
435
436
437
438
439
440
441
442
443
444
445
446
447
448
449
450
451
452
453
454
455
456
457
458
459
460
461
462
463
464
465
466
467
468
469
470
471
472
473
474
475
476
477
478
479
480
481
482
483
484
485
486
487
488
489
490
491
492
493
494
495
496
497
498
499
500
501
502
503
504
505
506
507
508
509
510
511
512
513
514
515
516
517
518
519
520
521
522
523
524
525
526
527
528
529
530
531
532
533
534
535
536
537
538
539
540
541
542
543
544
545
546
547
548
549
550
551
552
553
554
555
556
557
558
559
560
561
562
563
564
565
566
567
568
569
570
571
572
573
574
575
576
577
578
579
580
581
582
583
584
585
586
587
588
589
590
591
592
593
594
595
596
597
598
599
600
601
602
603
604
605
606
607
608
609
610
611
612
613
614
615
616
617
618
619
620
621
622
623
624
625
626
627
628
629
630
631
632
633
634
635
636
637
638
639
640
641
642
643
644
645
646
647
648
649
650
651
652
653
654
655
656
657
658
659
660
661
662
663
664
665
666
667
668
669
670
671
672
673
674
675
676
677
678
679
680
681
682
683
684
685
686
687
688
689
690
691
692
693
694
695
696
697
698
699
700
701
702
703
704
705
706
707
708
709
710
711
712
713
714
715
716
717
718
719
720
721
722
723
724
725
726
727
728
729
730
731
732
733
734
735
736
737
738
739
740
741
742
743
744
745
746
747
748
749
750
751
752
753
754
755
756
757
758
759
760
761
762
763
764
765
766
767
768
769
770
771
772
773
774
775
776
777
778
779
780
781
782
783
784
785
786
787
788
789
790
791
792
793
794
795
796
797
798
799
800
801
802
803
804
805
806
807
808
809
810
811
812
813
814
815
816
817
818
819
820
821
822
823
824
825
826
827
828
829
830
831
832
833
834
835
836
837
838
839
840
841
842
843
844
845
846
847
848
849
850
851
852
853
854
855
856
857
858
859
860
861
862
863
864
865
866
867
868
869
870
871
872
873
874
875
876
877
878
879
880
881
882
883
884
885
886
887
888
889
890
891
892
893
894
895
896
897
898
899
900
901
902
903
904
905
906
907
908
909
910
911
912
913
914
915
916
917
918
919
920
921
922
923
924
925
926
927
928
929
930
931
932
933
934
935
936
937
938
939
940
941
942
943
944
945
946
947
948
949
950
951
952
953
954
955
956
957
958
959
960
961
0.003333333366660737 -0.09166666551032478 0
0.003333333366661227 -0.08833333222064974 0
0.003333333366661718 -0.08499999893097454 0
0.00333333336666221 -0.08166666564130208 0
0.003333333366662701 -0.07833333235162725 0
0.003333333366663192 -0.07499999906195221 0
0.003333333366663682 -0.07166666577227719 0
0.003333333366664174 -0.06833333248260177 0
0.003333333366664665 -0.06499999919292605 0
0.003333333366665156 -0.06166666590325048 0
0.003333333366665647 -0.0583333326135798 0
0.003333333366666138 -0.05499999932390581 0
0.003333333366666628 -0.05166666603423044 0
0.003333333366667119 -0.04833333274455511 0
0.00333333336666761 -0.04499999945488121 0
0.003333333366668102 -0.04166666616522632 0
0.003333333366668593 -0.03833333287556937 0
0.003333333366669084 -0.03499999958591016 0
0.003333333366669575 -0.03166666629625103 0
0.003333333366670065 -0.02833333300659198 0
0.003333333366670557 -0.02499999971693406 0
0.003333333366671049 -0.02166666642727486 0
0.003333333366671539 -0.01833333313761564 0
0.003333333366672029 -0.01499999984795644 0
0.003333333366672521 -0.01166666655829767 0
0.003333333366673012 -0.008333333268641959 0
0.003333333366673503 -0.004999999978981734 0
0.003333333366673994 -0.001666666689319815 0
0.003333333366674485 0.001666666600339733 0
0.00666666673332124 -0.09166666551032517 0
0.006666666733322417 -0.08833333222065071 0
0.006666666733323592 -0.08499999893097587 0
0.00666666673332477 -0.08166666564130391 0
0.006666666733325947 -0.0783333323516298 0
0.006666666733327123 -0.07499999906195533 0
0.006666666733328299 -0.07166666577228084 0
0.006666666733329477 -0.06833333248260605 0
0.006666666733330655 -0.06499999919293094 0
0.006666666733331829 -0.0616666659032561 0
0.006666666733333007 -0.05833333261358584 0
0.006666666733334183 -0.05499999932391237 0
0.006666666733335359 -0.05166666603423758 0
0.006666666733336536 -0.04833333274456294 0
0.006666666733337712 -0.0449999994548897 0
0.006666666733338891 -0.04166666616523412 0
0.006666666733340066 -0.03833333287557653 0
0.006666666733341243 -0.03499999958591674 0
0.00666666673334242 -0.03166666629625706 0
0.006666666733343595 -0.0283333330065976 0
0.006666666733344773 -0.02499999971693905 0
0.006666666733345952 -0.02166666642727925 0
0.006666666733347127 -0.01833333313761947 0
0.006666666733348304 -0.0149999998479597 0
0.006666666733349479 -0.01166666655830035 0
0.006666666733350656 -0.008333333268643949 0
0.006666666733351834 -0.004999999978983291 0
0.006666666733353012 -0.001666666689320898 0
0.006666666733354188 0.001666666600339203 0
0.01000000009998269 -0.09166666551032554 0
0.01000000009998432 -0.08833333222065166 0
0.01000000009998594 -0.08499999893097719 0
0.01000000009998757 -0.08166666564130573 0
0.01000000009998919 -0.07833333235163235 0
0.01000000009999081 -0.07499999906195844 0
0.01000000009999244 -0.07166666577228453 0
0.01000000009999406 -0.06833333248261031 0
0.01000000009999569 -0.06499999919293577 0
0.01000000009999731 -0.06166666590326172 0
0.01000000009999894 -0.05833333261359189 0
0.01000000010000056 -0.05499999932391895 0
0.01000000010000219 -0.05166666603424475 0
0.01000000010000381 -0.04833333274457074 0
0.01000000010000543 -0.04499999945489817 0
0.01000000010000706 -0.04166666616524193 0
0.01000000010000868 -0.03833333287558368 0
0.01000000010001031 -0.03499999958592331 0
0.01000000010001193 -0.03166666629626311 0
0.01000000010001356 -0.02833333300660323 0
0.01000000010001518 -0.02499999971694404 0
0.0100000001000168 -0.02166666642728365 0
0.01000000010001843 -0.01833333313762329 0
0.01000000010002005 -0.01499999984796297 0
0.01000000010002168 -0.01166666655830303 0
0.0100000001000233 -0.008333333268645944 0
0.01000000010002493 -0.004999999978984845 0
0.01000000010002655 -0.00166666668932198 0
0.01000000010002817 0.001666666600338675 0
0.01333333346664307 -0.09166666551032593 0
0.01333333346664503 -0.08833333222065259 0
0.01333333346664698 -0.08499999893097854 0
0.01333333346664895 -0.08166666564130752 0
0.0133333334666509 -0.07833333235163491 0
0.01333333346665286 -0.07499999906196157 0
0.01333333346665482 -0.07166666577228822 0
0.01333333346665678 -0.06833333248261458 0
0.01333333346665874 -0.06499999919294062 0
0.0133333334666607 -0.06166666590326736 0
0.01333333346666266 -0.05833333261359792 0
0.01333333346666462 -0.05499999932392554 0
0.01333333346666658 -0.05166666603425188 0
0.01333333346666854 -0.04833333274457856 0
0.0133333334666705 -0.04499999945490666 0
0.01333333346667246 -0.04166666616524973 0
0.01333333346667442 -0.03833333287559083 0
0.01333333346667638 -0.03499999958592989 0
0.01333333346667833 -0.03166666629626915 0
0.01333333346668029 -0.02833333300660886 0
0.01333333346668225 -0.02499999971694904 0
0.01333333346668422 -0.02166666642728805 0
0.01333333346668618 -0.01833333313762712 0
0.01333333346668813 -0.01499999984796622 0
0.01333333346669009 -0.01166666655830571 0
0.01333333346669205 -0.008333333268647934 0
0.01333333346669401 -0.0049999999789864 0
0.01333333346669597 -0.001666666689323062 0
0.01333333346669793 0.001666666600338146 0
0.01666666683330103 -0.0916666655103263 0
0.01666666683330376 -0.08833333222065354 0
0.0166666668333065 -0.0849999989309799 0
0.01666666683330923 -0.08166666564130935 0
0.01666666683331196 -0.07833333235163746 0
0.0166666668333147 -0.07499999906196471 0
0.01666666683331743 -0.07166666577229193 0
0.01666666683332016 -0.06833333248261884 0
0.01666666683332289 -0.06499999919294548 0
0.01666666683332563 -0.06166666590327299 0
0.01666666683332835 -0.05833333261360397 0
0.01666666683333109 -0.0549999993239321 0
0.01666666683333382 -0.05166666603425903 0
0.01666666683333656 -0.04833333274458634 0
0.01666666683333929 -0.04499999945491515 0
0.01666666683334202 -0.04166666616525754 0
0.01666666683334475 -0.03833333287559797 0
0.01666666683334748 -0.03499999958593647 0
0.01666666683335022 -0.03166666629627518 0
0.01666666683335295 -0.02833333300661449 0
0.01666666683335568 -0.02499999971695403 0
0.01666666683335842 -0.02166666642729246 0
0.01666666683336115 -0.01833333313763094 0
0.01666666683336388 -0.01499999984796947 0
0.01666666683336662 -0.01166666655830838 0
0.01666666683336934 -0.008333333268649924 0
0.01666666683337208 -0.004999999978987956 0
0.01666666683337481 -0.001666666689324145 0
0.01666666683337754 0.001666666600337617 0
0.02000000019995806 -0.09166666551032672 0
0.02000000019996137 -0.08833333222065451 0
0.02000000019996468 -0.08499999893098123 0
0.02000000019996801 -0.0816666656413111 0
0.02000000019997131 -0.07833333235164 0
0.02000000019997463 -0.07499999906196782 0
0.02000000019997794 -0.07166666577229561 0
0.02000000019998126 -0.06833333248262312 0
0.02000000019998457 -0.06499999919295034 0
0.02000000019998789 -0.06166666590327862 0
0.0200000001999912 -0.05833333261361003 0
0.02000000019999451 -0.05499999932393866 0
0.02000000019999783 -0.05166666603426619 0
0.02000000020000114 -0.04833333274459416 0
0.02000000020000445 -0.04499999945492364 0
0.02000000020000777 -0.04166666616526534 0
0.02000000020001109 -0.03833333287560512 0
0.0200000002000144 -0.03499999958594302 0
0.02000000020001771 -0.03166666629628123 0
0.02000000020002103 -0.02833333300662011 0
0.02000000020002434 -0.02499999971695903 0
0.02000000020002766 -0.02166666642729686 0
0.02000000020003097 -0.01833333313763476 0
0.02000000020003428 -0.01499999984797274 0
0.02000000020003759 -0.01166666655831106 0
0.02000000020004091 -0.008333333268651918 0
0.02000000020004423 -0.004999999978989507 0
0.02000000020004754 -0.001666666689325228 0
0.02000000020005085 0.001666666600337087 0
0.02333333356661585 -0.09166666551032709 0
0.02333333356661971 -0.08833333222065544 0
0.02333333356662356 -0.08499999893098253 0
0.02333333356662741 -0.08166666564131296 0
0.02333333356663126 -0.07833333235164257 0
0.02333333356663511 -0.07499999906197094 0
0.02333333356663896 -0.07166666577229927 0
0.02333333356664281 -0.06833333248262738 0
0.02333333356664666 -0.0649999991929552 0
0.02333333356665052 -0.06166666590328426 0
0.02333333356665436 -0.05833333261361605 0
0.02333333356665822 -0.05499999932394524 0
0.02333333356666206 -0.05166666603427333 0
0.02333333356666591 -0.04833333274460196 0
0.02333333356666976 -0.04499999945493211 0
0.02333333356667362 -0.04166666616527314 0
0.02333333356667747 -0.03833333287561227 0
0.02333333356668132 -0.0349999995859496 0
0.02333333356668517 -0.03166666629628727 0
0.02333333356668902 -0.02833333300662573 0
0.02333333356669286 -0.02499999971696401 0
0.02333333356669672 -0.02166666642730125 0
0.02333333356670057 -0.01833333313763859 0
0.02333333356670442 -0.01499999984797599 0
0.02333333356670827 -0.01166666655831374 0
0.02333333356671212 -0.008333333268653908 0
0.02333333356671597 -0.004999999978991063 0
0.02333333356671982 -0.001666666689326311 0
0.02333333356672367 0.001666666600336557 0
0.02666666693327293 -0.09166666551032744 0
0.02666666693327767 -0.08833333222065638 0
0.02666666693328243 -0.08499999893098387 0
0.02666666693328717 -0.08166666564131478 0
0.02666666693329193 -0.07833333235164512 0
0.02666666693329667 -0.07499999906197405 0
0.02666666693330141 -0.07166666577230299 0
0.02666666693330617 -0.06833333248263164 0
0.02666666693331091 -0.06499999919296005 0
0.02666666693331566 -0.06166666590328987 0
0.02666666693332041 -0.0583333326136221 0
0.02666666693332516 -0.05499999932395182 0
0.02666666693332991 -0.05166666603428049 0
0.02666666693333466 -0.04833333274460978 0
0.0266666669333394 -0.0449999994549406 0
0.02666666693334416 -0.04166666616528096 0
0.0266666669333489 -0.03833333287561942 0
0.02666666693335365 -0.03499999958595617 0
0.02666666693335841 -0.03166666629629331 0
0.02666666693336315 -0.02833333300663136 0
0.02666666693336789 -0.024999999716969 0
0.02666666693337265 -0.02166666642730566 0
0.02666666693337739 -0.01833333313764241 0
0.02666666693338214 -0.01499999984797925 0
0.02666666693338689 -0.01166666655831642 0
0.02666666693339164 -0.008333333268655901 0
0.02666666693339639 -0.004999999978992617 0
0.02666666693340113 -0.001666666689327392 0
0.02666666693340588 0.001666666600336028 0
0.03000000029993072 -0.09166666551032786 0
0.03000000029993601 -0.08833333222065735 0
0.03000000029994129 -0.08499999893098524 0
0.03000000029994657 -0.08166666564131657 0
0.03000000029995186 -0.0783333323516477 0
0.03000000029995714 -0.07499999906197719 0
0.03000000029996243 -0.07166666577230665 0
0.03000000029996772 -0.06833333248263589 0
0.030000000299973 -0.06499999919296491 0
0.03000000029997828 -0.06166666590329547 0
0.03000000029998357 -0.05833333261362814 0
0.03000000029998886 -0.0549999993239584 0
0.03000000029999413 -0.05166666603428763 0
0.03000000029999942 -0.04833333274461757 0
0.03000000030000471 -0.04499999945494909 0
0.03000000030000999 -0.04166666616528877 0
0.03000000030001528 -0.03833333287562658 0
0.03000000030002056 -0.03499999958596275 0
0.03000000030002585 -0.03166666629629936 0
0.03000000030003114 -0.02833333300663699 0
0.03000000030003643 -0.024999999716974 0
0.03000000030004171 -0.02166666642731006 0
0.03000000030004699 -0.01833333313764622 0
0.03000000030005227 -0.01499999984798251 0
0.03000000030005756 -0.01166666655831909 0
0.03000000030006284 -0.008333333268657893 0
0.03000000030006814 -0.004999999978994171 0
0.03000000030007341 -0.001666666689328475 0
0.0300000003000787 0.001666666600335499 0
0.03333333366658795 -0.09166666551032822 0
0.03333333366659384 -0.08833333222065828 0
0.03333333366659968 -0.08499999893098655 0
0.03333333366660555 -0.0816666656413184 0
0.0333333336666114 -0.07833333235165023 0
0.03333333366661727 -0.07499999906198034 0
0.03333333366662312 -0.07166666577231037 0
0.03333333366662897 -0.06833333248264016 0
0.03333333366663483 -0.06499999919296978 0
0.03333333366664069 -0.06166666590330112 0
0.03333333366664655 -0.05833333261363419 0
0.03333333366665242 -0.05499999932396494 0
0.03333333366665827 -0.05166666603429479 0
0.03333333366666413 -0.04833333274462537 0
0.03333333366666999 -0.04499999945495756 0
0.03333333366667585 -0.04166666616529657 0
0.03333333366668171 -0.03833333287563373 0
0.03333333366668757 -0.03499999958596932 0
0.03333333366669342 -0.03166666629630538 0
0.03333333366669928 -0.02833333300664262 0
0.03333333366670514 -0.02499999971697899 0
0.033333333666711 -0.02166666642731446 0
0.03333333366671685 -0.01833333313765006 0
0.0333333336667227 -0.01499999984798576 0
0.03333333366672857 -0.01166666655832177 0
0.03333333366673444 -0.008333333268659886 0
0.03333333366674029 -0.004999999978995728 0
0.03333333366674615 -0.00166666668932956 0
0.03333333366675201 0.00166666660033497 0
0.03666666703324478 -0.09166666551032859 0
0.03666666703325144 -0.08833333222065924 0
0.03666666703325811 -0.08499999893098791 0
0.03666666703326478 -0.0816666656413202 0
0.03666666703327146 -0.07833333235165281 0
0.03666666703327814 -0.07499999906198343 0
0.03666666703328481 -0.07166666577231405 0
0.03666666703329147 -0.06833333248264445 0
0.03666666703329815 -0.06499999919297464 0
0.03666666703330482 -0.06166666590330674 0
0.03666666703331149 -0.05833333261364022 0
0.03666666703331817 -0.05499999932397152 0
0.03666666703332484 -0.05166666603430192 0
0.03666666703333151 -0.04833333274463318 0
0.03666666703333819 -0.04499999945496605 0
0.03666666703334485 -0.04166666616530437 0
0.03666666703335152 -0.03833333287564088 0
0.0366666670333582 -0.03499999958597588 0
0.03666666703336487 -0.03166666629631143 0
0.03666666703337153 -0.02833333300664824 0
0.03666666703337821 -0.02499999971698398 0
0.03666666703338487 -0.02166666642731886 0
0.03666666703339156 -0.01833333313765387 0
0.03666666703339822 -0.01499999984798901 0
0.0366666670334049 -0.01166666655832445 0
0.03666666703341157 -0.008333333268661874 0
0.03666666703341823 -0.004999999978997279 0
0.03666666703342491 -0.001666666689330641 0
0.03666666703343158 0.00166666660033444 0
0.0400000003999029 -0.091666665510329 0
0.04000000039991006 -0.08833333222066021 0
0.04000000039991724 -0.08499999893098927 0
0.04000000039992441 -0.08166666564132202 0
0.04000000039993157 -0.07833333235165534 0
0.04000000039993875 -0.07499999906198654 0
0.0400000003999459 -0.07166666577231771 0
0.04000000039995308 -0.06833333248264872 0
0.04000000039996025 -0.06499999919297948 0
0.04000000039996742 -0.06166666590331235 0
0.0400000003999746 -0.05833333261364627 0
0.04000000039998175 -0.0549999993239781 0
0.04000000039998892 -0.05166666603430908 0
0.04000000039999609 -0.04833333274464099 0
0.04000000040000326 -0.04499999945497455 0
0.04000000040001042 -0.04166666616531217 0
0.04000000040001761 -0.03833333287564803 0
0.04000000040002477 -0.03499999958598246 0
0.04000000040003194 -0.03166666629631749 0
0.04000000040003911 -0.02833333300665387 0
0.04000000040004627 -0.02499999971698897 0
0.04000000040005344 -0.02166666642732326 0
0.04000000040006062 -0.0183333331376577 0
0.04000000040006779 -0.01499999984799227 0
0.04000000040007496 -0.01166666655832713 0
0.04000000040008211 -0.008333333268663867 0
0.04000000040008929 -0.004999999978998835 0
0.04000000040009646 -0.001666666689331724 0
0.04000000040010363 0.001666666600333912 0
0.04333333376656062 -0.09166666551032938 0
0.04333333376656842 -0.08833333222066116 0
0.04333333376657621 -0.0849999989309906 0
0.04333333376658402 -0.08166666564132384 0
0.04333333376659181 -0.07833333235165794 0
0.04333333376659961 -0.07499999906198966 0
0.04333333376660743 -0.07166666577232145 0
0.04333333376661523 -0.06833333248265297 0
0.04333333376662303 -0.06499999919298435 0
0.04333333376663083 -0.061666665903318 0
0.04333333376663863 -0.0583333326136523 0
0.04333333376664643 -0.05499999932398468 0
0.04333333376665423 -0.05166666603431623 0
0.04333333376666202 -0.0483333327446488 0
0.04333333376666984 -0.04499999945498302 0
0.04333333376667763 -0.04166666616532 0
0.04333333376668544 -0.03833333287565516 0
0.04333333376669323 -0.03499999958598903 0
0.04333333376670104 -0.0316666662963235 0
0.04333333376670883 -0.02833333300665949 0
0.04333333376671663 -0.02499999971699396 0
0.04333333376672444 -0.02166666642732766 0
0.04333333376673225 -0.01833333313766152 0
0.04333333376674004 -0.01499999984799554 0
0.04333333376674784 -0.01166666655832981 0
0.04333333376675566 -0.008333333268665859 0
0.04333333376676346 -0.004999999979000389 0
0.04333333376677126 -0.001666666689332806 0
0.04333333376677905 0.001666666600333381 0
0.04666666713321724 -0.09166666551032975 0
0.04666666713322568 -0.0883333322206621 0
0.04666666713323411 -0.08499999893099193 0
0.04666666713324254 -0.08166666564132562 0
0.04666666713325097 -0.0783333323516605 0
0.04666666713325941 -0.07499999906199281 0
0.04666666713326784 -0.07166666577232508 0
0.04666666713327627 -0.06833333248265723 0
0.0466666671332847 -0.06499999919298917 0
0.04666666713329314 -0.06166666590332363 0
0.04666666713330157 -0.05833333261365835 0
0.04666666713331001 -0.05499999932399123 0
0.04666666713331845 -0.05166666603432338 0
0.04666666713332688 -0.0483333327446566 0
0.04666666713333532 -0.0449999994549915 0
0.04666666713334376 -0.04166666616532779 0
0.04666666713335219 -0.03833333287566233 0
0.04666666713336063 -0.0349999995859956 0
0.04666666713336905 -0.03166666629632955 0
0.04666666713337749 -0.02833333300666512 0
0.04666666713338592 -0.02499999971699895 0
0.04666666713339436 -0.02166666642733206 0
0.0466666671334028 -0.01833333313766535 0
0.04666666713341123 -0.01499999984799879 0
0.04666666713341967 -0.01166666655833249 0
0.0466666671334281 -0.00833333326866785 0
0.04666666713343654 -0.004999999979001942 0
0.04666666713344497 -0.001666666689333889 0
0.0466666671334534 0.001666666600332853 0
0.05000000049987648 -0.09166666551033015 0
0.05000000049988548 -0.08833333222066304 0
0.05000000049989445 -0.08499999893099326 0
0.05000000049990341 -0.08166666564132745 0
0.0500000004999124 -0.07833333235166305 0
0.05000000049992136 -0.07499999906199591 0
0.05000000049993036 -0.0716666657723288 0
0.05000000049993932 -0.06833333248266149 0
0.0500000004999483 -0.06499999919299405 0
0.05000000049995729 -0.06166666590332924 0
0.05000000049996625 -0.05833333261366439 0
0.05000000049997524 -0.0549999993239978 0
0.0500000004999842 -0.05166666603433054 0
0.05000000049999318 -0.04833333274466441 0
0.05000000050000217 -0.04499999945499999 0
0.05000000050001114 -0.04166666616533558 0
0.0500000005000201 -0.03833333287566947 0
0.05000000050002908 -0.03499999958600217 0
0.05000000050003808 -0.0316666662963356 0
0.05000000050004705 -0.02833333300667075 0
0.05000000050005601 -0.02499999971700394 0
0.050000000500065 -0.02166666642733646 0
0.05000000050007396 -0.01833333313766916 0
0.05000000050008294 -0.01499999984800205 0
0.05000000050009192 -0.01166666655833516 0
0.0500000005001009 -0.008333333268669842 0
0.05000000050010989 -0.004999999979003498 0
0.05000000050011885 -0.001666666689334971 0
0.05000000050012784 0.001666666600332324 0
0.05333333386655065 -0.09166666551033055 0
0.05333333386655911 -0.08833333222066399 0
0.05333333386656756 -0.08499999893099459 0
0.05333333386657603 -0.08166666564132928 0
0.05333333386658446 -0.07833333235166559 0
0.05333333386659293 -0.07499999906199903 0
0.05333333386660136 -0.07166666577233248 0
0.05333333386660982 -0.06833333248266575 0
0.05333333386661829 -0.06499999919299888 0
0.05333333386662674 -0.06166666590333487 0
0.05333333386663519 -0.05833333261367044 0
0.05333333386664364 -0.05499999932400439 0
0.05333333386665209 -0.05166666603433769 0
0.05333333386666057 -0.04833333274467221 0
0.05333333386666901 -0.0449999994550085 0
0.05333333386667748 -0.04166666616534338 0
0.05333333386668591 -0.03833333287567662 0
0.05333333386669438 -0.03499999958600874 0
0.05333333386670281 -0.03166666629634163 0
0.05333333386671127 -0.02833333300667637 0
0.05333333386671973 -0.02499999971700893 0
0.05333333386672818 -0.02166666642734087 0
0.05333333386673664 -0.01833333313767299 0
0.05333333386674508 -0.0149999998480053 0
0.05333333386675355 -0.01166666655833784 0
0.05333333386676199 -0.008333333268671833 0
0.05333333386677045 -0.00499999997900505 0
0.05333333386677889 -0.001666666689336054 0
0.05333333386678735 0.001666666600331794 0
0.05666666723322475 -0.09166666551033091 0
0.05666666723323258 -0.08833333222066492 0
0.05666666723324041 -0.08499999893099593 0
0.05666666723324824 -0.08166666564133106 0
0.0566666672332561 -0.07833333235166816 0
0.05666666723326393 -0.07499999906200214 0
0.05666666723327177 -0.07166666577233616 0
0.05666666723327961 -0.06833333248267004 0
0.05666666723328745 -0.06499999919300378 0
0.05666666723329528 -0.0616666659033405 0
0.05666666723330313 -0.05833333261367647 0
0.05666666723331097 -0.05499999932401096 0
0.05666666723331881 -0.05166666603434483 0
0.05666666723332664 -0.04833333274468002 0
0.05666666723333448 -0.04499999945501696 0
0.05666666723334232 -0.04166666616535122 0
0.05666666723335016 -0.03833333287568377 0
0.05666666723335802 -0.03499999958601532 0
0.05666666723336584 -0.03166666629634768 0
0.05666666723337367 -0.028333333006682 0
0.05666666723338153 -0.02499999971701392 0
0.05666666723338935 -0.02166666642734526 0
0.05666666723339721 -0.01833333313767681 0
0.05666666723340504 -0.01499999984800857 0
0.05666666723341289 -0.01166666655834052 0
0.05666666723342072 -0.008333333268673825 0
0.05666666723342858 -0.004999999979006606 0
0.0566666672334364 -0.001666666689337139 0
0.05666666723344425 0.001666666600331265 0
0.06000000059989988 -0.09166666551033131 0
0.0600000005999071 -0.08833333222066589 0
0.06000000059991433 -0.08499999893099723 0
0.06000000059992155 -0.0816666656413329 0
0.06000000059992878 -0.07833333235167071 0
0.060000000599936 -0.0749999990620053 0
0.06000000059994324 -0.07166666577233985 0
0.06000000059995046 -0.06833333248267431 0
0.06000000059995769 -0.0649999991930086 0
0.06000000059996491 -0.06166666590334613 0
0.06000000059997214 -0.05833333261368252 0
0.06000000059997937 -0.05499999932401752 0
0.0600000005999866 -0.05166666603435198 0
0.06000000059999382 -0.04833333274468782 0
0.06000000060000105 -0.04499999945502545 0
0.06000000060000828 -0.04166666616535901 0
0.06000000060001549 -0.03833333287569092 0
0.06000000060002272 -0.03499999958602188 0
0.06000000060002995 -0.03166666629635373 0
0.06000000060003718 -0.02833333300668763 0
0.06000000060004441 -0.02499999971701892 0
0.06000000060005163 -0.02166666642734967 0
0.06000000060005888 -0.01833333313768064 0
0.06000000060006609 -0.01499999984801182 0
0.06000000060007331 -0.01166666655834319 0
0.06000000060008055 -0.008333333268675818 0
0.06000000060008777 -0.00499999997900816 0
0.060000000600095 -0.00166666668933822 0
0.06000000060010221 0.001666666600330735 0
0.06333333396657165 -0.09166666551033172 0
0.06333333396657838 -0.08833333222066686 0
0.06333333396658512 -0.08499999893099858 0
0.06333333396659187 -0.08166666564133469 0
0.06333333396659863 -0.07833333235167327 0
0.06333333396660537 -0.0749999990620084 0
0.0633333339666121 -0.07166666577234355 0
0.06333333396661886 -0.06833333248267856 0
0.06333333396662563 -0.0649999991930135 0
0.06333333396663235 -0.06166666590335177 0
0.06333333396663909 -0.05833333261368855 0
0.06333333396664587 -0.05499999932402409 0
0.06333333396665258 -0.05166666603435913 0
0.06333333396665936 -0.04833333274469562 0
0.06333333396666607 -0.04499999945503395 0
0.06333333396667282 -0.04166666616536681 0
0.06333333396667956 -0.03833333287569807 0
0.06333333396668633 -0.03499999958602847 0
0.06333333396669304 -0.03166666629635977 0
0.06333333396669982 -0.02833333300669325 0
0.06333333396670657 -0.02499999971702391 0
0.0633333339667133 -0.02166666642735407 0
0.06333333396672003 -0.01833333313768446 0
0.0633333339667268 -0.01499999984801507 0
0.06333333396673355 -0.01166666655834587 0
0.06333333396674029 -0.008333333268677806 0
0.06333333396674704 -0.004999999979009714 0
0.06333333396675378 -0.001666666689339303 0
0.06333333396676052 0.001666666600330207 0
0.06666666733325091 -0.09166666551033209 0
0.06666666733325684 -0.0883333322206678 0
0.06666666733326274 -0.08499999893099991 0
0.0666666673332687 -0.08166666564133647 0
0.06666666733327463 -0.07833333235167582 0
0.06666666733328054 -0.07499999906201152 0
0.06666666733328647 -0.07166666577234723 0
0.06666666733329238 -0.06833333248268283 0
0.06666666733329832 -0.06499999919301831 0
0.06666666733330423 -0.06166666590335738 0
0.06666666733331018 -0.05833333261369459 0
0.06666666733331608 -0.05499999932403066 0
0.06666666733332201 -0.05166666603436627 0
0.06666666733332793 -0.04833333274470343 0
0.06666666733333385 -0.04499999945504243 0
0.06666666733333979 -0.04166666616537461 0
0.06666666733334571 -0.03833333287570523 0
0.06666666733335161 -0.03499999958603502 0
0.06666666733335756 -0.03166666629636581 0
0.06666666733336346 -0.02833333300669888 0
0.0666666673333694 -0.0249999997170289 0
0.06666666733337534 -0.02166666642735847 0
0.06666666733338127 -0.01833333313768828 0
0.06666666733338718 -0.01499999984801834 0
0.06666666733339312 -0.01166666655834855 0
0.06666666733339903 -0.008333333268679795 0
0.06666666733340497 -0.004999999979011269 0
0.06666666733341087 -0.001666666689340386 0
0.06666666733341681 0.001666666600329678 0
0.07000000069992399 -0.09166666551033249 0
0.07000000069992932 -0.08833333222066876 0
0.07000000069993469 -0.08499999893100126 0
0.07000000069994 -0.08166666564133833 0
0.07000000069994539 -0.07833333235167837 0
0.07000000069995073 -0.07499999906201463 0
0.07000000069995607 -0.0716666657723509 0
0.0700000006999614 -0.06833333248268708 0
0.07000000069996679 -0.06499999919302318 0
0.07000000069997211 -0.061666665903363 0
0.07000000069997749 -0.05833333261370065 0
0.07000000069998283 -0.05499999932403725 0
0.07000000069998816 -0.05166666603437342 0
0.07000000069999351 -0.04833333274471124 0
0.07000000069999887 -0.0449999994550509 0
0.0700000007000042 -0.04166666616538243 0
0.07000000070000956 -0.03833333287571237 0
0.07000000070001491 -0.03499999958604161 0
0.07000000070002027 -0.03166666629637185 0
0.07000000070002563 -0.0283333330067045 0
0.07000000070003096 -0.02499999971703388 0
0.07000000070003631 -0.02166666642736286 0
0.07000000070004168 -0.01833333313769211 0
0.07000000070004703 -0.01499999984802159 0
0.07000000070005236 -0.01166666655835123 0
0.07000000070005771 -0.00833333326868179 0
0.07000000070006308 -0.004999999979012824 0
0.07000000070006843 -0.001666666689341468 0
0.07000000070007376 0.001666666600329147 0
0.07333333406659656 -0.09166666551033287 0
0.0733333340666015 -0.08833333222066969 0
0.07333333406660637 -0.08499999893100257 0
0.07333333406661129 -0.08166666564134011 0
0.07333333406661618 -0.07833333235168093 0
0.0733333340666211 -0.07499999906201779 0
0.07333333406662601 -0.07166666577235464 0
0.0733333340666309 -0.06833333248269136 0
0.07333333406663581 -0.06499999919302803 0
0.07333333406664069 -0.06166666590336864 0
0.07333333406664561 -0.05833333261370667 0
0.07333333406665049 -0.05499999932404382 0
0.0733333340666554 -0.05166666603438058 0
0.07333333406666032 -0.04833333274471904 0
0.0733333340666652 -0.04499999945505939 0
0.07333333406667011 -0.04166666616539024 0
0.07333333406667503 -0.03833333287571952 0
0.07333333406667991 -0.03499999958604817 0
0.07333333406668482 -0.03166666629637788 0
0.07333333406668974 -0.02833333300671013 0
0.07333333406669462 -0.02499999971703888 0
0.07333333406669951 -0.02166666642736726 0
0.07333333406670442 -0.01833333313769593 0
0.07333333406670933 -0.01499999984802485 0
0.07333333406671422 -0.0116666665583539 0
0.07333333406671913 -0.00833333326868378 0
0.07333333406672404 -0.004999999979014377 0
0.07333333406672893 -0.001666666689342551 0
0.07333333406673384 0.001666666600328619 0
0.07666666743327849 -0.09166666551033327 0
0.07666666743328246 -0.08833333222067065 0
0.07666666743328646 -0.08499999893100391 0
0.07666666743329041 -0.08166666564134194 0
0.07666666743329439 -0.07833333235168347 0
0.07666666743329839 -0.0749999990620209 0
0.07666666743330239 -0.07166666577235831 0
0.07666666743330638 -0.06833333248269562 0
0.07666666743331035 -0.06499999919303288 0
0.07666666743331435 -0.06166666590337426 0
0.07666666743331832 -0.05833333261371271 0
0.07666666743332232 -0.05499999932405037 0
0.07666666743332629 -0.05166666603438773 0
0.07666666743333025 -0.04833333274472684 0
0.07666666743333425 -0.04499999945506788 0
0.07666666743333825 -0.04166666616539803 0
0.07666666743334222 -0.03833333287572667 0
0.07666666743334621 -0.03499999958605475 0
0.07666666743335018 -0.03166666629638392 0
0.07666666743335418 -0.02833333300671576 0
0.07666666743335818 -0.02499999971704387 0
0.07666666743336215 -0.02166666642737167 0
0.07666666743336614 -0.01833333313769975 0
0.07666666743337011 -0.01499999984802811 0
0.07666666743337409 -0.01166666655835658 0
0.07666666743337811 -0.00833333326868577 0
0.07666666743338207 -0.004999999979015932 0
0.07666666743338604 -0.001666666689343633 0
0.07666666743339004 0.001666666600328089 0
0.08000000079995111 -0.09166666551033363 0
0.0800000007999546 -0.08833333222067161 0
0.08000000079995816 -0.08499999893100524 0
0.08000000079996168 -0.08166666564134376 0
0.08000000079996523 -0.07833333235168602 0
0.08000000079996877 -0.07499999906202401 0
0.0800000007999723 -0.071666665772362 0
0.08000000079997582 -0.06833333248269989 0
0.08000000079997939 -0.06499999919303774 0
0.08000000079998291 -0.06166666590337989 0
0.08000000079998645 -0.05833333261371877 0
0.08000000079998999 -0.05499999932405696 0
0.08000000079999353 -0.05166666603439488 0
0.08000000079999707 -0.04833333274473466 0
0.08000000080000058 -0.04499999945507636 0
0.08000000080000415 -0.04166666616540584 0
0.08000000080000767 -0.03833333287573382 0
0.08000000080001123 -0.03499999958606131 0
0.08000000080001475 -0.03166666629638998 0
0.08000000080001826 -0.02833333300672139 0
0.08000000080002183 -0.02499999971704886 0
0.08000000080002534 -0.02166666642737607 0
0.08000000080002886 -0.01833333313770358 0
0.08000000080003242 -0.01499999984803136 0
0.08000000080003598 -0.01166666655835926 0
0.08000000080003951 -0.008333333268687763 0
0.08000000080004303 -0.004999999979017487 0
0.0800000008000466 -0.001666666689344715 0
0.08000000080005011 0.00166666660032756 0
0.08333333416662413 -0.09166666551033402 0
0.08333333416662707 -0.08833333222067255 0
0.08333333416663007 -0.08499999893100657 0
0.08333333416663304 -0.08166666564134555 0
0.08333333416663598 -0.07833333235168859 0
0.08333333416663891 -0.0749999990620271 0
0.08333333416664192 -0.07166666577236566 0
0.08333333416664485 -0.06833333248270414 0
0.08333333416664782 -0.06499999919304257 0
0.0833333341666508 -0.06166666590338551 0
0.08333333416665374 -0.0583333326137248 0
0.0833333341666567 -0.05499999932406353 0
0.08333333416665965 -0.05166666603440202 0
0.08333333416666262 -0.04833333274474246 0
0.08333333416666558 -0.04499999945508486 0
0.08333333416666856 -0.04166666616541365 0
0.08333333416667149 -0.03833333287574098 0
0.08333333416667446 -0.03499999958606789 0
0.08333333416667744 -0.03166666629639602 0
0.08333333416668037 -0.02833333300672701 0
0.08333333416668334 -0.02499999971705385 0
0.08333333416668633 -0.02166666642738047 0
0.08333333416668927 -0.0183333331377074 0
0.08333333416669222 -0.01499999984803463 0
0.08333333416669521 -0.01166666655836194 0
0.08333333416669815 -0.008333333268689756 0
0.08333333416670113 -0.004999999979019036 0
0.08333333416670409 -0.001666666689345798 0
0.08333333416670705 0.001666666600327031 0
0.08666666753330338 -0.09166666551033439 0
0.08666666753330556 -0.08833333222067349 0
0.08666666753330765 -0.08499999893100792 0
0.08666666753330982 -0.08166666564134738 0
0.08666666753331194 -0.07833333235169117 0
0.08666666753331409 -0.07499999906203025 0
0.08666666753331621 -0.07166666577236937 0
0.08666666753331836 -0.06833333248270841 0
0.08666666753332049 -0.06499999919304746 0
0.0866666675333226 -0.06166666590339114 0
0.08666666753332475 -0.05833333261373085 0
0.08666666753332687 -0.0549999993240701 0
0.08666666753332905 -0.05166666603440917 0
0.08666666753333115 -0.04833333274475027 0
0.08666666753333327 -0.04499999945509335 0
0.08666666753333542 -0.04166666616542145 0
0.08666666753333756 -0.03833333287574812 0
0.08666666753333968 -0.03499999958607445 0
0.08666666753334183 -0.03166666629640205 0
0.08666666753334397 -0.02833333300673263 0
0.08666666753334608 -0.02499999971705884 0
0.08666666753334824 -0.02166666642738487 0
0.08666666753335035 -0.01833333313771122 0
0.08666666753335248 -0.01499999984803788 0
0.08666666753335463 -0.01166666655836462 0
0.08666666753335674 -0.008333333268691746 0
0.0866666675333589 -0.004999999979020588 0
0.08666666753336102 -0.001666666689346881 0
0.08666666753336318 0.001666666600326502 0
0.0900000008999728 -0.09166666551033475 0
0.09000000089997452 -0.08833333222067444 0
0.09000000089997623 -0.08499999893100924 0
0.09000000089997796 -0.0816666656413492 0
0.09000000089997968 -0.07833333235169372 0
0.09000000089998141 -0.0749999990620334 0
0.09000000089998315 -0.07166666577237304 0
0.09000000089998487 -0.06833333248271267 0
0.09000000089998657 -0.06499999919305229 0
0.09000000089998828 -0.06166666590339676 0
0.09000000089999005 -0.0583333326137369 0
0.09000000089999174 -0.05499999932407667 0
0.09000000089999345 -0.05166666603441633 0
0.0900000008999952 -0.04833333274475807 0
0.09000000089999695 -0.04499999945510182 0
0.09000000089999867 -0.04166666616542927 0
0.0900000009000004 -0.03833333287575526 0
0.09000000090000208 -0.03499999958608102 0
0.09000000090000379 -0.0316666662964081 0
0.09000000090000554 -0.02833333300673827 0
0.09000000090000729 -0.02499999971706383 0
0.09000000090000898 -0.02166666642738927 0
0.09000000090001073 -0.01833333313771505 0
0.09000000090001244 -0.01499999984804114 0
0.09000000090001416 -0.01166666655836729 0
0.09000000090001588 -0.008333333268693741 0
0.09000000090001761 -0.004999999979022143 0
0.09000000090001932 -0.001666666689347966 0
0.09000000090002103 0.001666666600325973 0
0.09333333426664644 -0.09166666551033516 0
0.09333333426664761 -0.08833333222067542 0
0.09333333426664883 -0.08499999893101058 0
0.09333333426665004 -0.08166666564135099 0
0.09333333426665122 -0.07833333235169627 0
0.09333333426665245 -0.0749999990620365 0
0.09333333426665363 -0.07166666577237674 0
0.09333333426665485 -0.06833333248271695 0
0.09333333426665605 -0.06499999919305717 0
0.09333333426665724 -0.0616666659034024 0
0.09333333426665846 -0.05833333261374293 0
0.09333333426665966 -0.05499999932408324 0
0.09333333426666085 -0.05166666603442349 0
0.09333333426666207 -0.04833333274476587 0
0.09333333426666326 -0.0449999994551103 0
0.09333333426666446 -0.04166666616543707 0
0.09333333426666565 -0.03833333287576241 0
0.09333333426666687 -0.0349999995860876 0
0.09333333426666807 -0.03166666629641414 0
0.09333333426666926 -0.02833333300674389 0
0.09333333426667048 -0.02499999971706883 0
0.0933333342666717 -0.02166666642739368 0
0.09333333426667287 -0.01833333313771887 0
0.09333333426667409 -0.0149999998480444 0
0.0933333342666753 -0.01166666655836997 0
0.09333333426667649 -0.008333333268695731 0
0.0933333342666777 -0.004999999979023699 0
0.09333333426667892 -0.001666666689349047 0
0.09333333426668011 0.001666666600325444 0
0.09666666763332586 -0.09166666551033555 0
0.09666666763332642 -0.08833333222067635 0
0.09666666763332697 -0.08499999893101193 0
0.09666666763332751 -0.08166666564135279 0
0.09666666763332808 -0.07833333235169886 0
0.09666666763332867 -0.07499999906203961 0
0.09666666763332918 -0.07166666577238044 0
0.09666666763332975 -0.06833333248272122 0
0.09666666763333029 -0.06499999919306201 0
0.09666666763333086 -0.06166666590340801 0
0.09666666763333145 -0.05833333261374896 0
0.09666666763333202 -0.05499999932408983 0
0.09666666763333255 -0.05166666603443062 0
0.09666666763333312 -0.04833333274477369 0
0.09666666763333366 -0.0449999994551188 0
0.09666666763333423 -0.04166666616544486 0
0.09666666763333479 -0.03833333287576958 0
0.09666666763333533 -0.03499999958609417 0
0.09666666763333588 -0.03166666629642018 0
0.09666666763333646 -0.02833333300674952 0
0.09666666763333702 -0.02499999971707382 0
0.09666666763333757 -0.02166666642739807 0
0.0966666676333381 -0.01833333313772269 0
0.09666666763333868 -0.01499999984804765 0
0.09666666763333924 -0.01166666655837265 0
0.0966666676333398 -0.008333333268697722 0
0.09666666763334035 -0.004999999979025254 0
0.09666666763334091 -0.00166666668935013 0
0.09666666763334146 0.001666666600324915 0
$EndNodes
$Elements
9 1024 1 1024
0 1 15 1
1 1 
0 2 15 1
2 2 
0 3 15 1
3 3 
0 4 15 1
4 4 
1 1 1 30
5 1 5 
6 5 6 
7 6 7 
8 7 8 
9 8 9 
10 9 10 
11 10 11 
12 11 12 
13 12 13 
14 13 14 
15 14 15 
16 15 16 
17 16 17 
18 17 18 
19 18 19 
20 19 20 
21 20 21 
22 21 22 
23 22 23 
24 23 24 
25 24 25 
26 25 26 
27 26 27 
28 27 28 
29 28 29 
30 29 30 
31 30 31 
32 31 32 
33 32 33 
34 33 2 
1 2 1 30
35 2 34 
36 34 35 
37 35 36 
38 36 37 
39 37 38 
40 38 39 
41 39 40 
42 40 41 
43 41 42 
44 42 43 
45 43 44 
46 44 45 
47 45 46 
48 46 47 
49 47 48 
50 48 49 
51 49 50 
52 50 51 
53 51 52 
54 52 53 
55 53 54 
56 54 55 
57 55 56 
58 56 57 
59 57 58 
60 58 59 
61 59 60 
62 60 61 
63 61 62 
64 62 3 
1 3 1 30
65 3 63 
66 63 64 
67 64 65 
68 65 66 
69 66 67 
70 67 68 
71 68 69 
72 69 70 
73 70 71 
74 71 72 
75 72 73 
76 73 74 
77 74 75 
78 75 76 
79 76 77 
80 77 78 
81 78 79 
82 79 80 
83 80 81 
84 81 82 
85 82 83 
86 83 84 
87 84 85 
88 85 86 
89 86 87 
90 87 88 
91 88 89 
92 89 90 
93 90 91 
94 91 4 
1 4 1 30
95 4 92 
96 92 93 
97 93 94 
98 94 95 
99 95 96 
100 96 97 
101 97 98 
102 98 99 
103 99 100 
104 100 101 
105 101 102 
106 102 103 
107 103 104 
108 104 105 
109 105 106 
110 106 107 
111 107 108 
112 108 109 
113 109 110 
114 110 111 
115 111 112 
116 112 113 
117 113 114 
118 114 115 
119 115 116 
120 116 117 
121 117 118 
122 118 119 
123 119 120 
124 120 1 
2 1 3 900
125 1 5 121 120 
126 120 121 122 119 
127 119 122 123 118 
128 118 123 124 117 
129 117 124 125 116 
130 116 125 126 115 
131 115 126 127 114 
132 114 127 128 113 
133 113 128 129 112 
134 112 129 130 111 
135 111 130 131 110 
136 110 131 132 109 
137 109 132 133 108 
138 108 133 134 107 
139 107 134 135 106 
140 106 135 136 105 
141 105 136 137 104 
142 104 137 138 103 
143 103 138 139 102 
144 102 139 140 101 
145 101 140 141 100 
146 100 141 142 99 
147 99 142 143 98 
148 98 143 144 97 
149 97 144 145 96 
150 96 145 146 95 
151 95 146 147 94 
152 94 147 148 93 
153 93 148 149 92 
154 92 149 91 4 
155 5 6 150 121 
156 121 150 151 122 
157 122 151 152 123 
158 123 152 153 124 
159 124 153 154 125 
160 125 154 155 126 
161 126 155 156 127 
162 127 156 157 128 
163 128 157 158 129 
164 129 158 159 130 
165 130 159 160 131 
166 131 160 161 132 
167 132 161 162 133 
168 133 162 163 134 
169 134 163 164 135 
170 135 164 165 136 
171 136 165 166 137 
172 137 166 167 138 
173 138 167 168 139 
174 139 168 169 140 
175 140 169 170 141 
176 141 170 171 142 
177 142 171 172 143 
178 143 172 173 144 
179 144 173 174 145 
180 145 174 175 146 
181 146 175 176 147 
182 147 176 177 148 
183 148 177 178 149 
184 149 178 90 91 
185 6 7 179 150 
186 150 179 180 151 
187 151 180 181 152 
188 152 181 182 153 
189 153 182 183 154 
190 154 183 184 155 
191 155 184 185 156 
192 156 185 186 157 
193 157 186 187 158 
194 158 187 188 159 
195 159 188 189 160 
196 160 189 190 161 
197 161 190 191 162 
198 162 191 192 163 
199 163 192 193 164 
200 164 193 194 165 
201 165 194 195 166 
202 166 195 196 167 
203 167 196 197 168 
204 168 197 198 169 
205 169 198 199 170 
206 170 199 200 171 
207 171 200 201 172 
208 172 201 202 173 
209 173 202 203 174 
210 174 203 204 175 
211 175 204 205 176 
212 176 205 206 177 
213 177 206 207 178 
214 178 207 89 90 
215 7 8 208 179 
216 179 208 209 180 
217 180 209 210 181 
218 181 210 211 182 
219 182 211 212 183 
220 183 212 213 184 
221 184 213 214 185 
222 185 214 215 186 
223 186 215 216 187 
224 187 216 217 188 
225 188 217 218 189 
226 189 218 219 190 
227 190 219 220 191 
228 191 220 221 192 
229 192 221 222 193 
230 193 222 223 194 
231 194 223 224 195 
232 195 224 225 196 
233 196 225 226 197 
234 197 226 227 198 
235 198 227 228 199 
236 199 228 229 200 
237 200 229 230 201 
238 201 230 231 202 
239 202 231 232 203 
240 203 232 233 204 
241 204 233 234 205 
242 205 234 235 206 
243 206 235 236 207 
244 207 236 88 89 
245 8 9 237 208 
246 208 237 238 209 
247 209 238 239 210 
248 210 239 240 211 
249 211 240 241 212 
250 212 241 242 213 
251 213 242 243 214 
252 214 243 244 215 
253 215 244 245 216 
254 216 245 246 217 
255 217 246 247 218 
256 218 247 248 219 
257 219 248 249 220 
258 220 249 250 221 
259 221 250 251 222 
260 222 251 252 223 
261 223 252 253 224 
262 224 253 254 225 
263 225 254 255 226 
264 226 255 256 227 
265 227 256 257 228 
266 228 257 258 229 
267 229 258 259 230 
268 230 259 260 231 
269 231 260 261 232 
270 232 261 262 233 
271 233 262 263 234 
272 234 263 264 235 
273 235 264 265 236 
274 236 265 87 88 
275 9 10 266 237 
276 237 266 267 238 
277 238 267 268 239 
278 239 268 269 240 
279 240 269 270 241 
280 241 270 271 242 
281 242 271 272 243 
282 243 272 273 244 
283 244 273 274 245 
284 245 274 275 246 
285 246 275 276 247 
286 247 276 277 248 
287 248 277 278 249 
288 249 278 279 250 
289 250 279 280 251 
290 251 280 281 252 
291 252 281 282 253 
292 253 282 283 254 
293 254 283 284 255 
294 255 284 285 256 
295 256 285 286 257 
296 257 286 287 258 
297 258 287 288 259 
298 259 288 289 260 
299 260 289 290 261 
300 261 290 291 262 
301 262 291 292 263 
302 263 292 293 264 
303 264 293 294 265 
304 265 294 86 87 
305 10 11 295 266 
306 266 295 296 267 
307 267 296 297 268 
308 268 297 298 269 
309 269 298 299 270 
310 270 299 300 271 
311 271 300 301 272 
312 272 301 302 273 
313 273 302 303 274 
314 274 303 304 275 
315 275 304 305 276 
316 276 305 306 277 
317 277 306 307 278 
318 278 307 308 279 
319 279 308 309 280 
320 280 309 310 281 
321 281 310 311 282 
322 282 311 312 283 
323 283 312 313 284 
324 284 313 314 285 
325 285 314 315 286 
326 286 315 316 287 
327 287 316 317 288 
328 288 317 318 289 
329 289 318 319 290 
330 290 319 320 291 
331 291 320 321 292 
332 292 321 322 293 
333 293 322 323 294 
334 294 323 85 86 
335 11 12 324 295 
336 295 324 325 296 
337 296 325 326 297 
338 297 326 327 298 
339 298 327 328 299 
340 299 328 329 300 
341 300 329 330 301 
342 301 330 331 302 
343 302 331 332 303 
344 303 332 333 304 
345 304 333 334 305 
346 305 334 335 306 
347 306 335 336 307 
348 307 336 337 308 
349 308 337 338 309 
350 309 338 339 310 
351 310 339 340 311 
352 311 340 341 312 
353 312 341 342 313 
354 313 342 343 314 
355 314 343 344 315 
356 315 344 345 316 
357 316 345 346 317 
358 317 346 347 318 
359 318 347 348 319 
360 319 348 349 320 
361 320 349 350 321 
362 321 350 351 322 
363 322 351 352 323 
364 323 352 84 85 
365 12 13 353 324 
366 324 353 354 325 
367 325 354 355 326 
368 326 355 356 327 
369 327 356 357 328 
370 328 357 358 329 
371 329 358 359 330 
372 330 359 360 331 
373 331 360 361 332 
374 332 361 362 333 
375 333 362 363 334 
376 334 363 364 335 
377 335 364 365 336 
378 336 365 366 337 
379 337 366 367 338 
380 338 367 368 339 
381 339 368 369 340 
382 340 369 370 341 
383 341 370 371 342 
384 342 371 372 343 
385 343 372 373 344 
386 344 373 374 345 
387 345 374 375 346 
388 346 375 376 347 
389 347 376 377 348 
390 348 377 378 349 
391 349 378 379 350 
392 350 379 380 351 
393 351 380 381 352 
394 352 381 83 84 
395 13 14 382 353 
396 353 382 383 354 
397 354 383 384 355 
398 355 384 385 356 
399 356 385 386 357 
400 357 386 387 358 
401 358 387 388 359 
402 359 388 389 360 
403 360 389 390 361 
404 361 390 391 362 
405 362 391 392 363 
406 363 392 393 364 
407 364 393 394 365 
408 365 394 395 366 
409 366 395 396 367 
410 367 396 397 368 
411 368 397 398 369 
412 369 398 399 370 
413 370 399 400 371 
414 371 400 401 372 
415 372 401 402 373 
416 373 402 403 374 
417 374 403 404 375 
418 375 404 405 376 
419 376 405 406 377 
420 377 406 407 378 
421 378 407 408 379 
422 379 408 409 380 
423 380 409 410 381 
424 381 410 82 83 
425 14 15 411 382 
426 382 411 412 383 
427 383 412 413 384 
428 384 413 414 385 
429 385 414 415 386 
430 386 415 416 387 
431 387 416 417 388 
432 388 417 418 389 
433 389 418 419 390 
434 390 419 420 391 
435 391 420 421 392 
436 392 421 422 393 
437 393 422 423 394 
438 394 423 424 395 
439 395 424 425 396 
440 396 425 426 397 
441 397 426 427 398 
442 398 427 428 399 
443 399 428 429 400 
444 400 429 430 401 
445 401 430 431 402 
446 402 431 432 403 
447 403 432 433 404 
448 404 433 434 405 
449 405 434 435 406 
450 406 435 436 407 
451 407 436 437 408 
452 408 437 438 409 
453 409 438 439 410 
454 410 439 81 82 
455 15 16 440 411 
456 411 440 441 412 
457 412 441 442 413 
458 413 442 443 414 
459 414 443 444 415 
460 415 444 445 416 
461 416 445 446 417 
462 417 446 447 418 
463 418 447 448 419 
464 419 448 449 420 
465 420 449 450 421 
466 421 450 451 422 
467 422 451 452 423 
468 423 452 453 424 
469 424 453 454 425 
470 425 454 455 426 
471 426 455 456 427 
472 427 456 457 428 
473 428 457 458 429 
474 429 458 459 430 
475 430 459 460 431 
476 431 460 461 432 
477 432 461 462 433 
478 433 462 463 434 
479 434 463 464 435 
480 435 464 465 436 
481 436 465 466 437 
482 437 466 467 438 
483 438 467 468 439 
484 439 468 80 81 
485 16 17 469 440 
486 440 469 470 441 
487 441 470 471 442 
488 442 471 472 443 
489 443 472 473 444 
490 444 473 474 445 
491 445 474 475 446 
492 446 475 476 447 
493 447 476 477 448 
494 448 477 478 449 
495 449 478 479 450 
496 450 479 480 451 
497 451 480 481 452 
498 452 481 482 453 
499 453 482 483 454 
500 454 483 484 455 
501 455 484 485 456 
502 456 485 486 457 
503 457 486 487 458 
504 458 487 488 459 
505 459 488 489 460 
506 460 489 490 461 
507 461 490 491 462 
508 462 491 492 463 
509 463 492 493 464 
510 464 493 494 465 
511 465 494 495 466 
512 466 495 496 467 
513 467 496 497 468 
514 468 497 79 80 
515 17 18 498 469 
516 469 498 499 470 
517 470 499 500 471 
518 471 500 501 472 
519 472 501 502 473 
520 473 502 503 474 
521 474 503 504 475 
522 475 504 505 476 
523 476 505 506 477 
524 477 506 507 478 
525 478 507 508 479 
526 479 508 509 480 
527 480 509 510 481 
528 481 510 511 482 
529 482 511 512 483 
530 483 512 513 484 
531 484 513 514 485 
532 485 514 515 486 
533 486 515 516 487 
534 487 516 517 488 
535 488 517 518 489 
536 489 518 519 490 
537 490 519 520 491 
538 491 520 521 492 
539 492 521 522 493 
540 493 522 523 494 
541 494 523 524 495 
542 495 524 525 496 
543 496 525 526 497 
544 497 526 78 79 
545 18 19 527 498 
546 498 527 528 499 
547 499 528 529 500 
548 500 529 530 501 
549 501 530 531 502 
550 502 531 532 503 
551 503 532 533 504 
552 504 533 534 505 
553 505 534 535 506 
554 506 535 536 507 
555 507 536 537 508 
556 508 537 538 509 
557 509 538 539 510 
558 510 539 540 511 
559 511 540 541 512 
560 512 541 542 513 
561 513 542 543 514 
562 514 543 544 515 
563 515 544 545 516 
564 516 545 546 517 
565 517 546 547 518 
566 518 547 548 519 
567 519 548 549 520 
568 520 549 550 521 
569 521 550 551 522 
570 522 551 552 523 
571 523 552 553 524 
572 524 553 554 525 
573 525 554 555 526 
574 526 555 77 78 
575 19 20 556 527 
576 527 556 557 528 
577 528 557 558 529 
578 529 558 559 530 
579 530 559 560 531 
580 531 560 561 532 
581 532 561 562 533 
582 533 562 563 534 
583 534 563 564 535 
584 535 564 565 536 
585 536 565 566 537 
586 537 566 567 538 
587 538 567 568 539 
588 539 568 569 540 
589 540 569 570 541 
590 541 570 571 542 
591 542 571 572 543 
592 543 572 573 544 
593 544 573 574 545 
594 545 574 575 546 
595 546 575 576 547 
596 547 576 577 548 
597 548 577 578 549 
598 549 578 579 550 
599 550 579 580 551 
600 551 580 581 552 
601 552 581 582 553 
602 553 582 583 554 
603 554 583 584 555 
604 555 584 76 77 
605 20 21 585 556 
606 556 585 586 557 
607 557 586 587 558 
608 558 587 588 559 
609 559 588 589 560 
610 560 589 590 561 
611 561 590 591 562 
612 562 591 592 563 
613 563 592 593 564 
614 564 593 594 565 
615 565 594 595 566 
616 566 595 596 567 
617 567 596 597 568 
618 568 597 598 569 
619 569 598 599 570 
620 570 599 600 571 
621 571 600 601 572 
622 572 601 602 573 
623 573 602 603 574 
624 574 603 604 575 
625 575 604 605 576 
626 576 605 606 577 
627 577 606 607 578 
628 578 607 608 579 
629 579 608 609 580 
630 580 609 610 581 
631 581 610 611 582 
632 582 611 612 583 
633 583 612 613 584 
634 584 613 75 76 
635 21 22 614 585 
636 585 614 615 586 
637 586 615 616 587 
638 587 616 617 588 
639 588 617 618 589 
640 589 618 619 590 
641 590 619 620 591 
642 591 620 621 592 
643 592 621 622 593 
644 593 622 623 594 
645 594 623 624 595 
646 595 624 625 596 
647 596 625 626 597 
648 597 626 627 598 
649 598 627 628 599 
650 599 628 629 600 
651 600 629 630 601 
652 601 630 631 602 
653 602 631 632 603 
654 603 632 633 604 
655 604 633 634 605 
656 605 634 635 606 
657 606 635 636 607 
658 607 636 637 608 
659 608 637 638 609 
660 609 638 639 610 
661 610 639 640 611 
662 611 640 641 612 
663 612 641 642 613 
664 613 642 74 75 
665 22 23 643 614 
666 614 643 644 615 
667 615 644 645 616 
668 616 645 646 617 
669 617 646 647 618 
670 618 647 648 619 
671 619 648 649 620 
672 620 649 650 621 
673 621 650 651 622 
674 622 651 652 623 
675 623 652 653 624 
676 624 653 654 625 
677 625 654 655 626 
678 626 655 656 627 
679 627 656 657 628 
680 628 657 658 629 
681 629 658 659 630 
682 630 659 660 631 
683 631 660 661 632 
684 632 661 662 633 
685 633 662 663 634 
686 634 663 664 635 
687 635 664 665 636 
688 636 665 666 637 
689 637 666 667 638 
690 638 667 668 639 
691 639 668 669 640 
692 640 669 670 641 
693 641 670 671 642 
694 642 671 73 74 
695 23 24 672 643 
696 643 672 673 644 
697 644 673 674 645 
698 645 674 675 646 
699 646 675 676 647 
700 647 676 677 648 
701 648 677 678 649 
702 649 678 679 650 
703 650 679 680 651 
704 651 680 681 652 
705 652 681 682 653 
706 653 682 683 654 
707 654 683 684 655 
708 655 684 685 656 
709 656 685 686 657 
710 657 686 687 658 
711 658 687 688 659 
712 659 688 689 660 
713 660 689 690 661 
714 661 690 691 662 
715 662 691 692 663 
716 663 692 693 664 
717 664 693 694 665 
718 665 694 695 666 
719 666 695 696 667 
720 667 696 697 668 
721 668 697 698 669 
722 669 698 699 670 
723 670 699 700 671 
724 671 700 72 73 
725 24 25 701 672 
726 672 701 702 673 
727 673 702 703 674 
728 674 703 704 675 
729 675 704 705 676 
730 676 705 706 677 
731 677 706 707 678 
732 678 707 708 679 
733 679 708 709 680 
734 680 709 710 681 
735 681 710 711 682 
736 682 711 712 683 
737 683 712 713 684 
738 684 713 714 685 
739 685 714 715 686 
740 686 715 716 687 
741 687 716 717 688 
742 688 717 718 689 
743 689 718 719 690 
744 690 719 720 691 
745 691 720 721 692 
746 692 721 722 693 
747 693 722 723 694 
748 694 723 724 695 
749 695 724 725 696 
750 696 725 726 697 
751 697 726 727 698 
752 698 727 728 699 
753 699 728 729 700 
754 700 729 71 72 
755 25 26 730 701 
756 701 730 731 702 
757 702 731 732 703 
758 703 732 733 704 
759 704 733 734 705 
760 705 734 735 706 
761 706 735 736 707 
762 707 736 737 708 
763 708 737 738 709 
764 709 738 739 710 
765 710 739 740 711 
766 711 740 741 712 
767 712 741 742 713 
768 713 742 743 714 
769 714 743 744 715 
770 715 744 745 716 
771 716 745 746 717 
772 717 746 747 718 
773 718 747 748 719 
774 719 748 749 720 
775 720 749 750 721 
776 721 750 751 722 
777 722 751 752 723 
778 723 752 753 724 
779 724 753 754 725 
780 725 754 755 726 
781 726 755 756 727 
782 727 756 757 728 
783 728 757 758 729 
784 729 758 70 71 
785 26 27 759 730 
786 730 759 760 731 
787 731 760 761 732 
788 732 761 762 733 
789 733 762 763 734 
790 734 763 764 735 
791 735 764 765 736 
792 736 765 766 737 
793 737 766 767 738 
794 738 767 768 739 
795 739 768 769 740 
796 740 769 770 741 
797 741 770 771 742 
798 742 771 772 743 
799 743 772 773 744 
800 744 773 774 745 
801 745 774 775 746 
802 746 775 776 747 
803 747 776 777 748 
804 748 777 778 749 
805 749 778 779 750 
806 750 779 780 751 
807 751 780 781 752 
808 752 781 782 753 
809 753 782 783 754 
810 754 783 784 755 
811 755 784 785 756 
812 756 785 786 757 
813 757 786 787 758 
814 758 787 69 70 
815 27 28 788 759 
816 759 788 789 760 
817 760 789 790 761 
818 761 790 791 762 
819 762 791 792 763 
820 763 792 793 764 
821 764 793 794 765 
822 765 794 795 766 
823 766 795 796 767 
824 767 796 797 768 
825 768 797 798 769 
826 769 798 799 770 
827 770 799 800 771 
828 771 800 801 772 
829 772 801 802 773 
830 773 802 803 774 
831 774 803 804 775 
832 775 804 805 776 
833 776 805 806 777 
834 777 806 807 778 
835 778 807 808 779 
836 779 808 809 780 
837 780 809 810 781 
838 781 810 811 782 
839 782 811 812 783 
840 783 812 813 784 
841 784 813 814 785 
842 785 814 815 786 
843 786 815 816 787 
844 787 816 68 69 
845 28 29 817 788 
846 788 817 818 789 
847 789 818 819 790 
848 790 819 820 791 
849 791 820 821 792 
850 792 821 822 793 
851 793 822 823 794 
852 794 823 824 795 
853 795 824 825 796 
854 796 825 826 797 
855 797 826 827 798 
856 798 827 828 799 
857 799 828 829 800 
858 800 829 830 801 
859 801 830 831 802 
860 802 831 832 803 
861 803 832 833 804 
862 804 833 834 805 
863 805 834 835 806 
864 806 835 836 807 
865 807 836 837 808 
866 808 837 838 809 
867 809 838 839 810 
868 810 839 840 811 
869 811 840 841 812 
870 812 841 842 813 
871 813 842 843 814 
872 814 843 844 815 
873 815 844 845 816 
874 816 845 67 68 
875 29 30 846 817 
876 817 846 847 818 
877 818 847 848 819 
878 819 848 849 820 
879 820 849 850 821 
880 821 850 851 822 
881 822 851 852 823 
882 823 852 853 824 
883 824 853 854 825 
884 825 854 855 826 
885 826 855 856 827 
886 827 856 857 828 
887 828 857 858 829 
888 829 858 859 830 
889 830 859 860 831 
890 831 860 861 832 
891 832 861 862 833 
892 833 862 863 834 
893 834 863 864 835 
894 835 864 865 836 
895 836 865 866 837 
896 837 866 867 838 
897 838 867 868 839 
898 839 868 869 840 
899 840 869 870 841 
900 841 870 871 842 
901 842 871 872 843 
902 843 872 873 844 
903 844 873 874 845 
904 845 874 66 67 
905 30 31 875 846 
906 846 875 876 847 
907 847 876 877 848 
908 848 877 878 849 
909 849 878 879 850 
910 850 879 880 851 
911 851 880 881 852 
912 852 881 882 853 
913 853 882 883 854 
914 854 883 884 855 
915 855 884 885 856 
916 856 885 886 857 
917 857 886 887 858 
918 858 887 888 859 
919 859 888 889 860 
920 860 889 890 861 
921 861 890 891 862 
922 862 891 892 863 
923 863 892 893 864 
924 864 893 894 865 
925 865 894 895 866 
926 866 895 896 867 
927 867 896 897 868 
928 868 897 898 869 
929 869 898 899 870 
930 870 899 900 871 
931 871 900 901 872 
932 872 901 902 873 
933 873 902 903 874 
934 874 903 65 66 
935 31 32 904 875 
936 875 904 905 876 
937 876 905 906 877 
938 877 906 907 878 
939 878 907 908 879 
940 879 908 909 880 
941 880 909 910 881 
942 881 910 911 882 
943 882 911 912 883 
944 883 912 913 884 
945 884 913 914 885 
946 885 914 915 886 
947 886 915 916 887 
948 887 916 917 888 
949 888 917 918 889 
950 889 918 919 890 
951 890 919 920 891 
952 891 920 921 892 
953 892 921 922 893 
954 893 922 923 894 
955 894 923 924 895 
956 895 924 925 896 
957 896 925 926 897 
958 897 926 927 898 
959 898 927 928 899 
960 899 928 929 900 
961 900 929 930 901 
962 901 930 931 902 
963 902 931 932 903 
964 903 932 64 65 
965 32 33 933 904 
966 904 933 934 905 
967 905 934 935 906 
968 906 935 936 907 
969 907 936 937 908 
970 908 937 938 909 
971 909 938 939 910 
972 910 939 940 911 
973 911 940 941 912 
974 912 941 942 913 
975 913 942 943 914 
976 914 943 944 915 
977 915 944 945 916 
978 916 945 946 917 
979 917 946 947 918 
980 918 947 948 919 
981 919 948 949 920 
982 920 949 950 921 
983 921 950 951 922 
984 922 951 952 923 
985 923 952 953 924 
986 924 953 954 925 
987 925 954 955 926 
988 926 955 956 927 
989 927 956 957 928 
990 928 957 958 929 
991 929 958 959 930 
992 930 959 960 931 
993 931 960 961 932 
994 932 961 63 64 
995 33 2 34 933 
996 933 34 35 934 
997 934 35 36 935 
998 935 36 37 936 
999 936 37 38 937 
1000 937 38 39 938 
1001 938 39 40 939 
1002 939 40 41 940 
1003 940 41 42 941 
1004 941 42 43 942 
1005 942 43 44 943 
1006 943 44 45 944 
1007 944 45 46 945 
1008 945 46 47 946 
1009 946 47 48 947 
1010 947 48 49 948 
1011 948 49 50 949 
1012 949 50 51 950 
1013 950 51 52 951 
1014 951 52 53 952 
1015 952 53 54 953 
1016 953 54 55 954 
1017 954 55 56 955 
1018 955 56 57 956 
1019 956 57 58 957 
1020 957 58 59 958 
1021 958 59 60 959 
1022 959 60 61 960 
1023 960 61 62 961 
1024 961 62 3 63 
$EndElements
