$MeshFormat
4.1 0 8
$EndMeshFormat
$Entities
4 4 1 0
1 0 -0.0949999988 0 0 
2 0.100000001 -0.0949999988 0 0 
3 0.100000001 0.00499999989 0 0 
4 0 0.00499999989 0 0 
1 0 -0.0949999988 0 0.100000001 -0.0949999988 0 0 2 1 -2 
2 0.100000001 -0.0949999988 0 0.100000001 0.004999999889999995 0 0 2 2 -3 
3 0 0.00499999989 0 0.100000001 0.00499999989 0 0 2 3 -4 
4 0 -0.0949999988 0 0 0.004999999890000002 0 0 2 4 -1 
1 0 -0.0949999988 0 0.100000001 0.004999999890000002 0 0 4 1 2 3 4 
$EndEntities
$Nodes
9 36 1 36
0 1 0 1
1
0 -0.0949999988 0
0 2 0 1
2
0.100000001 -0.0949999988 0
0 3 0 1
3
0.100000001 0.00499999989 0
0 4 0 1
4
0 0.00499999989 0
1 1 0 4
5
6
7
8
0.02000000019995474 -0.0949999988 0
0.04000000039989572 -0.0949999988 0
0.06000000059989264 -0.0949999988 0
0.08000000079994754 -0.0949999988 0
1 2 0 4
9
10
11
12
0.100000001 -0.07499999906204276 0
0.100000001 -0.0549999993240964 0
0.100000001 -0.03499999958610075 0
0.100000001 -0.01499999984805091 0
1 3 0 4
13
14
15
16
0.08000000080005365 0.00499999989 0
0.06000000060010945 0.00499999989 0
0.04000000040011079 0.00499999989 0
0.02000000020005417 0.00499999989 0
1 4 0 4
17
18
19
20
0 -0.01499999984795319 0
0 -0.0349999995859036 0
0 -0.05499999932389925 0
0 -0.0749999990619491 0
2 1 0 16
21
22
23
24
25
26
27
28
29
30
31
32
33
34
35
36
0.02000000019997463 -0.07499999906196782 0
0.02000000019999452 -0.05499999932393867 0
0.0200000002000144 -0.03499999958594302 0
0.02000000020003428 -0.01499999984797273 0
0.04000000039993874 -0.07499999906198654 0
0.04000000039998176 -0.05499999932397811 0
0.04000000040002477 -0.03499999958598247 0
0.04000000040006777 -0.01499999984799227 0
0.06000000059993601 -0.07499999906200529 0
0.06000000059997937 -0.05499999932401752 0
0.06000000060002272 -0.03499999958602187 0
0.06000000060006608 -0.01499999984801182 0
0.08000000079996876 -0.07499999906202401 0
0.08000000079998998 -0.05499999932405696 0
0.0800000008000112 -0.03499999958606131 0
0.08000000080003243 -0.01499999984803136 0
$EndNodes
$Elements
9 49 1 49
0 1 15 1
1 1 
0 2 15 1
2 2 
0 3 15 1
3 3 
0 4 15 1
4 4 
1 1 1 5
5 1 5 
6 5 6 
7 6 7 
8 7 8 
9 8 2 
1 2 1 5
10 2 9 
11 9 10 
12 10 11 
13 11 12 
14 12 3 
1 3 1 5
15 3 13 
16 13 14 
17 14 15 
18 15 16 
19 16 4 
1 4 1 5
20 4 17 
21 17 18 
22 18 19 
23 19 20 
24 20 1 
2 1 3 25
25 1 5 21 20 
26 20 21 22 19 
27 19 22 23 18 
28 18 23 24 17 
29 17 24 16 4 
30 5 6 25 21 
31 21 25 26 22 
32 22 26 27 23 
33 23 27 28 24 
34 24 28 15 16 
35 6 7 29 25 
36 25 29 30 26 
37 26 30 31 27 
38 27 31 32 28 
39 28 32 14 15 
40 7 8 33 29 
41 29 33 34 30 
42 30 34 35 31 
43 31 35 36 32 
44 32 36 13 14 
45 8 2 9 33 
46 33 9 10 34 
47 34 10 11 35 
48 35 11 12 36 
49 36 12 3 13 
$EndElements
