$MeshFormat
4.1 0 8
$EndMeshFormat
$Entities
5 4 1 0
1 0 0.1 0 0 
2 0.1 0 0 0 
3 0 -0.1 0 0 
4 -0.1 0 0 0 
5 0 0 0 0 
1 0 6.938893903907228e-18 0 0.1 0.1 0 0 2 1 -2 
2 6.938893903907228e-18 -0.1 0 0.1 0 0 0 2 2 -3 
3 -0.1 -0.1 0 0 -6.938893903907228e-18 0 0 2 3 -4 
4 -0.1 0 0 -6.938893903907228e-18 0.1 0 0 2 4 -1 
1 -0.1 -0.1 0 0.1 0.1 0 0 4 1 2 3 4 
$EndEntities
$Nodes
10 9 1 9
0 1 0 1
1
0 0.1 0
0 2 0 1
2
0.1 0 0
0 3 0 1
3
0 -0.1 0
0 4 0 1
4
-0.1 0 0
0 5 0 1
5
0 0 0
1 1 0 1
6
0.0707106782866362 0.0707106779506733 0
1 2 0 1
7
0.0707106779506733 -0.0707106782866362 0
1 3 0 1
8
-0.0707106782866362 -0.0707106779506733 0
1 4 0 1
9
-0.0707106779506733 0.0707106782866362 0
$EndNodes
$Elements
10 21 1 21
0 1 15 1
1 1 
0 2 15 1
2 2 
0 3 15 1
3 3 
0 4 15 1
4 4 
0 5 15 1
5 5 
1 1 1 2
6 1 6 
7 6 2 
1 2 1 2
8 2 7 
9 7 3 
1 3 1 2
10 3 8 
11 8 4 
1 4 1 2
12 4 9 
13 9 1 
2 1 2 8
14 6 5 1 
15 7 5 2 
16 8 5 3 
17 9 5 4 
18 5 9 1 
19 5 6 2 
20 5 7 3 
21 5 8 4 
$EndElements
