$MeshFormat
4.1 0 8
$EndMeshFormat
$PhysicalNames
2
0 1 "Boundary"
0 2 "NonBoundary"
$EndPhysicalNames
$Entities
16 36 9 0
1 0.100000001 0.00499999989 0 1 1 
2 0.06666667010000001 0.00499999989 0 1 1 
3 0.0333333351 0.00499999989 0 1 1 
4 0 0.00499999989 0 1 1 
5 0.100000001 -0.0283333343 0 1 1 
6 0.06666667010000001 -0.0283333343 0 1 2 
7 0.0333333351 -0.0283333343 0 1 2 
8 0 -0.0283333343 0 1 1 
9 0.100000001 -0.0616666675 0 1 1 
10 0.06666667010000001 -0.0616666675 0 1 2 
11 0.0333333351 -0.0616666675 0 1 2 
12 0 -0.0616666675 0 1 1 
13 0.100000001 -0.0949999988 0 1 1 
14 0.06666667010000001 -0.0949999988 0 1 1 
15 0.0333333351 -0.0949999988 0 1 1 
16 0 -0.0949999988 0 1 1 
1 0.06666667010000001 0.00499999989 0 0.100000001 0.00499999989 0 0 2 1 -2 
2 0.06666667010000001 -0.0283333343 0 0.06666667010000001 0.004999999889999999 0 0 2 2 -6 
3 0.06666667010000001 -0.0283333343 0 0.100000001 -0.0283333343 0 0 2 6 -5 
4 0.100000001 -0.0283333343 0 0.100000001 0.004999999890000002 0 0 2 5 -1 
5 0.0333333351 0.00499999989 0 0.06666667010000001 0.00499999989 0 0 2 2 -3 
6 0.0333333351 -0.0283333343 0 0.0333333351 0.004999999889999999 0 0 2 3 -7 
7 0.0333333351 -0.0283333343 0 0.06666667010000001 -0.0283333343 0 0 2 7 -6 
8 0.06666667010000001 -0.0283333343 0 0.06666667010000001 0.004999999890000002 0 0 2 6 -2 
9 0 0.00499999989 0 0.0333333351 0.00499999989 0 0 2 3 -4 
10 0 -0.0283333343 0 0 0.004999999889999999 0 0 2 4 -8 
11 0 -0.0283333343 0 0.0333333351 -0.0283333343 0 0 2 8 -7 
12 0.0333333351 -0.0283333343 0 0.0333333351 0.004999999890000002 0 0 2 7 -3 
13 0.06666667010000001 -0.0283333343 0 0.100000001 -0.0283333343 0 0 2 5 -6 
14 0.06666667010000001 -0.0616666675 0 0.06666667010000001 -0.0283333343 0 0 2 6 -10 
15 0.06666667010000001 -0.0616666675 0 0.100000001 -0.0616666675 0 0 2 10 -9 
16 0.100000001 -0.0616666675 0 0.100000001 -0.0283333343 0 0 2 9 -5 
17 0.0333333351 -0.0283333343 0 0.06666667010000001 -0.0283333343 0 0 2 6 -7 
18 0.0333333351 -0.0616666675 0 0.0333333351 -0.0283333343 0 0 2 7 -11 
19 0.0333333351 -0.0616666675 0 0.06666667010000001 -0.0616666675 0 0 2 11 -10 
20 0.06666667010000001 -0.0616666675 0 0.06666667010000001 -0.0283333343 0 0 2 10 -6 
21 0 -0.0283333343 0 0.0333333351 -0.0283333343 0 0 2 7 -8 
22 0 -0.0616666675 0 0 -0.0283333343 0 0 2 8 -12 
23 0 -0.0616666675 0 0.0333333351 -0.0616666675 0 0 2 12 -11 
24 0.0333333351 -0.0616666675 0 0.0333333351 -0.0283333343 0 0 2 11 -7 
25 0.06666667010000001 -0.0616666675 0 0.100000001 -0.0616666675 0 0 2 9 -10 
26 0.06666667010000001 -0.0949999988 0 0.06666667010000001 -0.0616666675 0 0 2 10 -14 
27 0.06666667010000001 -0.0949999988 0 0.100000001 -0.0949999988 0 0 2 14 -13 
28 0.100000001 -0.0949999988 0 0.100000001 -0.0616666675 0 0 2 13 -9 
29 0.0333333351 -0.0616666675 0 0.06666667010000001 -0.0616666675 0 0 2 10 -11 
30 0.0333333351 -0.0949999988 0 0.0333333351 -0.0616666675 0 0 2 11 -15 
31 0.0333333351 -0.0949999988 0 0.06666667010000001 -0.0949999988 0 0 2 15 -14 
32 0.06666667010000001 -0.0949999988 0 0.06666667010000001 -0.0616666675 0 0 2 14 -10 
33 0 -0.0616666675 0 0.0333333351 -0.0616666675 0 0 2 11 -12 
34 0 -0.0949999988 0 0 -0.0616666675 0 0 2 12 -16 
35 0 -0.0949999988 0 0.0333333351 -0.0949999988 0 0 2 16 -15 
36 0.0333333351 -0.0949999988 0 0.0333333351 -0.0616666675 0 0 2 15 -11 
1 0.06666667010000001 -0.02833333430000001 0 0.100000001 0.004999999890000004 0 0 4 1 2 3 4 
2 0.0333333351 -0.02833333430000001 0 0.06666667010000001 0.004999999890000004 0 0 4 5 6 7 8 
3 0 -0.02833333430000001 0 0.0333333351 0.004999999890000004 0 0 4 9 10 11 12 
4 0.06666667010000001 -0.0616666675 0 0.100000001 -0.0283333343 0 0 4 13 14 15 16 
5 0.0333333351 -0.0616666675 0 0.06666667010000001 -0.0283333343 0 0 4 17 18 19 20 
6 0 -0.0616666675 0 0.0333333351 -0.0283333343 0 0 4 21 22 23 24 
7 0.06666667010000001 -0.0949999988 0 0.100000001 -0.0616666675 0 0 4 25 26 27 28 
8 0.0333333351 -0.0949999988 0 0.06666667010000001 -0.0616666675 0 0 4 29 30 31 32 
9 0 -0.0949999988 0 0.0333333351 -0.0616666675 0 0 4 33 34 35 36 
$EndEntities
$Nodes
16 16 1 16
0 1 0 1
1
0.100000001 0.00499999989 0
0 2 0 1
2
0.06666667010000001 0.00499999989 0
0 3 0 1
3
0.0333333351 0.00499999989 0
0 4 0 1
4
0 0.00499999989 0
0 5 0 1
5
0.100000001 -0.0283333343 0
0 6 0 1
6
0.06666667010000001 -0.0283333343 0
0 7 0 1
7
0.0333333351 -0.0283333343 0
0 8 0 1
8
0 -0.0283333343 0
0 9 0 1
9
0.100000001 -0.0616666675 0
0 10 0 1
10
0.06666667010000001 -0.0616666675 0
0 11 0 1
11
0.0333333351 -0.0616666675 0
0 12 0 1
12
0 -0.0616666675 0
0 13 0 1
13
0.100000001 -0.0949999988 0
0 14 0 1
14
0.06666667010000001 -0.0949999988 0
0 15 0 1
15
0.0333333351 -0.0949999988 0
0 16 0 1
16
0 -0.0949999988 0
$EndNodes
$Elements
16 16 1 16
0 1 15 1
1 1 
0 2 15 1
2 2 
0 3 15 1
3 3 
0 4 15 1
4 4 
0 5 15 1
5 5 
0 6 15 1
6 6 
0 7 15 1
7 7 
0 8 15 1
8 8 
0 9 15 1
9 9 
0 10 15 1
10 10 
0 11 15 1
11 11 
0 12 15 1
12 12 
0 13 15 1
13 13 
0 14 15 1
14 14 
0 15 15 1
15 15 
0 16 15 1
16 16 
$EndElements
