$MeshFormat
4.1 0 8
$EndMeshFormat
$PhysicalNames
4
1 4 "bc"
2 1 "copper"
2 2 "styrofoam"
2 3 "steel"
$EndPhysicalNames
$Entities
17 28 13 0
1 0 0 0 0 
2 0.15 0 0 0 
3 9.184850993605149e-18 0.15 0 0 
4 -0.15 1.83697019872103e-17 0 0 
5 -2.755455298081544e-17 -0.15 0 0 
6 0.2 0 0 0 
7 1.224646799147353e-17 0.2 0 0 
8 -0.2 2.449293598294707e-17 0 0 
9 -3.673940397442059e-17 -0.2 0 0 
10 0.25 0 0 0 
11 1.530808498934192e-17 0.25 0 0 
12 -0.25 3.061616997868383e-17 0 0 
13 -4.592425496802574e-17 -0.25 0 0 
14 0.0375 0 0 0 
15 2.296212748401287e-18 0.0375 0 0 
16 -0.0375 4.592425496802574e-18 0 0 
17 -6.888638245203861e-18 -0.0375 0 0 
1 1.387778780781446e-17 0 0 0.15 0.15 0 0 2 2 -3 
2 -0.15 1.387778780781446e-17 0 1.387778780781446e-17 0.15 0 0 2 3 -4 
3 -0.15 -0.15 0 -2.775557561562891e-17 1.387778780781446e-17 0 0 2 4 -5 
4 -2.775557561562891e-17 -0.15 0 0.15 0 0 0 2 5 -2 
5 1.387778780781446e-17 0 0 0.2 0.2 0 0 2 6 -7 
6 -0.2 2.775557561562891e-17 0 1.387778780781446e-17 0.2 0 0 2 7 -8 
7 -0.2 -0.2 0 -4.163336342344337e-17 2.775557561562891e-17 0 0 2 8 -9 
8 -4.163336342344337e-17 -0.2 0 0.2 0 0 0 2 9 -6 
9 1.387778780781446e-17 0 0 0.25 0.25 0 1 4 2 10 -11 
10 -0.25 2.775557561562891e-17 0 1.387778780781446e-17 0.25 0 1 4 2 11 -12 
11 -0.25 -0.25 0 -4.163336342344337e-17 4.163336342344337e-17 0 1 4 2 12 -13 
12 -5.551115123125783e-17 -0.25 0 0.25 0 0 1 4 2 13 -10 
13 0.15 0 0 0.2 0 0 0 2 2 -6 
14 9.184850993605149e-18 0.15 0 1.224646799147353e-17 0.2 0 0 2 3 -7 
15 -0.2 1.83697019872103e-17 0 -0.15 2.449293598294707e-17 0 0 2 4 -8 
16 -3.673940397442059e-17 -0.2 0 -2.755455298081544e-17 -0.15 0 0 2 5 -9 
17 0.2 0 0 0.25 0 0 0 2 6 -10 
18 1.224646799147353e-17 0.2 0 1.530808498934192e-17 0.25 0 0 2 7 -11 
19 -0.25 2.449293598294707e-17 0 -0.2 3.061616997868383e-17 0 0 2 8 -12 
20 -4.592425496802574e-17 -0.25 0 -3.673940397442059e-17 -0.2 0 0 2 9 -13 
21 0.0375 0 0 0.15 0 0 0 2 14 -2 
22 2.296212748401287e-18 0.0375 0 9.184850993605149e-18 0.15 0 0 2 15 -3 
23 -0.15 4.592425496802574e-18 0 -0.0375 1.83697019872103e-17 0 0 2 16 -4 
24 -2.755455298081544e-17 -0.15 0 -6.888638245203862e-18 -0.0375 0 0 2 17 -5 
25 0 0 0 0.0375 0.0375 0 0 2 14 -15 
26 -0.0375 6.938893903907228e-18 0 3.469446951953614e-18 0.0375 0 0 2 15 -16 
27 -0.0375 -0.0375 0 -6.938893903907228e-18 3.469446951953614e-18 0 0 2 16 -17 
28 -6.938893903907228e-18 -0.0375 0 0.0375 0 0 0 2 17 -14 
1 -0.0375 -0.0375 0 0.0375 0.0375 0 1 1 4 25 26 27 28 
2 0 0 0 0.15 0.15 0 1 1 4 21 1 -22 -25 
3 -0.15 0 0 1.387778780781446e-17 0.15 0 1 1 4 22 2 -23 -26 
4 -0.15 -0.15 0 0 1.387778780781446e-17 0 1 1 4 23 3 -24 -27 
5 -2.775557561562891e-17 -0.15 0 0.15 0 0 1 1 4 24 4 -21 -28 
6 1.387778780781446e-17 0 0 0.2 0.2 0 1 2 4 5 -14 -1 13 
7 1.387778780781446e-17 0 0 0.25 0.25 0 1 3 4 9 -18 -5 17 
8 -0.2 1.387778780781446e-17 0 1.387778780781446e-17 0.2 0 1 2 4 6 -15 -2 14 
9 -0.25 2.775557561562891e-17 0 1.387778780781446e-17 0.25 0 1 3 4 10 -19 -6 18 
10 -0.2 -0.2 0 -2.775557561562891e-17 2.775557561562891e-17 0 1 2 4 7 -16 -3 15 
11 -0.25 -0.25 0 -4.163336342344337e-17 4.163336342344337e-17 0 1 3 4 11 -20 -7 19 
12 -4.163336342344337e-17 -0.2 0 0.2 0 0 1 2 4 8 -13 -4 16 
13 -5.551115123125783e-17 -0.25 0 0.25 0 0 1 3 4 12 -17 -8 20 
$EndEntities
$Nodes
57 599 1 599
0 2 0 1
1
0.15 0 0
0 3 0 1
2
9.184850993605149e-18 0.15 0
0 4 0 1
3
-0.15 1.83697019872103e-17 0
0 5 0 1
4
-2.755455298081544e-17 -0.15 0
0 6 0 1
5
0.2 0 0
0 7 0 1
6
1.224646799147353e-17 0.2 0
0 8 0 1
7
-0.2 2.449293598294707e-17 0
0 9 0 1
8
-3.673940397442059e-17 -0.2 0
0 10 0 1
9
0.25 0 0
0 11 0 1
10
1.530808498934192e-17 0.25 0
0 12 0 1
11
-0.25 3.061616997868383e-17 0
0 13 0 1
12
-4.592425496802574e-17 -0.25 0
0 14 0 1
13
0.0375 0 0
0 15 0 1
14
2.296212748401287e-18 0.0375 0
0 16 0 1
15
-0.0375 4.592425496802574e-18 0
0 17 0 1
16
-6.888638245203861e-18 -0.0375 0
1 1 0 14
17
18
19
20
21
22
23
24
25
26
27
28
29
30
0.1491782843014541 0.01567926952617845 0
0.1467221400926021 0.03118675370484762 0
0.1426584774026686 0.04635254928428728 0
0.1370318185736043 0.06101049662484973 0
0.1299038104633299 0.07500000018071505 0
0.121352549009234 0.08816778804621032 0
0.1114717236141019 0.1003695911842889 0
0.100369590722981 0.1114717240294654 0
0.08816778763289836 0.1213525493095227 0
0.07499999980216249 0.1299038106818873 0
0.06101049628015133 0.1370318187270739 0
0.0463525490163419 0.1426584774897294 0
0.03118675352271396 0.1467221401313158 0
0.01567926944502808 0.1491782843099833 0
1 2 0 14
31
32
33
34
35
36
37
38
39
40
41
42
43
44
-0.01567926952617844 0.1491782843014541 0
-0.03118675370484761 0.1467221400926021 0
-0.04635254928428727 0.1426584774026686 0
-0.06101049662484972 0.1370318185736043 0
-0.07500000018071504 0.1299038104633299 0
-0.08816778804621031 0.121352549009234 0
-0.1003695911842889 0.1114717236141019 0
-0.1114717240294654 0.100369590722981 0
-0.1213525493095227 0.08816778763289837 0
-0.1299038106818873 0.0749999998021625 0
-0.1370318187270739 0.06101049628015134 0
-0.1426584774897294 0.04635254901634191 0
-0.1467221401313158 0.03118675352271397 0
-0.1491782843099833 0.01567926944502809 0
1 3 0 14
45
46
47
48
49
50
51
52
53
54
55
56
57
58
-0.1491782843014541 -0.01567926952617843 0
-0.1467221400926021 -0.0311867537048476 0
-0.1426584774026686 -0.04635254928428726 0
-0.1370318185736043 -0.06101049662484972 0
-0.1299038104633299 -0.07500000018071504 0
-0.121352549009234 -0.08816778804621031 0
-0.1114717236141019 -0.1003695911842889 0
-0.100369590722981 -0.1114717240294654 0
-0.08816778763289837 -0.1213525493095227 0
-0.0749999998021625 -0.1299038106818873 0
-0.06101049628015134 -0.1370318187270739 0
-0.04635254901634192 -0.1426584774897294 0
-0.03118675352271398 -0.1467221401313158 0
-0.01567926944502809 -0.1491782843099833 0
1 4 0 14
59
60
61
62
63
64
65
66
67
68
69
70
71
72
0.01567926952310822 -0.1491782843017767 0
0.03118675369602735 -0.146722140094477 0
0.04635254926500103 -0.1426584774089351 0
0.06101049660378886 -0.1370318185829812 0
0.07500000017476925 -0.1299038104667627 0
0.0881677880441312 -0.1213525490107445 0
0.1003695911720267 -0.1114717236251428 0
0.111471724012193 -0.1003695907421639 0
0.1213525493058261 -0.08816778763798626 0
0.1299038106739308 -0.07499999981594356 0
0.1370318187159158 -0.06101049630521282 0
0.1426584774856795 -0.0463525490288062 0
0.1467221401288443 -0.03118675353434168 0
0.149178284308946 -0.01567926945489743 0
1 5 0 14
73
74
75
76
77
78
79
80
81
82
83
84
85
86
0.1989043790684482 0.02090569270306699 0
0.1956295201245786 0.04158233826791245 0
0.1902113032069206 0.06180339903536809 0
0.1827090914321732 0.08134732883155885 0
0.1732050806069012 0.1000000002597843 0
0.161803398655606 0.1175570507604501 0
0.1486289647958711 0.1338261216045197 0
0.1338261209452345 0.1486289653894943 0
0.1175570501748994 0.1618033990810335 0
0.09999999972556137 0.173205080915335 0
0.08134732837078701 0.1827090916373221 0
0.06180339869577885 0.1902113033172598 0
0.04158233803570728 0.1956295201739353 0
0.02090569259515259 0.1989043790797905 0
1 6 0 14
87
88
89
90
91
92
93
94
95
96
97
98
99
100
-0.02090569270306698 0.1989043790684482 0
-0.04158233826791244 0.1956295201245786 0
-0.06180339903536808 0.1902113032069206 0
-0.08134732883155883 0.1827090914321732 0
-0.1000000002597843 0.1732050806069012 0
-0.1175570507604501 0.161803398655606 0
-0.1338261216045197 0.1486289647958711 0
-0.1486289653894943 0.1338261209452345 0
-0.1618033990810335 0.1175570501748994 0
-0.173205080915335 0.09999999972556138 0
-0.1827090916373221 0.08134732837078702 0
-0.1902113033172598 0.06180339869577886 0
-0.1956295201739353 0.04158233803570729 0
-0.1989043790797905 0.0209056925951526 0
1 7 0 14
101
102
103
104
105
106
107
108
109
110
111
112
113
114
-0.1989043790684482 -0.02090569270306697 0
-0.1956295201245786 -0.04158233826791243 0
-0.1902113032069206 -0.06180339903536807 0
-0.1827090914321732 -0.08134732883155882 0
-0.1732050806069012 -0.1000000002597843 0
-0.161803398655606 -0.1175570507604501 0
-0.1486289647958712 -0.1338261216045196 0
-0.1338261209452345 -0.1486289653894942 0
-0.1175570501748994 -0.1618033990810335 0
-0.09999999972556139 -0.173205080915335 0
-0.08134732837078704 -0.1827090916373221 0
-0.06180339869577887 -0.1902113033172598 0
-0.0415823380357073 -0.1956295201739353 0
-0.02090569259515261 -0.1989043790797905 0
1 8 0 14
115
116
117
118
119
120
121
122
123
124
125
126
127
128
0.0209056927027225 -0.1989043790684844 0
0.04158233826719909 -0.1956295201247302 0
0.06180339902610565 -0.1902113032099301 0
0.08134732881939818 -0.1827090914375875 0
0.1000000002501679 -0.1732050806124532 0
0.1175570507377553 -0.1618033986720948 0
0.1338261215720714 -0.1486289648250878 0
0.1486289653529224 -0.1338261209858516 0
0.1618033990737765 -0.1175570501848878 0
0.1732050809013214 -0.09999999974983345 0
0.1827090916227964 -0.0813473284034122 0
0.1902113033113183 -0.06180339871406503 0
0.1956295201703637 -0.04158233805251041 0
0.1989043790782568 -0.02090569260974447 0
1 9 0 14
129
130
131
132
133
134
135
136
137
138
139
140
141
142
0.2486304738358993 0.02613211587560793 0
0.2445369001551831 0.05197792283743186 0
0.2377641290077607 0.07725424879694927 0
0.2283863642896824 0.1016841610406483 0
0.2165063507650934 0.1250000003135293 0
0.2022542483321343 0.1469463134331833 0
0.1857862060104992 0.1672826519882571 0
0.1672826511961544 0.1857862067237117 0
0.1469463127228512 0.2022542488482208 0
0.1249999996606448 0.2165063511420365 0
0.1016841604649752 0.2283863645459886 0
0.07725424836266545 0.237764129148868 0
0.05197792253900806 0.244536900218615 0
0.0261321157401633 0.2486304738501351 0
1 10 0 14
143
144
145
146
147
148
149
150
151
152
153
154
155
156
-0.02613211587560792 0.2486304738358993 0
-0.05197792283743185 0.2445369001551831 0
-0.07725424879694925 0.2377641290077607 0
-0.1016841610406483 0.2283863642896824 0
-0.1250000003135293 0.2165063507650934 0
-0.1469463134331833 0.2022542483321343 0
-0.1672826519882571 0.1857862060104992 0
-0.1857862067237117 0.1672826511961544 0
-0.2022542488482208 0.1469463127228512 0
-0.2165063511420365 0.1249999996606448 0
-0.2283863645459886 0.1016841604649752 0
-0.237764129148868 0.07725424836266546 0
-0.244536900218615 0.05197792253900807 0
-0.2486304738501351 0.02613211574016331 0
1 11 0 14
157
158
159
160
161
162
163
164
165
166
167
168
169
170
-0.2486304738358993 -0.0261321158756079 0
-0.2445369001551831 -0.05197792283743184 0
-0.2377641290077607 -0.07725424879694924 0
-0.2283863642896824 -0.1016841610406483 0
-0.2165063507650935 -0.1250000003135293 0
-0.2022542483321344 -0.1469463134331832 0
-0.1857862060104993 -0.1672826519882571 0
-0.1672826511961544 -0.1857862067237117 0
-0.1469463127228512 -0.2022542488482208 0
-0.1249999996606448 -0.2165063511420365 0
-0.1016841604649752 -0.2283863645459886 0
-0.07725424836266548 -0.237764129148868 0
-0.05197792253900808 -0.244536900218615 0
-0.02613211574016333 -0.2486304738501351 0
1 12 0 14
171
172
173
174
175
176
177
178
179
180
181
182
183
184
0.02613211587443503 -0.2486304738360225 0
0.05197792282997149 -0.2445369001567688 0
0.0772542487803583 -0.2377641290131514 0
0.1016841610175694 -0.2283863642999578 0
0.1250000002917751 -0.2165063507776532 0
0.1469463134034992 -0.2022542483537011 0
0.1672826519484699 -0.1857862060463238 0
0.185786206679367 -0.1672826512454043 0
0.2022542488320817 -0.1469463127450647 0
0.2165063511189647 -0.1249999997006063 0
0.228386364526313 -0.1016841605091671 0
0.2377641291406696 -0.07725424838789775 0
0.2445369002136563 -0.05197792256233695 0
0.2486304738480848 -0.02613211575967098 0
1 13 0 2
185
186
0.1666666666666215 0 0
0.1833333333332701 0 0
1 14 0 2
187
188
1.020538999289184e-17 0.1666666666666215 0
1.12259289921802e-17 0.1833333333332701 0
1 15 0 2
189
190
-0.1666666666666215 2.041077998578369e-17 0
-0.1833333333332701 2.24518579843604e-17 0
1 16 0 2
191
192
-3.061616997867553e-17 -0.1666666666666215 0
-3.367778697654059e-17 -0.1833333333332701 0
1 17 0 2
193
194
0.216666666666607 0 0
0.2333333333333062 0 0
1 18 0 2
195
196
1.326700699075934e-17 0.216666666666607 0
1.428754599005079e-17 0.2333333333333062 0
1 19 0 2
197
198
-0.216666666666607 2.653401398151868e-17 0
-0.2333333333333062 2.857509198010159e-17 0
1 20 0 2
199
200
-3.980102097227802e-17 -0.216666666666607 0
-4.286263797015237e-17 -0.2333333333333062 0
1 21 0 2
201
202
0.07499999999990326 0 0
0.1124999999999231 0 0
1 22 0 2
203
204
4.592425496796651e-18 0.07499999999990326 0
6.888638245199155e-18 0.1124999999999231 0
1 23 0 2
205
206
-0.07499999999990326 9.184850993593302e-18 0
-0.1124999999999231 1.377727649039831e-17 0
1 24 0 2
207
208
-1.377727649038995e-17 -0.07499999999990326 0
-2.066591473559746e-17 -0.1124999999999231 0
1 25 0 2
209
210
0.02500000000003141 0.01249999999996859 0
0.01250000000003167 0.02499999999996833 0
1 26 0 2
211
212
-0.01249999999996902 0.02500000000003098 0
-0.02499999999996718 0.01250000000003282 0
1 27 0 2
213
214
-0.02500000000003106 -0.01249999999996894 0
-0.0125000000000336 -0.0249999999999664 0
1 28 0 2
215
216
0.0124999999999685 -0.0250000000000315 0
0.02499999999996754 -0.01250000000003246 0
2 1 0 4
217
218
219
220
0.01249999999999843 -2.105260410445453e-14 0
-2.198802788796012e-14 -0.01249999999999813 0
2.059193306409417e-14 0.01249999999999907 0
-0.01249999999999877 2.152791833687218e-14 0
2 2 0 39
221
222
223
224
225
226
227
228
229
230
231
232
233
234
235
236
237
238
239
240
241
242
243
244
245
246
247
248
249
250
251
252
253
254
255
256
257
258
259
0.09740338273887786 0.09240846586138868 0
0.03393192745634489 0.03591327445991348 0
0.1175155313497146 0.0601957471584296 0
0.06251119162795458 0.1146431541999885 0
0.129320447432219 0.02806652901014015 0
0.04213147511119723 0.1285999776098456 0
0.0209061895687962 0.09482916528550224 0
0.03172387125908489 0.06081397024572907 0
0.04820756368655259 0.06792047570559043 0
0.09269248299533298 0.0318394213223203 0
0.06577296128965145 0.02903701716180607 0
0.07479164783175456 0.05008525537859907 0
0.05168018096410496 0.04963394785164813 0
0.08306246885880716 0.07769102279525078 0
0.0202977769048831 0.0471696313150122 0
0.04858075380709304 0.01692008536963653 0
0.1036453972070799 0.04848248500405561 0
0.1109466931695947 0.08071293284134959 0
0.09299371513766461 0.1048282145057738 0
0.08179027231417746 0.1083530537744382 0
0.06250589519200225 0.09270616487217086 0
0.04095797629099375 0.111688393704011 0
0.0210931023960602 0.1123079328351044 0
0.09394963934921748 0.08033709240350395 0
0.0803348110310317 0.09323784284842672 0
0.1254914185112186 0.0430945020025341 0
0.1196171358563691 0.07262482564571793 0
0.02425325131444851 0.1326619239600667 0
0.1134631191376095 0.03957584914641236 0
0.03907008488966369 0.04878877934525613 0
0.05100520845891667 0.03118789145370692 0
0.1322940660040736 0.0161034690975637 0
0.05475106425726032 0.1273108812705526 0
0.03861846407282 0.08812554437116915 0
0.09138953908708526 0.0619843264244101 0
0.102484626045781 0.07160858087510469 0
0.06656749790412206 0.07269980009800586 0
0.1111061497748373 0.02563389307465937 0
0.02554025086855598 0.07326698390614897 0
2 3 0 39
260
261
262
263
264
265
266
267
268
269
270
271
272
273
274
275
276
277
278
279
280
281
282
283
284
285
286
287
288
289
290
291
292
293
294
295
296
297
298
-0.09240846586138864 0.09740338273887786 0
-0.03591327445991321 0.03393192745634496 0
-0.06019574715842956 0.1175155313497146 0
-0.1146431541999885 0.06251119162795458 0
-0.02806652901014013 0.129320447432219 0
-0.1285999776098456 0.04213147511119723 0
-0.0948291652855022 0.0209061895687962 0
-0.06081397024572877 0.03172387125908501 0
-0.06792047570559022 0.04820756368655263 0
-0.03183942132232023 0.09269248299533296 0
-0.02903701716180593 0.06577296128965142 0
-0.05008525537859889 0.07479164783175456 0
-0.04963394785164789 0.05168018096410499 0
-0.07769102279525068 0.08306246885880716 0
-0.04716963131501188 0.0202977769048833 0
-0.01692008536963652 0.04858075380709294 0
-0.04848248500405554 0.1036453972070799 0
-0.08071293284134956 0.1109466931695947 0
-0.1048282145057738 0.09299371513766459 0
-0.1083530537744382 0.08179027231417743 0
-0.09270616487217073 0.06250589519200225 0
-0.111688393704011 0.04095797629099374 0
-0.1123079328351044 0.0210931023960602 0
-0.08033709240350388 0.09394963934921748 0
-0.09323784284842666 0.0803348110310317 0
-0.04309450200253406 0.1254914185112186 0
-0.0726248256457179 0.1196171358563691 0
-0.1326619239600667 0.02425325131444851 0
-0.03957584914641232 0.1134631191376095 0
-0.04878877934525586 0.03907008488966377 0
-0.03118789145370679 0.05100520845891664 0
-0.01610346909756368 0.1322940660040736 0
-0.1273108812705526 0.05475106425726032 0
-0.08812554437116904 0.03861846407282002 0
-0.06198432642440999 0.09138953908708528 0
-0.07160858087510462 0.102484626045781 0
-0.07269980009800571 0.06656749790412207 0
-0.02563389307465933 0.1111061497748373 0
-0.0732669839061488 0.02554025086855605 0
2 4 0 39
299
300
301
302
303
304
305
306
307
308
309
310
311
312
313
314
315
316
317
318
319
320
321
322
323
324
325
326
327
328
329
330
331
332
333
334
335
336
337
-0.09740338273887786 -0.09240846586138861 0
-0.03393192745634514 -0.03591327445991293 0
-0.1175155313497146 -0.06019574715842954 0
-0.06251119162795458 -0.1146431541999884 0
-0.129320447432219 -0.02806652901014012 0
-0.04213147511119723 -0.1285999776098456 0
-0.0209061895687962 -0.09482916528550213 0
-0.03172387125908515 -0.06081397024572853 0
-0.04820756368655269 -0.06792047570559001 0
-0.09269248299533298 -0.03183942132232016 0
-0.06577296128965145 -0.02903701716180578 0
-0.07479164783175458 -0.05008525537859875 0
-0.05168018096410507 -0.04963394785164766 0
-0.08306246885880714 -0.07769102279525063 0
-0.02029777690488351 -0.04716963131501162 0
-0.04858075380709299 -0.01692008536963639 0
-0.1036453972070799 -0.0484824850040555 0
-0.1109466931695947 -0.08071293284134956 0
-0.09299371513766459 -0.1048282145057738 0
-0.08179027231417743 -0.1083530537744382 0
-0.06250589519200225 -0.09270616487217068 0
-0.04095797629099374 -0.111688393704011 0
-0.0210931023960602 -0.1123079328351043 0
-0.09394963934921743 -0.08033709240350387 0
-0.08033481103103167 -0.09323784284842662 0
-0.1254914185112186 -0.04309450200253405 0
-0.1196171358563691 -0.0726248256457179 0
-0.02425325131444852 -0.1326619239600667 0
-0.1134631191376095 -0.03957584914641228 0
-0.0390700848896639 -0.04878877934525559 0
-0.05100520845891672 -0.03118789145370661 0
-0.1322940660040736 -0.01610346909756367 0
-0.05475106425726033 -0.1273108812705526 0
-0.03861846407282005 -0.08812554437116894 0
-0.09138953908708528 -0.06198432642440995 0
-0.102484626045781 -0.0716085808751046 0
-0.06656749790412207 -0.07269980009800561 0
-0.1111061497748373 -0.02563389307465931 0
-0.02554025086855612 -0.07326698390614864 0
2 5 0 38
338
339
340
341
342
343
344
345
346
347
348
349
350
351
352
353
354
355
356
357
358
359
360
361
362
363
364
365
366
367
368
369
370
371
372
373
374
375
0.09606737635093315 -0.0958743727218079 0
0.02945235914612815 -0.02617400959898955 0
0.119953717589244 -0.05648809532242139 0
0.06331537818286782 -0.118304583817005 0
0.04332099440240417 -0.1296036365721134 0
0.1294429936779036 -0.02801935327147275 0
0.09097071267406007 -0.02814876278753963 0
0.06161728678911894 -0.0289265025386963 0
0.07681084196814145 -0.05027917605374561 0
0.03351954056467697 -0.09206155514711262 0
0.03103786906230209 -0.06478782027661149 0
0.05087723559920293 -0.07488612210122796 0
0.05648619757702569 -0.04973922615443869 0
0.0777812304315383 -0.07816150641044001 0
0.04227635949854631 -0.02585829631349564 0
0.02075040967251767 -0.0424680570181122 0
0.05443289030754619 -0.09938031280033777 0
0.105414309469399 -0.08394539851860908 0
0.08525546496388729 -0.1065111947803615 0
0.08113381762001237 -0.09176833960702739 0
0.08988522511369071 -0.08039716149755585 0
0.09550248966055278 -0.06719503391060051 0
0.07992881828757155 -0.1152570003063393 0
0.04617763451462716 -0.1149558526641039 0
0.1000532053709657 -0.0484358156914766 0
0.03686797723345328 -0.04757669585239548 0
0.1129346421476828 -0.03859938968281627 0
0.1106358582050771 -0.02496466421345227 0
0.1333052077820782 -0.01752470383464163 0
0.02546162197776157 -0.1332638708173502 0
0.02552913763393357 -0.1133291314331455 0
0.05567162037750301 -0.1286044760011812 0
0.1126972912931066 -0.0704090615828407 0
0.06670668802101784 -0.08603551499087998 0
0.07136367499405992 -0.1036754513780473 0
0.07642064320854965 -0.06722353704634898 0
0.1255078715274545 -0.04219966210665078 0
0.0766786468001958 -0.03478872063469213 0
2 6 0 28
376
377
378
379
380
381
382
383
384
385
386
387
388
389
390
391
392
393
394
395
396
397
398
399
400
401
402
403
0.1823290141460539 0.01916355164409753 0
0.1657536492237405 0.01742141058513658 0
0.1793270601138579 0.03811714341354436 0
0.1630246001032168 0.03465194855919318 0
0.1743603612721097 0.05665311578498827 0
0.1585094193373763 0.05150283253463359 0
0.1674833338125925 0.07456838476263007 0
0.152257576193086 0.06778944069373441 0
0.1587713238923226 0.09166666690006293 0
0.1443375671778145 0.08333333354038225 0
0.1483197821067641 0.1077606298556663 0
0.1348361655579881 0.09796420895093036 0
0.1362432177352344 0.1226739447977337 0
0.123857470674658 0.1115217679910023 0
0.1226739442044409 0.1362432182694376 0
0.1115217674637019 0.1238574711494415 0
0.1077606293275285 0.1483197824904787 0
0.09796420848020546 0.1348361658999898 0
0.09166666641773011 0.1587713241707976 0
0.08333333310993953 0.1443375674263307 0
0.0745683843405494 0.1674833340005149 0
0.06778944031034485 0.152257576363782 0
0.05665311546928031 0.1743603613746894 0
0.05150283224280693 0.1585094194321966 0
0.0381171431980297 0.1793270601596669 0
0.03465194836036901 0.1630246001454781 0
0.01916355154510447 0.1823290141564584 0
0.01742141049506486 0.1657536492332074 0
2 7 0 28
404
405
406
407
408
409
410
411
412
413
414
415
416
417
418
419
420
421
422
423
424
425
426
427
428
429
430
431
0.2320551089133886 0.02438997481809145 0
0.2154797439908726 0.0226478337605744 0
0.228234440144955 0.04851272798091975 0
0.2119319801347218 0.04504753312440652 0
0.2219131870741215 0.07210396554308049 0
0.2060622451404772 0.06695368228921006 0
0.2131606066704879 0.09490521697094076 0
0.1979348490512885 0.08812627290123108 0
0.2020725940456725 0.1166666669622674 0
0.187638837326247 0.1083333336110029 0
0.1887706317732696 0.1371498925422563 0
0.1752870152144005 0.1273534716513261 0
0.1734004589389364 0.1561304751936598 0
0.1610147118673695 0.1449782983990589 0
0.1561304744458296 0.1734004596122858 0
0.1449782976955012 0.1610147125008558 0
0.1371498918735179 0.1887706322591364 0
0.1273534710241816 0.1752870156700477 0
0.1166666663489368 0.2020725943997791 0
0.108333333037226 0.1876388376575171 0
0.09490521643356808 0.2131606069097416 0
0.08812627240215878 0.1979348492734898 0
0.07210396514036153 0.2219131872049728 0
0.06695368191805595 0.2060622452610724 0
0.04851272770456883 0.2282344402036953 0
0.04504753287012846 0.2119319801887702 0
0.02438997469182357 0.2320551089266599 0
0.02264783364348326 0.2154797440031793 0
2 8 0 28
432
433
434
435
436
437
438
439
440
441
442
443
444
445
446
447
448
449
450
451
452
453
454
455
456
457
458
459
-0.01916355164409752 0.1823290141460539 0
-0.01742141058513657 0.1657536492237405 0
-0.03811714341354434 0.1793270601138579 0
-0.03465194855919317 0.1630246001032168 0
-0.05665311578498824 0.1743603612721097 0
-0.05150283253463358 0.1585094193373763 0
-0.07456838476263006 0.1674833338125925 0
-0.06778944069373438 0.152257576193086 0
-0.09166666690006293 0.1587713238923227 0
-0.08333333354038222 0.1443375671778145 0
-0.1077606298556663 0.1483197821067641 0
-0.09796420895093036 0.1348361655579881 0
-0.1226739447977338 0.1362432177352343 0
-0.1115217679910023 0.123857470674658 0
-0.1362432182694376 0.122673944204441 0
-0.1238574711494415 0.1115217674637019 0
-0.1483197824904787 0.1077606293275285 0
-0.1348361658999898 0.09796420848020548 0
-0.1587713241707976 0.09166666641773012 0
-0.1443375674263307 0.08333333310993954 0
-0.1674833340005149 0.0745683843405494 0
-0.152257576363782 0.06778944031034487 0
-0.1743603613746894 0.05665311546928032 0
-0.1585094194321966 0.05150283224280693 0
-0.1793270601596669 0.0381171431980297 0
-0.1630246001454781 0.03465194836036903 0
-0.1823290141564584 0.01916355154510448 0
-0.1657536492332074 0.01742141049506487 0
2 9 0 28
460
461
462
463
464
465
466
467
468
469
470
471
472
473
474
475
476
477
478
479
480
481
482
483
484
485
486
487
-0.02438997481809143 0.2320551089133886 0
-0.02264783376057439 0.2154797439908726 0
-0.04851272798091973 0.228234440144955 0
-0.04504753312440651 0.2119319801347218 0
-0.07210396554308046 0.2219131870741215 0
-0.06695368228921003 0.2060622451404772 0
-0.09490521697094076 0.2131606066704879 0
-0.08812627290123107 0.1979348490512885 0
-0.1166666669622674 0.2020725940456725 0
-0.1083333336110028 0.187638837326247 0
-0.1371498925422562 0.1887706317732696 0
-0.1273534716513261 0.1752870152144005 0
-0.1561304751936598 0.1734004589389364 0
-0.1449782983990589 0.1610147118673695 0
-0.1734004596122858 0.1561304744458296 0
-0.1610147125008558 0.1449782976955012 0
-0.1887706322591364 0.1371498918735179 0
-0.1752870156700477 0.1273534710241816 0
-0.2020725943997791 0.1166666663489368 0
-0.1876388376575171 0.108333333037226 0
-0.2131606069097416 0.09490521643356807 0
-0.1979348492734898 0.08812627240215883 0
-0.2219131872049728 0.07210396514036153 0
-0.2060622452610724 0.06695368191805598 0
-0.2282344402036953 0.04851272770456884 0
-0.2119319801887702 0.04504753287012849 0
-0.2320551089266599 0.02438997469182357 0
-0.2154797440031793 0.02264783364348327 0
2 10 0 28
488
489
490
491
492
493
494
495
496
497
498
499
500
501
502
503
504
505
506
507
508
509
510
511
512
513
514
515
-0.1823290141460539 -0.01916355164409751 0
-0.1657536492237405 -0.01742141058513656 0
-0.1793270601138579 -0.03811714341354434 0
-0.1630246001032168 -0.03465194855919315 0
-0.1743603612721097 -0.05665311578498824 0
-0.1585094193373763 -0.05150283253463357 0
-0.1674833338125925 -0.07456838476263004 0
-0.152257576193086 -0.06778944069373438 0
-0.1587713238923227 -0.09166666690006292 0
-0.1443375671778146 -0.08333333354038222 0
-0.1483197821067642 -0.1077606298556663 0
-0.1348361655579881 -0.09796420895093036 0
-0.1362432177352344 -0.1226739447977337 0
-0.1238574706746581 -0.1115217679910022 0
-0.122673944204441 -0.1362432182694376 0
-0.1115217674637019 -0.1238574711494415 0
-0.1077606293275285 -0.1483197824904787 0
-0.0979642084802055 -0.1348361658999897 0
-0.09166666641773014 -0.1587713241707976 0
-0.08333333310993954 -0.1443375674263307 0
-0.07456838434054941 -0.1674833340005149 0
-0.06778944031034485 -0.152257576363782 0
-0.05665311546928033 -0.1743603613746895 0
-0.05150283224280695 -0.1585094194321965 0
-0.03811714319802971 -0.179327060159667 0
-0.03465194836036904 -0.1630246001454782 0
-0.0191635515451045 -0.1823290141564585 0
-0.01742141049506488 -0.1657536492332074 0
2 11 0 28
516
517
518
519
520
521
522
523
524
525
526
527
528
529
530
531
532
533
534
535
536
537
538
539
540
541
542
543
-0.2320551089133886 -0.02438997481809143 0
-0.2154797439908726 -0.02264783376057437 0
-0.228234440144955 -0.04851272798091973 0
-0.2119319801347218 -0.04504753312440649 0
-0.2219131870741215 -0.07210396554308046 0
-0.2060622451404772 -0.06695368228921003 0
-0.2131606066704879 -0.09490521697094076 0
-0.1979348490512885 -0.08812627290123101 0
-0.2020725940456726 -0.1166666669622674 0
-0.187638837326247 -0.1083333336110028 0
-0.1887706317732696 -0.1371498925422562 0
-0.1752870152144006 -0.1273534716513261 0
-0.1734004589389364 -0.1561304751936598 0
-0.1610147118673695 -0.1449782983990589 0
-0.1561304744458297 -0.1734004596122857 0
-0.1449782976955012 -0.1610147125008558 0
-0.137149891873518 -0.1887706322591363 0
-0.1273534710241816 -0.1752870156700477 0
-0.1166666663489368 -0.2020725943997791 0
-0.108333333037226 -0.1876388376575171 0
-0.09490521643356808 -0.2131606069097416 0
-0.08812627240215881 -0.1979348492734898 0
-0.07210396514036155 -0.2219131872049728 0
-0.06695368191805598 -0.2060622452610724 0
-0.04851272770456884 -0.2282344402036953 0
-0.04504753287012849 -0.2119319801887702 0
-0.02438997469182359 -0.2320551089266599 0
-0.02264783364348328 -0.2154797440031793 0
2 12 0 28
544
545
546
547
548
549
550
551
552
553
554
555
556
557
558
559
560
561
562
563
564
565
566
567
568
569
570
571
0.01916355164284446 -0.1823290141461856 0
0.01742141058297492 -0.1657536492239677 0
0.03811714341012869 -0.1793270601145839 0
0.03465194855307521 -0.1630246001045172 0
0.05665311577238456 -0.1743603612762049 0
0.05150283251868862 -0.1585094193425571 0
0.07456838474750267 -0.1674833338193276 0
0.06778944067564027 -0.152257576201142 0
0.09166666689167002 -0.1587713238971682 0
0.0833333335332129 -0.1443375671819538 0
0.1077606298398434 -0.1483197821182602 0
0.09796420894197934 -0.1348361655644914 0
0.1226739447720141 -0.1362432177583925 0
0.1115217679720113 -0.1238574706917576 0
0.1362432182392989 -0.1226739442379134 0
0.1238574711257359 -0.1115217674900296 0
0.1483197824844085 -0.1077606293358834 0
0.1348361658951064 -0.09796420848692691 0
0.1587713241588031 -0.09166666643850518 0
0.1443375674163553 -0.08333333312721759 0
0.1674833339871117 -0.07456838437065334 0
0.1522575763515014 -0.06778944033792758 0
0.1743603613693785 -0.05665311548562586 0
0.1585094194275161 -0.05150283225721185 0
0.179327060156462 -0.03811714321310767 0
0.1630246001426399 -0.03465194837372187 0
0.1823290141550903 -0.01916355155812217 0
0.1657536492320047 -0.01742141050650839 0
2 13 0 28
572
573
574
575
576
577
578
579
580
581
582
583
584
585
586
587
588
589
590
591
592
593
594
595
596
597
598
599
0.02438997481719468 -0.2320551089134828 0
0.02264783375995377 -0.2154797439909378 0
0.04851272797570838 -0.2282344401460627 0
0.04504753312144415 -0.2119319801353514 0
0.07210396552893236 -0.2219131870787185 0
0.06695368227750477 -0.2060622451442805 0
0.09490521695150127 -0.2131606066791429 0
0.08812627288543098 -0.1979348490583231 0
0.1166666669445591 -0.2020725940558963 0
0.1083333335973405 -0.1876388373341349 0
0.1371498925149019 -0.1887706317931437 0
0.1273534716263015 -0.1752870152325819 0
0.1561304751563188 -0.1734004589725583 0
0.1449782983641643 -0.1610147118987888 0
0.173400459570532 -0.1561304744922019 0
0.1610147124616929 -0.1449782977389959 0
0.188770632245958 -0.1371498918916565 0
0.17528701565983 -0.1273534710382451 0
0.2020725943797268 -0.1166666663836684 0
0.1876388376404842 -0.1083333330667279 0
0.2131606068917827 -0.09490521647390446 0
0.1979348492572474 -0.08812627243863957 0
0.2219131871975266 -0.07210396516327845 0
0.2060622452543787 -0.0669536819386575 0
0.2282344401991989 -0.04851272772572246 0
0.2119319801847363 -0.04504753288910685 0
0.2320551089247818 -0.02438997470969264 0
0.2154797440014735 -0.02264783365971374 0
$EndNodes
$Elements
17 628 1 628
1 9 1 15
1 9 129 
2 129 130 
3 130 131 
4 131 132 
5 132 133 
6 133 134 
7 134 135 
8 135 136 
9 136 137 
10 137 138 
11 138 139 
12 139 140 
13 140 141 
14 141 142 
15 142 10 
1 10 1 15
16 10 143 
17 143 144 
18 144 145 
19 145 146 
20 146 147 
21 147 148 
22 148 149 
23 149 150 
24 150 151 
25 151 152 
26 152 153 
27 153 154 
28 154 155 
29 155 156 
30 156 11 
1 11 1 15
31 11 157 
32 157 158 
33 158 159 
34 159 160 
35 160 161 
36 161 162 
37 162 163 
38 163 164 
39 164 165 
40 165 166 
41 166 167 
42 167 168 
43 168 169 
44 169 170 
45 170 12 
1 12 1 15
46 12 171 
47 171 172 
48 172 173 
49 173 174 
50 174 175 
51 175 176 
52 176 177 
53 177 178 
54 178 179 
55 179 180 
56 180 181 
57 181 182 
58 182 183 
59 183 184 
60 184 9 
2 1 3 9
61 13 209 217 216 
62 216 217 218 215 
63 215 218 214 16 
64 209 210 219 217 
65 217 219 220 218 
66 218 220 213 214 
67 210 14 211 219 
68 219 211 212 220 
69 220 212 15 213 
2 2 3 50
70 232 231 201 230 
71 243 204 203 227 
72 235 228 259 203 
73 201 202 258 230 
74 2 248 29 30 
75 237 249 246 223 
76 209 222 235 210 
77 229 228 250 233 
78 201 231 251 236 
79 23 24 239 221 
80 232 233 251 231 
81 22 23 221 238 
82 229 233 232 257 
83 224 242 254 241 
84 209 236 251 222 
85 230 237 255 232 
86 245 240 224 241 
87 228 235 222 250 
88 248 226 28 29 
89 240 245 221 239 
90 221 244 256 238 
91 258 249 237 230 
92 24 25 240 239 
93 223 247 238 256 
94 21 22 238 247 
95 254 242 243 227 
96 25 26 224 240 
97 20 21 247 223 
98 234 257 232 255 
99 228 229 254 259 
100 226 242 224 253 
101 222 251 233 250 
102 221 245 234 244 
103 19 20 223 246 
104 26 27 253 224 
105 242 226 248 243 
106 241 257 234 245 
107 229 257 241 254 
108 203 259 254 227 
109 18 19 246 225 
110 27 28 226 253 
111 234 255 256 244 
112 17 18 225 252 
113 246 249 258 225 
114 223 256 255 237 
115 202 252 225 258 
116 243 248 2 204 
117 17 252 202 1 
118 209 13 201 236 
119 210 235 203 14 
2 3 3 50
120 271 270 203 269 
121 282 206 205 266 
122 274 267 298 205 
123 203 204 297 269 
124 3 287 43 44 
125 276 288 285 262 
126 211 261 274 212 
127 268 267 289 272 
128 203 270 290 275 
129 37 38 278 260 
130 271 272 290 270 
131 36 37 260 277 
132 268 272 271 296 
133 263 281 293 280 
134 211 275 290 261 
135 269 276 294 271 
136 284 279 263 280 
137 267 274 261 289 
138 287 265 42 43 
139 279 284 260 278 
140 260 283 295 277 
141 297 288 276 269 
142 38 39 279 278 
143 262 286 277 295 
144 35 36 277 286 
145 293 281 282 266 
146 39 40 263 279 
147 34 35 286 262 
148 273 296 271 294 
149 267 268 293 298 
150 265 281 263 292 
151 261 290 272 289 
152 260 284 273 283 
153 33 34 262 285 
154 40 41 292 263 
155 281 265 287 282 
156 280 296 273 284 
157 268 296 280 293 
158 205 298 293 266 
159 32 33 285 264 
160 41 42 265 292 
161 273 294 295 283 
162 31 32 264 291 
163 285 288 297 264 
164 262 295 294 276 
165 204 291 264 297 
166 282 287 3 206 
167 31 291 204 2 
168 211 14 203 275 
169 212 274 205 15 
2 4 3 50
170 310 309 205 308 
171 321 208 207 305 
172 313 306 337 207 
173 205 206 336 308 
174 4 326 57 58 
175 315 327 324 301 
176 213 300 313 214 
177 307 306 328 311 
178 205 309 329 314 
179 51 52 317 299 
180 310 311 329 309 
181 50 51 299 316 
182 307 311 310 335 
183 302 320 332 319 
184 213 314 329 300 
185 308 315 333 310 
186 323 318 302 319 
187 306 313 300 328 
188 326 304 56 57 
189 318 323 299 317 
190 299 322 334 316 
191 336 327 315 308 
192 52 53 318 317 
193 301 325 316 334 
194 49 50 316 325 
195 332 320 321 305 
196 53 54 302 318 
197 48 49 325 301 
198 312 335 310 333 
199 306 307 332 337 
200 304 320 302 331 
201 300 329 311 328 
202 299 323 312 322 
203 47 48 301 324 
204 54 55 331 302 
205 320 304 326 321 
206 319 335 312 323 
207 307 335 319 332 
208 207 337 332 305 
209 46 47 324 303 
210 55 56 304 331 
211 312 333 334 322 
212 45 46 303 330 
213 324 327 336 303 
214 301 334 333 315 
215 206 330 303 336 
216 321 326 4 208 
217 45 330 206 3 
218 213 15 205 314 
219 214 313 207 16 
2 5 3 49
220 349 348 207 347 
221 365 202 201 344 
222 344 201 345 375 
223 350 346 375 345 
224 207 208 368 347 
225 362 344 375 346 
226 372 354 361 341 
227 216 215 353 339 
228 339 352 13 216 
229 207 348 363 353 
230 72 366 343 71 
231 67 355 338 66 
232 349 350 363 348 
233 66 338 356 65 
234 346 350 349 373 
235 362 364 365 344 
236 347 354 371 349 
237 357 338 355 358 
238 362 359 370 340 
239 346 373 359 362 
240 338 357 372 356 
241 354 347 368 361 
242 341 360 356 372 
243 358 355 370 359 
244 65 356 360 64 
245 68 370 355 67 
246 353 363 352 339 
247 64 360 341 63 
248 69 340 370 68 
249 351 373 349 371 
250 70 374 340 69 
251 345 352 363 350 
252 63 341 369 62 
253 359 373 351 358 
254 358 351 371 357 
255 71 343 374 70 
256 341 361 342 369 
257 362 340 374 364 
258 361 368 367 342 
259 62 369 342 61 
260 343 366 202 365 
261 61 342 367 60 
262 365 364 374 343 
263 357 371 354 372 
264 72 1 202 366 
265 60 367 4 59 
266 368 208 4 367 
267 345 201 13 352 
268 215 16 207 353 
2 6 3 45
269 5 73 376 186 
270 186 376 377 185 
271 185 377 17 1 
272 73 74 378 376 
273 376 378 379 377 
274 377 379 18 17 
275 74 75 380 378 
276 378 380 381 379 
277 379 381 19 18 
278 75 76 382 380 
279 380 382 383 381 
280 381 383 20 19 
281 76 77 384 382 
282 382 384 385 383 
283 383 385 21 20 
284 77 78 386 384 
285 384 386 387 385 
286 385 387 22 21 
287 78 79 388 386 
288 386 388 389 387 
289 387 389 23 22 
290 79 80 390 388 
291 388 390 391 389 
292 389 391 24 23 
293 80 81 392 390 
294 390 392 393 391 
295 391 393 25 24 
296 81 82 394 392 
297 392 394 395 393 
298 393 395 26 25 
299 82 83 396 394 
300 394 396 397 395 
301 395 397 27 26 
302 83 84 398 396 
303 396 398 399 397 
304 397 399 28 27 
305 84 85 400 398 
306 398 400 401 399 
307 399 401 29 28 
308 85 86 402 400 
309 400 402 403 401 
310 401 403 30 29 
311 86 6 188 402 
312 402 188 187 403 
313 403 187 2 30 
2 7 3 45
314 9 129 404 194 
315 194 404 405 193 
316 193 405 73 5 
317 129 130 406 404 
318 404 406 407 405 
319 405 407 74 73 
320 130 131 408 406 
321 406 408 409 407 
322 407 409 75 74 
323 131 132 410 408 
324 408 410 411 409 
325 409 411 76 75 
326 132 133 412 410 
327 410 412 413 411 
328 411 413 77 76 
329 133 134 414 412 
330 412 414 415 413 
331 413 415 78 77 
332 134 135 416 414 
333 414 416 417 415 
334 415 417 79 78 
335 135 136 418 416 
336 416 418 419 417 
337 417 419 80 79 
338 136 137 420 418 
339 418 420 421 419 
340 419 421 81 80 
341 137 138 422 420 
342 420 422 423 421 
343 421 423 82 81 
344 138 139 424 422 
345 422 424 425 423 
346 423 425 83 82 
347 139 140 426 424 
348 424 426 427 425 
349 425 427 84 83 
350 140 141 428 426 
351 426 428 429 427 
352 427 429 85 84 
353 141 142 430 428 
354 428 430 431 429 
355 429 431 86 85 
356 142 10 196 430 
357 430 196 195 431 
358 431 195 6 86 
2 8 3 45
359 6 87 432 188 
360 188 432 433 187 
361 187 433 31 2 
362 87 88 434 432 
363 432 434 435 433 
364 433 435 32 31 
365 88 89 436 434 
366 434 436 437 435 
367 435 437 33 32 
368 89 90 438 436 
369 436 438 439 437 
370 437 439 34 33 
371 90 91 440 438 
372 438 440 441 439 
373 439 441 35 34 
374 91 92 442 440 
375 440 442 443 441 
376 441 443 36 35 
377 92 93 444 442 
378 442 444 445 443 
379 443 445 37 36 
380 93 94 446 444 
381 444 446 447 445 
382 445 447 38 37 
383 94 95 448 446 
384 446 448 449 447 
385 447 449 39 38 
386 95 96 450 448 
387 448 450 451 449 
388 449 451 40 39 
389 96 97 452 450 
390 450 452 453 451 
391 451 453 41 40 
392 97 98 454 452 
393 452 454 455 453 
394 453 455 42 41 
395 98 99 456 454 
396 454 456 457 455 
397 455 457 43 42 
398 99 100 458 456 
399 456 458 459 457 
400 457 459 44 43 
401 100 7 190 458 
402 458 190 189 459 
403 459 189 3 44 
2 9 3 45
404 10 143 460 196 
405 196 460 461 195 
406 195 461 87 6 
407 143 144 462 460 
408 460 462 463 461 
409 461 463 88 87 
410 144 145 464 462 
411 462 464 465 463 
412 463 465 89 88 
413 145 146 466 464 
414 464 466 467 465 
415 465 467 90 89 
416 146 147 468 466 
417 466 468 469 467 
418 467 469 91 90 
419 147 148 470 468 
420 468 470 471 469 
421 469 471 92 91 
422 148 149 472 470 
423 470 472 473 471 
424 471 473 93 92 
425 149 150 474 472 
426 472 474 475 473 
427 473 475 94 93 
428 150 151 476 474 
429 474 476 477 475 
430 475 477 95 94 
431 151 152 478 476 
432 476 478 479 477 
433 477 479 96 95 
434 152 153 480 478 
435 478 480 481 479 
436 479 481 97 96 
437 153 154 482 480 
438 480 482 483 481 
439 481 483 98 97 
440 154 155 484 482 
441 482 484 485 483 
442 483 485 99 98 
443 155 156 486 484 
444 484 486 487 485 
445 485 487 100 99 
446 156 11 198 486 
447 486 198 197 487 
448 487 197 7 100 
2 10 3 45
449 7 101 488 190 
450 190 488 489 189 
451 189 489 45 3 
452 101 102 490 488 
453 488 490 491 489 
454 489 491 46 45 
455 102 103 492 490 
456 490 492 493 491 
457 491 493 47 46 
458 103 104 494 492 
459 492 494 495 493 
460 493 495 48 47 
461 104 105 496 494 
462 494 496 497 495 
463 495 497 49 48 
464 105 106 498 496 
465 496 498 499 497 
466 497 499 50 49 
467 106 107 500 498 
468 498 500 501 499 
469 499 501 51 50 
470 107 108 502 500 
471 500 502 503 501 
472 501 503 52 51 
473 108 109 504 502 
474 502 504 505 503 
475 503 505 53 52 
476 109 110 506 504 
477 504 506 507 505 
478 505 507 54 53 
479 110 111 508 506 
480 506 508 509 507 
481 507 509 55 54 
482 111 112 510 508 
483 508 510 511 509 
484 509 511 56 55 
485 112 113 512 510 
486 510 512 513 511 
487 511 513 57 56 
488 113 114 514 512 
489 512 514 515 513 
490 513 515 58 57 
491 114 8 192 514 
492 514 192 191 515 
493 515 191 4 58 
2 11 3 45
494 11 157 516 198 
495 198 516 517 197 
496 197 517 101 7 
497 157 158 518 516 
498 516 518 519 517 
499 517 519 102 101 
500 158 159 520 518 
501 518 520 521 519 
502 519 521 103 102 
503 159 160 522 520 
504 520 522 523 521 
505 521 523 104 103 
506 160 161 524 522 
507 522 524 525 523 
508 523 525 105 104 
509 161 162 526 524 
510 524 526 527 525 
511 525 527 106 105 
512 162 163 528 526 
513 526 528 529 527 
514 527 529 107 106 
515 163 164 530 528 
516 528 530 531 529 
517 529 531 108 107 
518 164 165 532 530 
519 530 532 533 531 
520 531 533 109 108 
521 165 166 534 532 
522 532 534 535 533 
523 533 535 110 109 
524 166 167 536 534 
525 534 536 537 535 
526 535 537 111 110 
527 167 168 538 536 
528 536 538 539 537 
529 537 539 112 111 
530 168 169 540 538 
531 538 540 541 539 
532 539 541 113 112 
533 169 170 542 540 
534 540 542 543 541 
535 541 543 114 113 
536 170 12 200 542 
537 542 200 199 543 
538 543 199 8 114 
2 12 3 45
539 8 115 544 192 
540 192 544 545 191 
541 191 545 59 4 
542 115 116 546 544 
543 544 546 547 545 
544 545 547 60 59 
545 116 117 548 546 
546 546 548 549 547 
547 547 549 61 60 
548 117 118 550 548 
549 548 550 551 549 
550 549 551 62 61 
551 118 119 552 550 
552 550 552 553 551 
553 551 553 63 62 
554 119 120 554 552 
555 552 554 555 553 
556 553 555 64 63 
557 120 121 556 554 
558 554 556 557 555 
559 555 557 65 64 
560 121 122 558 556 
561 556 558 559 557 
562 557 559 66 65 
563 122 123 560 558 
564 558 560 561 559 
565 559 561 67 66 
566 123 124 562 560 
567 560 562 563 561 
568 561 563 68 67 
569 124 125 564 562 
570 562 564 565 563 
571 563 565 69 68 
572 125 126 566 564 
573 564 566 567 565 
574 565 567 70 69 
575 126 127 568 566 
576 566 568 569 567 
577 567 569 71 70 
578 127 128 570 568 
579 568 570 571 569 
580 569 571 72 71 
581 128 5 186 570 
582 570 186 185 571 
583 571 185 1 72 
2 13 3 45
584 12 171 572 200 
585 200 572 573 199 
586 199 573 115 8 
587 171 172 574 572 
588 572 574 575 573 
589 573 575 116 115 
590 172 173 576 574 
591 574 576 577 575 
592 575 577 117 116 
593 173 174 578 576 
594 576 578 579 577 
595 577 579 118 117 
596 174 175 580 578 
597 578 580 581 579 
598 579 581 119 118 
599 175 176 582 580 
600 580 582 583 581 
601 581 583 120 119 
602 176 177 584 582 
603 582 584 585 583 
604 583 585 121 120 
605 177 178 586 584 
606 584 586 587 585 
607 585 587 122 121 
608 178 179 588 586 
609 586 588 589 587 
610 587 589 123 122 
611 179 180 590 588 
612 588 590 591 589 
613 589 591 124 123 
614 180 181 592 590 
615 590 592 593 591 
616 591 593 125 124 
617 181 182 594 592 
618 592 594 595 593 
619 593 595 126 125 
620 182 183 596 594 
621 594 596 597 595 
622 595 597 127 126 
623 183 184 598 596 
624 596 598 599 597 
625 597 599 128 127 
626 184 9 194 598 
627 598 194 193 599 
628 599 193 5 128 
$EndElements
