$MeshFormat
4.1 0 8
$EndMeshFormat
$Entities
4 4 1 0
1 0 -0.0949999988 0 0 
2 0.100000001 -0.0949999988 0 0 
3 0.100000001 0.00499999989 0 0 
4 0 0.00499999989 0 0 
1 0 -0.0949999988 0 0.100000001 -0.0949999988 0 0 2 1 -2 
2 0.100000001 -0.0949999988 0 0.100000001 0.004999999889999995 0 0 2 2 -3 
3 0 0.00499999989 0 0.100000001 0.00499999989 0 0 2 3 -4 
4 0 -0.0949999988 0 0 0.004999999890000002 0 0 2 4 -1 
1 0 -0.0949999988 0 0.100000001 0.004999999890000002 0 0 4 1 2 3 4 
$EndEntities
$Nodes
9 98 1 98
0 1 0 1
1
0 -0.0949999988 0
0 2 0 1
2
0.100000001 -0.0949999988 0
0 3 0 1
3
0.100000001 0.00499999989 0
0 4 0 1
4
0 0.00499999989 0
1 1 0 7
5
6
7
8
9
10
11
0.01250000012497673 -0.0949999988 0
0.02500000024994011 -0.0949999988 0
0.03750000037490311 -0.0949999988 0
0.05000000049986746 -0.0949999988 0
0.06250000062489824 -0.0949999988 0
0.07500000074993307 -0.0949999988 0
0.08750000087496652 -0.0949999988 0
1 2 0 7
12
13
14
15
16
17
18
0.100000001 -0.08249999896376932 0
0.100000001 -0.0699999991275549 0
0.100000001 -0.05749999929134048 0
0.100000001 -0.04499999945512739 0
0.100000001 -0.03249999961884654 0
0.100000001 -0.01999999978256706 0
0.100000001 -0.007499999946284891 0
1 3 0 7
19
20
21
22
23
24
25
0.08750000087503047 0.00499999989 0
0.07500000075006638 0.00499999989 0
0.06250000062510228 0.00499999989 0
0.05000000050013685 0.00499999989 0
0.03750000037510499 0.00499999989 0
0.0250000002500691 0.00499999989 0
0.01250000012503455 0.00499999989 0
1 4 0 7
26
27
28
29
30
31
32
0 -0.007499999946225257 0
0 -0.01999999978244102 0
0 -0.03249999961865952 0
0 -0.0449999994548726 0
0 -0.05749999929115346 0
0 -0.06999999912743296 0
0 -0.08249999896371511 0
2 1 0 66
33
34
35
36
37
38
39
40
41
42
43
44
45
46
47
48
49
50
51
52
53
54
55
56
57
58
59
60
61
62
63
64
65
66
67
68
69
70
71
72
73
74
75
76
77
78
79
80
81
82
83
84
85
86
87
88
89
90
91
92
93
94
95
96
97
98
0.04375000043762092 -0.005825317765557481 0
0.05625000058953317 -0.08417468116013033 0
0.01107249439485905 -0.0514094853337814 0
0.08875756287276944 -0.03785122934201218 0
0.08879629942595638 -0.06483406973878295 0
0.01182626884822373 -0.02807740176655115 0
0.03098918601813181 -0.08429849435527209 0
0.06871891409155069 -0.005449318745083238 0
0.0109485197729645 -0.0746657922932787 0
0.08792304722295033 -0.01369093542617622 0
0.08119703370557274 -0.08441534816749616 0
0.01875000018755182 -0.00582531776558858 0
0.06874117284074539 -0.08421479233464602 0
0.06249852934013145 -0.0733560487339405 0
0.04999975537160865 -0.07335047771972888 0
0.05624971455852161 -0.06252534584134957 0
0.04356631238159095 -0.06263905727919918 0
0.04996933827573927 -0.05171811357559768 0
0.06249484260230131 -0.05170217590933119 0
0.0562440306309514 -0.04087721628094489 0
0.04374389527909524 -0.04087727589763948 0
0.05000000072687066 -0.03004809326298325 0
0.06249900574102058 -0.03004872752306575 0
0.03749898314934805 -0.03004873741428772 0
0.03124881353178431 -0.04087416228664814 0
0.05625000076316147 -0.0192227757008232 0
0.02500000073170194 -0.03004809319753675 0
0.03133247618992393 -0.01976316064869887 0
0.06866188477902202 -0.01976769110640381 0
0.07670613659490548 -0.03097862026162077 0
0.01875860142710023 -0.04050074115147345 0
0.02500000066095289 -0.05169872821552218 0
0.01778732285679705 -0.06267859396114098 0
0.03014840247739005 -0.0632117000127433 0
0.02375682056806062 -0.07368767386346385 0
0.03716791412344379 -0.07350006626416791 0
0.07694087803020756 -0.0723213374289569 0
0.03125000028316435 -0.00582531774860176 0
0.05625000054906144 -0.005825317757739284 0
0.06875000074311802 -0.04087341084958315 0
0.07457334325083539 -0.05161282515930147 0
0.06875000065797787 -0.0625240459273626 0
0.0436793878667707 -0.08420749427106211 0
0.03727946043442545 -0.05183650621122499 0
0.04375000073194071 -0.01922277569151313 0
0.08896545243869025 -0.02595485505189072 0
0.08719967706523417 -0.05144649169755178 0
0.08081462871844963 -0.004292564756231075 0
0.08960145051991084 -0.07636297282935972 0
0.01034157828869695 -0.01433620043674585 0
0.01911333636264131 -0.08471730700392364 0
0.07943059288194865 -0.02057132019129924 0
0.02010889465340772 -0.02000733341600921 0
0.008453570425354549 -0.03874999953676606 0
0.07919734410537249 -0.04255251546201387 0
0.07912073326355069 -0.06108053943273598 0
0.007733756083765782 -0.0637499992092932 0
0.09084936576479835 -0.08584936364218283 0
0.009150635235203501 -0.004150635267817289 0
0.009150635003075853 -0.08584936387427888 0
0.09084936599692479 -0.004150635035722332 0
0.06250000079571237 -0.01252404679880299 0
0.05000000069304465 -0.01252404678217358 0
0.03750000073798133 -0.01252404686583736 0
0.02601613514446465 -0.01253069591453232 0
0.07489644337417516 -0.01246449911040466 0
$EndNodes
$Elements
9 198 1 198
0 1 15 1
1 1 
0 2 15 1
2 2 
0 3 15 1
3 3 
0 4 15 1
4 4 
1 1 1 8
5 1 5 
6 5 6 
7 6 7 
8 7 8 
9 8 9 
10 9 10 
11 10 11 
12 11 2 
1 2 1 8
13 2 12 
14 12 13 
15 13 14 
16 14 15 
17 15 16 
18 16 17 
19 17 18 
20 18 3 
1 3 1 8
21 3 19 
22 19 20 
23 20 21 
24 21 22 
25 22 23 
26 23 24 
27 24 25 
28 25 4 
1 4 1 8
29 4 26 
30 26 27 
31 27 28 
32 28 29 
33 29 30 
34 30 31 
35 31 32 
36 32 1 
2 1 2 162
37 37 69 81 
38 62 36 78 
39 59 38 63 
40 69 37 88 
41 36 62 87 
42 63 38 86 
43 65 41 67 
44 67 39 68 
45 41 65 89 
46 64 35 65 
47 63 35 64 
48 66 49 76 
49 66 67 68 
50 69 43 81 
51 79 73 88 
52 73 79 87 
53 64 66 76 
54 49 66 68 
55 62 78 84 
56 38 59 85 
57 64 65 66 
58 44 82 85 
59 44 85 97 
60 37 79 88 
61 66 65 67 
62 39 67 83 
63 68 39 75 
64 46 69 74 
65 34 45 46 
66 45 43 69 
67 47 68 75 
68 34 47 75 
69 39 7 75 
70 34 9 45 
71 33 23 70 
72 40 21 71 
73 46 45 69 
74 72 51 73 
75 49 50 76 
76 52 51 72 
77 10 43 45 
78 10 11 43 
79 24 25 44 
80 47 46 48 
81 34 46 47 
82 24 44 70 
83 57 59 63 
84 47 48 49 
85 61 55 62 
86 53 56 57 
87 62 55 72 
88 57 56 59 
89 6 7 39 
90 20 21 40 
91 48 46 74 
92 22 33 71 
93 55 52 72 
94 50 53 76 
95 57 64 76 
96 8 34 75 
97 8 9 34 
98 53 57 76 
99 57 63 64 
100 22 23 33 
101 21 22 71 
102 9 10 45 
103 23 24 70 
104 7 8 75 
105 49 48 50 
106 50 48 51 
107 53 54 56 
108 47 49 68 
109 73 51 74 
110 58 55 61 
111 51 48 74 
112 50 52 53 
113 50 51 52 
114 53 52 54 
115 59 56 60 
116 54 52 55 
117 54 55 58 
118 56 54 77 
119 54 58 77 
120 29 30 35 
121 15 16 36 
122 14 15 79 
123 13 14 37 
124 27 28 38 
125 16 17 78 
126 60 56 77 
127 31 32 41 
128 17 18 42 
129 15 36 79 
130 36 16 78 
131 37 14 79 
132 17 42 78 
133 42 80 98 
134 84 42 98 
135 79 36 87 
136 19 20 80 
137 12 13 81 
138 26 27 82 
139 35 63 86 
140 5 6 83 
141 6 39 83 
142 65 35 89 
143 20 40 80 
144 13 37 81 
145 27 38 82 
146 67 41 83 
147 62 72 87 
148 29 35 86 
149 38 28 86 
150 74 69 88 
151 35 30 89 
152 31 41 89 
153 11 2 90 
154 25 4 91 
155 2 12 90 
156 4 26 91 
157 1 5 92 
158 3 19 93 
159 32 1 92 
160 18 3 93 
161 78 42 84 
162 61 62 84 
163 59 60 85 
164 82 38 85 
165 28 29 86 
166 72 73 87 
167 73 74 88 
168 19 80 93 
169 12 81 90 
170 26 82 91 
171 30 31 89 
172 43 11 90 
173 44 25 91 
174 41 32 92 
175 42 18 93 
176 5 83 92 
177 60 96 97 
178 33 70 96 
179 40 71 94 
180 71 33 95 
181 94 71 95 
182 58 61 94 
183 58 94 95 
184 77 58 95 
185 95 33 96 
186 77 95 96 
187 60 77 96 
188 96 70 97 
189 70 44 97 
190 80 42 93 
191 81 43 90 
192 82 44 91 
193 94 61 98 
194 40 94 98 
195 83 41 92 
196 80 40 98 
197 85 60 97 
198 61 84 98 
$EndElements
