$MeshFormat
4.1 0 8
$EndMeshFormat
$Entities
4 4 1 0
1 0 0 0 0 
2 0.100000001 0 0 0 
3 0.100000001 0.09999999868999999 0 0 
4 0 0.09999999868999999 0 0 
1 0 0 0 0.100000001 0 0 0 2 1 -2 
2 0.100000001 0 0 0.100000001 0.09999999868999999 0 0 2 2 -3 
3 0 0.09999999868999999 0 0.100000001 0.09999999868999999 0 0 2 3 -4 
4 0 0 0 0 0.09999999868999999 0 0 2 4 -1 
1 0 0 0 0.100000001 0.09999999868999999 0 0 4 1 2 3 4 
$EndEntities
$Nodes
9 16 1 16
0 1 0 1
1
0 0 0
0 2 0 1
2
0.100000001 0 0
0 3 0 1
3
0.100000001 0.09999999868999999 0
0 4 0 1
4
0 0.09999999868999999 0
1 1 0 2
5
6
0.03333333366658211 0 0
0.066666667333245 0 0
1 2 0 2
7
8
0.100000001 0.03333333289658734 0
0.100000001 0.06666666579324536 0
1 3 0 2
9
10
0.06666666733342275 0.09999999868999999 0
0.03333333366675788 0.09999999868999999 0
1 4 0 2
11
12
0 0.06666666579341465 0
0 0.03333333289675426 0
2 1 0 4
13
14
15
16
0.03333333366664069 0.03333333289669862 0
0.03333333366669929 0.06666666579335824 0
0.06666666733330423 0.03333333289664298 0
0.06666666733336349 0.06666666579330179 0
$EndNodes
$Elements
9 25 1 25
0 1 15 1
1 1 
0 2 15 1
2 2 
0 3 15 1
3 3 
0 4 15 1
4 4 
1 1 1 3
5 1 5 
6 5 6 
7 6 2 
1 2 1 3
8 2 7 
9 7 8 
10 8 3 
1 3 1 3
11 3 9 
12 9 10 
13 10 4 
1 4 1 3
14 4 11 
15 11 12 
16 12 1 
2 1 3 9
17 1 5 13 12 
18 12 13 14 11 
19 11 14 10 4 
20 5 6 15 13 
21 13 15 16 14 
22 14 16 9 10 
23 6 2 7 15 
24 15 7 8 16 
25 16 8 3 9 
$EndElements
